<svg width="557" height="117" viewBox="0 0 557 117" fill="none" xmlns="http://www.w3.org/2000/svg">
<path fill-rule="evenodd" clip-rule="evenodd" d="M546.139 80.3564C544.963 81.4565 543.169 81.9924 540.708 81.9924V82.0206H533.71V69.102H540.708C545.523 69.102 547.9 71.2458 547.9 75.5896C547.93 77.6204 547.343 79.2282 546.139 80.3564ZM555.294 82.2463C556.44 80.1592 557 77.9309 557 75.5615C557 72.9381 556.385 70.5971 555.18 68.4815C554.005 66.3944 552.214 64.7866 549.805 63.5735C547.398 62.389 544.487 61.7967 541.1 61.7967H524.892V106.166H533.71V89.1569H541.1C544.711 89.1569 547.706 88.5364 550.057 87.2673C552.437 85.9979 554.199 84.3337 555.294 82.2463ZM503.558 61.853V106.222H494.74V77.3665L482.927 106.222H476.236L464.368 77.3665V106.222H455.55V61.853H465.569L479.569 94.8265L493.565 61.853H503.558ZM416.02 72.0919L422.403 90.652H409.637L416.02 72.0919ZM407.26 97.7601H424.783L427.668 106.222H436.988L421.172 61.7967H410.897L395.081 106.222H404.349L407.26 97.7601ZM353.621 82.2463H361.014C363.391 82.2463 365.185 81.6822 366.386 80.5258C367.565 79.3412 368.151 77.7052 368.151 75.6178C368.151 73.5871 367.565 72.0074 366.386 70.9074C365.211 69.7791 363.42 69.1868 361.014 69.1868H353.621V82.2463ZM367.481 106.222L357.766 88.9315H353.595V106.222H344.777V61.853H361.292C364.709 61.853 367.62 62.4735 370 63.6866C372.377 64.8711 374.171 66.5071 375.373 68.5946C376.606 70.6253 377.193 72.9099 377.193 75.4488C377.193 78.3539 376.354 81.0054 374.673 83.4027C372.996 85.744 370.502 87.3519 367.17 88.2544L377.698 106.25H367.481V106.222ZM314.627 106.222H323.445V61.7967H314.627V92.288L294.639 61.7967H285.821V106.222H294.639V75.7872L314.627 106.222ZM251.08 96.9421C249.064 98.1267 246.713 98.719 244.081 98.719C241.45 98.719 239.07 98.1267 237.027 96.9421C235.011 95.7009 233.444 93.9804 232.296 91.7239C231.148 89.4671 230.588 86.8723 230.588 83.9105C230.588 80.9206 231.176 78.3539 232.296 76.1538C233.416 73.8973 235.011 72.205 237.027 70.9919C239.098 69.8073 241.45 69.215 244.081 69.215C246.713 69.215 249.064 69.8073 251.08 70.9919C253.095 72.1768 254.663 73.8973 255.811 76.1538C256.959 78.3539 257.519 80.9491 257.519 83.9105C257.519 86.8723 256.931 89.4671 255.811 91.7239C254.691 93.9804 253.095 95.7009 251.08 96.9421ZM232.744 103.74C236.187 105.686 239.966 106.645 244.109 106.645C248.224 106.645 252.004 105.686 255.475 103.74C258.918 101.793 261.606 99.0859 263.593 95.6727C265.609 92.2032 266.617 88.2825 266.617 83.9105C266.617 79.5951 265.609 75.7023 263.593 72.2895C261.634 68.8199 258.918 66.1124 255.475 64.1658C252.06 62.2196 248.28 61.2607 244.109 61.2607C239.994 61.2607 236.187 62.2478 232.744 64.1658C229.272 66.1124 226.557 68.8199 224.542 72.2895C222.526 75.7308 221.518 79.5951 221.518 83.9105C221.518 88.2825 222.526 92.2032 224.542 95.6727C226.557 99.0859 229.301 101.793 232.744 103.74Z" fill="#727272"/>
<path fill-rule="evenodd" clip-rule="evenodd" d="M105.932 110.283C117.522 117.025 132.331 113.019 139.022 101.342C145.712 89.6644 141.737 74.7432 130.148 68.002C118.558 61.2605 103.749 65.2659 97.0585 76.9433C96.8905 77.1972 96.7784 77.4511 96.6385 77.7331L74.3832 116.573H100.502L104.589 109.437C104.981 109.747 105.457 110.001 105.932 110.283Z" fill="#727272"/>
<path fill-rule="evenodd" clip-rule="evenodd" d="M87.2533 76.1268L92.5162 66.9313C92.684 66.6211 92.852 66.3108 93.0201 66.0288C99.4867 54.7743 113.484 50.6562 124.849 56.4103C125.073 47.7508 120.706 39.2605 112.728 34.6349C101.138 27.8934 86.3294 31.8988 79.6387 43.5762C79.471 43.8583 79.3308 44.1122 79.1909 44.3942L37.8716 116.575H63.9902L87.1973 76.0983C87.1973 76.0983 87.1973 76.0983 87.2533 76.1268Z" fill="#727272"/>
<path fill-rule="evenodd" clip-rule="evenodd" d="M67.3819 44.7373L72.7287 35.4009C72.8686 35.1471 73.0088 34.8932 73.1487 34.6675C79.6153 23.413 93.6123 19.2949 104.978 25.049C105.202 16.3896 100.835 7.89939 92.8564 3.27352C81.2668 -3.46785 66.458 0.537482 59.7673 12.215C59.5436 12.5535 59.3476 12.9484 59.1796 13.2868L0 116.551H26.1185L67.3259 44.6525C67.3541 44.7088 67.3541 44.7088 67.3819 44.7373Z" fill="#727272"/>
</svg>
