<svg width="32" height="32" viewBox="0 0 32 32" fill="none" xmlns="http://www.w3.org/2000/svg">
<path d="M25.1687 18.4596C23.8383 18.4596 22.6419 19.0421 21.8193 19.9649L19.9581 18.8404C20.3024 18.0593 20.4941 17.1963 20.4941 16.2892C20.4941 14.5631 19.8011 12.996 18.679 11.8508L21.3313 8.47499C21.7541 8.66508 22.2221 8.77178 22.7149 8.77178C24.5818 8.77178 26.1008 7.25289 26.1008 5.38586C26.1008 3.51883 24.5819 2 22.715 2C20.848 2 19.3291 3.51889 19.3291 5.38592C19.3291 5.62725 19.355 5.86263 19.4032 6.0898C19.5111 6.5979 19.7335 7.06383 20.0417 7.46015L17.3896 10.8356C16.4404 10.2693 15.3318 9.94329 14.1483 9.94329C12.5414 9.94329 11.0723 10.544 9.95307 11.5323L8.33689 10.1195C8.49253 9.77212 8.57981 9.38772 8.57981 8.98314C8.57981 8.7843 8.55854 8.59038 8.51878 8.40318C8.25108 7.14226 7.12939 6.19327 5.78993 6.19327C4.25152 6.19327 3 7.44479 3 8.98314C3 10.5215 4.25152 11.7731 5.78993 11.7731C6.32767 11.7731 6.83014 11.6197 7.25659 11.3551L8.87222 12.7673C8.19689 13.7757 7.80248 14.9872 7.80248 16.2894C7.80248 18.064 8.53502 19.6705 9.71321 20.8232L7.70416 23.4955C7.29881 23.3236 6.85333 23.2284 6.38602 23.2284C4.51905 23.2284 3.00011 24.7473 3.00011 26.6143C3.00011 28.4813 4.51894 30 6.38597 30C8.253 30 9.77189 28.4811 9.77189 26.6141C9.77189 26.3922 9.74979 26.1755 9.70889 25.9653C9.60088 25.4113 9.35768 24.9053 9.01474 24.4831L11.0238 21.8108C11.9468 22.3352 13.0132 22.6351 14.1485 22.6351C16.1534 22.6351 17.9438 21.7003 19.1076 20.2439L20.9689 21.3684C20.7835 21.8598 20.6813 22.3917 20.6813 22.9471C20.6813 23.2412 20.7106 23.5285 20.7648 23.8069C21.1672 25.8714 22.9884 27.4347 25.1688 27.4347C27.6432 27.4347 29.6563 25.4216 29.6563 22.9471C29.6563 20.4727 27.6432 18.4596 25.1687 18.4596ZM22.715 3.64111C23.677 3.64111 24.4598 4.4238 24.4598 5.38592C24.4598 6.34803 23.6771 7.13072 22.715 7.13072C21.7529 7.13072 20.9702 6.34798 20.9702 5.38592C20.9702 4.42385 21.7529 3.64111 22.715 3.64111ZM5.78988 10.1318C5.15638 10.1318 4.64111 9.61642 4.64111 8.98303C4.64111 8.34959 5.15643 7.83432 5.78988 7.83432C6.42332 7.83432 6.93864 8.34964 6.93864 8.98303C6.9387 9.61642 6.42338 10.1318 5.78988 10.1318ZM6.38586 28.3588C5.4238 28.3588 4.64106 27.5761 4.64106 26.614C4.64106 25.652 5.42375 24.8692 6.38586 24.8692C7.34792 24.8692 8.13066 25.6519 8.13066 26.614C8.13061 27.5761 7.34792 28.3588 6.38586 28.3588ZM14.1483 20.994C11.554 20.994 9.44354 18.8834 9.44354 16.2892C9.44354 13.695 11.5541 11.5844 14.1483 11.5844C16.7425 11.5844 18.8531 13.695 18.8531 16.2892C18.8531 18.8834 16.7425 20.994 14.1483 20.994ZM25.1688 25.7935C23.5993 25.7935 22.3224 24.5166 22.3224 22.9471C22.3224 21.3776 23.5993 20.1007 25.1688 20.1007C26.7383 20.1007 28.0152 21.3776 28.0152 22.9471C28.0152 24.5166 26.7383 25.7935 25.1688 25.7935Z" fill="#03032D"/>
</svg>
