<svg width="32" height="32" viewBox="0 0 32 32" fill="none" xmlns="http://www.w3.org/2000/svg">
<path d="M27.9379 6.46477L16.2579 0.256769C16.0019 0.0967688 15.6819 0.128769 15.3939 0.256769L4.06594 6.46477C3.77794 6.62477 3.58594 6.91277 3.58594 7.26477V15.3928C3.58594 22.2088 7.61794 28.3528 13.8579 31.1048L15.4259 31.7768C15.5539 31.8408 15.6499 31.8408 15.7779 31.8408C15.9059 31.8408 16.0339 31.8088 16.1299 31.7768L17.8899 31.0088C24.2579 28.3208 28.3859 22.1448 28.3859 15.2328V7.26477C28.4179 6.94477 28.2259 6.62477 27.9379 6.46477ZM26.6259 7.80877V15.2328C26.6259 21.4088 22.9459 26.9448 17.2499 29.3448L15.8099 29.9528L14.5939 29.4408C9.02594 27.0088 5.40994 21.4728 5.40994 15.3928V7.80877L15.8419 2.08077L26.6259 7.80877ZM10.4339 15.9688C10.2739 15.7768 10.2099 15.5528 10.2099 15.2968C10.2419 15.0408 10.3379 14.8488 10.5299 14.6888C10.9139 14.3688 11.4899 14.4008 11.8099 14.7848L14.3059 17.6968L20.7699 12.4808C20.9619 12.3208 21.1859 12.2568 21.4419 12.2888C21.6659 12.3208 21.8899 12.4168 22.0499 12.6088C22.2099 12.8008 22.2739 13.0248 22.2419 13.2808C22.2099 13.5048 22.1139 13.7288 21.9219 13.8888L14.7539 19.6808C14.5939 19.8088 14.4019 19.8728 14.1779 19.8728C13.9219 19.8728 13.6659 19.7768 13.5059 19.5528L10.4339 15.9688Z" fill="black"/>
</svg>
