<svg width="32" height="32" viewBox="0 0 32 32" fill="none" xmlns="http://www.w3.org/2000/svg">
<path d="M25.2242 0.90625H6.77622C4.46422 0.90625 2.58289 2.78758 2.58289 5.09958V26.9022C2.58289 29.2142 4.46422 31.0956 6.77622 31.0956H17.8629C18.4936 31.0956 19.0976 30.8609 19.5629 30.4342L28.6016 22.1489C29.1202 21.6729 29.4176 20.9969 29.4176 20.2942V5.09825C29.4176 2.78625 27.5362 0.90625 25.2242 0.90625ZM19.3549 28.3489V24.3849C19.3549 22.9982 20.4829 21.8689 21.8709 21.8689H26.4242L19.3549 28.3489ZM27.7402 20.1929H21.8709C19.5589 20.1929 17.6776 22.0742 17.6776 24.3862V29.4169H6.77622C5.38955 29.4169 4.26022 28.2889 4.26022 26.9009V5.09825C4.26022 3.71158 5.38822 2.58225 6.77622 2.58225H25.2242C26.6109 2.58225 27.7402 3.71025 27.7402 5.09825V20.1929Z" fill="black"/>
<path d="M21.0321 6.77734H7.61475V8.45468H21.0321V6.77734Z" fill="black"/>
<path d="M14.3227 24.3867H7.61475V26.0641H14.3227V24.3867Z" fill="black"/>
<path d="M17.6774 18.5156H7.61475V20.193H17.6774V18.5156Z" fill="black"/>
<path d="M24.3854 12.6445H7.61475V14.3219H24.3854V12.6445Z" fill="black"/>
</svg>
