<svg width="2000" height="220" viewBox="0 0 2000 220" fill="none" xmlns="http://www.w3.org/2000/svg">
<mask id="mask0" mask-type="alpha" maskUnits="userSpaceOnUse" x="0" y="0" width="2000" height="220">
<rect width="2000" height="220" fill="white"/>
</mask>
<g mask="url(#mask0)">
<path d="M-87.2348 952.427C-78.4472 1018.46 -17.5523 1064.7 48.4174 1055.43L1772.99 813.058C1813.89 807.31 1848.96 780.929 1865.82 743.225L2122.69 168.988C2160.28 84.9411 2093.13 -8.38642 2001.49 0.55706L-61.8116 201.928C-129.411 208.526 -178.066 269.863 -169.107 337.19L-87.2348 952.427Z" fill="white"/>
<path opacity="0.6" d="M193.086 189.098C193.694 195.697 188.838 201.54 182.239 202.149L-162.846 233.988C-169.445 234.597 -175.289 229.741 -175.898 223.141V223.141C-176.507 216.542 -171.65 210.699 -165.051 210.09L180.034 178.251C186.633 177.642 192.477 182.498 193.086 189.098V189.098Z" fill="url(#paint0_linear)"/>
<path d="M355.119 137.898C356.337 151.097 346.624 162.784 333.425 164.002L-5.60338 195.282C-18.8022 196.5 -30.4891 186.787 -31.7068 173.588V173.588C-32.9246 160.39 -23.2121 148.703 -10.0133 147.485L329.015 116.205C342.214 114.987 353.901 124.7 355.119 137.898V137.898Z" fill="url(#paint1_linear)"/>
</g>
<defs>
<linearGradient id="paint0_linear" x1="176.437" y1="179.668" x2="42.9791" y2="355.555" gradientUnits="userSpaceOnUse">
<stop stop-color="#020084"/>
<stop offset="1" stop-color="#D2E4FF"/>
</linearGradient>
<linearGradient id="paint1_linear" x1="336.711" y1="117.665" x2="93.2308" y2="288.633" gradientUnits="userSpaceOnUse">
<stop stop-color="#C4640B"/>
<stop offset="0.375" stop-color="#750A5D"/>
<stop offset="1" stop-color="#2D2ABB"/>
</linearGradient>
</defs>
</svg>
