<svg width="1360" height="220" viewBox="0 0 1360 220" fill="none" xmlns="http://www.w3.org/2000/svg">
<mask id="mask0" mask-type="alpha" maskUnits="userSpaceOnUse" x="0" y="0" width="1360" height="220">
<rect width="1360" height="220" fill="white"/>
</mask>
<g mask="url(#mask0)">
<rect width="1928.78" height="861.161" rx="120" transform="matrix(0.990268 -0.139173 -0.139173 -0.990268 -71.2893 1072.25)" fill="white"/>
<path opacity="0.6" d="M192.615 177.617C193.537 184.18 188.965 190.248 182.402 191.17L-160.776 239.401C-167.339 240.323 -173.407 235.75 -174.329 229.187C-175.251 222.625 -170.679 216.556 -164.116 215.634L179.062 167.404C185.625 166.481 191.693 171.054 192.615 177.617Z" fill="url(#paint0_linear)"/>
<path d="M352.027 118.765C353.872 131.891 344.727 144.027 331.601 145.871L-5.55441 193.255C-18.6802 195.1 -30.8163 185.955 -32.661 172.829C-34.5057 159.703 -25.3605 147.567 -12.2347 145.723L324.92 98.3385C338.046 96.4938 350.182 105.639 352.027 118.765Z" fill="url(#paint1_linear)"/>
</g>
<defs>
<linearGradient id="paint0_linear" x1="175.537" y1="168.99" x2="50.6031" y2="351.032" gradientUnits="userSpaceOnUse">
<stop stop-color="#020084"/>
<stop offset="1" stop-color="#D2E4FF"/>
</linearGradient>
<linearGradient id="paint1_linear" x1="332.677" y1="99.4309" x2="97.6117" y2="281.796" gradientUnits="userSpaceOnUse">
<stop stop-color="#C4640B"/>
<stop offset="0.375" stop-color="#750A5D"/>
<stop offset="1" stop-color="#2D2ABB"/>
</linearGradient>
</defs>
</svg>
