<svg width="93" height="20" viewBox="0 0 93 20" fill="none" xmlns="http://www.w3.org/2000/svg">
<path d="M20.4224 7.91642L20.3944 7.84175L17.5677 0.468478C17.5105 0.323702 17.4087 0.200887 17.2771 0.117813C17.1789 0.0549297 17.0673 0.015934 16.9512 0.00395111C16.8352 -0.0080318 16.718 0.00733192 16.609 0.0488106C16.5 0.0902892 16.4022 0.156729 16.3235 0.242805C16.2448 0.328881 16.1873 0.432199 16.1558 0.544477L14.2478 6.38576H6.52117L4.61318 0.544477C4.58135 0.432367 4.52377 0.329243 4.44503 0.243332C4.36628 0.157421 4.26855 0.0910987 4.15963 0.0496539C4.0507 0.00820906 3.93361 -0.00721145 3.81767 0.00462249C3.70173 0.0164564 3.59016 0.0552169 3.49186 0.117813C3.36021 0.200887 3.25841 0.323702 3.20119 0.468478L0.375881 7.84309L0.346548 7.91642C-0.0602144 8.97949 -0.110326 10.146 0.203767 11.24C0.51786 12.3341 1.17913 13.2963 2.08787 13.9817L2.09854 13.9897L2.12253 14.0084L6.4225 17.231L8.55582 18.843L9.85181 19.823C10.0039 19.9379 10.1892 20 10.3798 20C10.5704 20 10.7557 19.9379 10.9078 19.823L12.2038 18.843L14.3371 17.231L18.6677 13.9897L18.6797 13.9804C19.5884 13.2952 20.2498 12.3333 20.5641 11.2395C20.8784 10.1458 20.8287 8.97945 20.4224 7.91642Z" fill="white"/>
<path d="M37.3449 7.54112H40.3823C39.8756 4.31182 37.0796 2.0625 33.441 2.0625C29.1357 2.0625 25.905 5.22781 25.905 10.5291C25.905 15.7357 28.9903 18.965 33.529 18.965C37.6023 18.965 40.5182 16.3451 40.5182 12.1038V10.1278H33.8423V12.4571H37.6343C37.5863 14.8037 36.0196 16.2891 33.545 16.2891C30.7903 16.2891 28.9023 14.2251 28.9023 10.4971C28.9023 6.79313 30.8223 4.73715 33.481 4.73715C35.465 4.73715 36.8223 5.79714 37.3449 7.54112Z" fill="white"/>
<path d="M42.5261 18.7318H45.4341V6.39854H42.5261V18.7318ZM43.9928 4.43856C44.9168 4.43856 45.6715 3.73056 45.6715 2.8639C45.6715 1.99724 44.9168 1.28125 43.9928 1.28125C43.0688 1.28125 42.3062 1.98791 42.3062 2.8639C42.3062 3.7399 43.0555 4.43856 43.9875 4.43856H43.9928Z" fill="white"/>
<path d="M54.1421 6.40014H51.7075V3.4375H48.7995V6.40014H47.0488V8.64946H48.7995V15.5107C48.7835 17.8321 50.4715 18.9774 52.6554 18.9094C53.2372 18.8978 53.8141 18.8003 54.3674 18.62L53.8768 16.3454C53.5989 16.4175 53.3132 16.4556 53.0261 16.4587C52.2941 16.4587 51.7075 16.2014 51.7075 15.0281V8.64279H54.1421V6.40014Z" fill="white"/>
<path d="M56.3928 18.7266H66.6194V16.228H59.3741V2.27344H56.3928V18.7266Z" fill="white"/>
<path d="M72.1899 18.9836C74.1259 18.9836 75.2819 18.0756 75.8126 17.0396H75.9086V18.7343H78.7086V10.4757C78.7086 7.21437 76.0499 6.23438 73.6953 6.23438C71.1006 6.23438 69.1086 7.39037 68.466 9.63968L71.1819 10.0263C71.4699 9.18235 72.2899 8.45969 73.7153 8.45969C75.0659 8.45969 75.8046 9.15035 75.8046 10.3637V10.4117C75.8046 11.2463 74.9286 11.2877 72.7513 11.5197C70.3579 11.777 68.0686 12.4917 68.0686 15.2716C68.0606 17.6983 69.8353 18.9836 72.1899 18.9836ZM73.1459 16.8503C71.9326 16.8503 71.0646 16.2956 71.0646 15.2276C71.0646 14.1103 72.0366 13.645 73.3313 13.4597C74.0953 13.3557 75.6219 13.1623 75.9979 12.8583V14.3116C76.0059 15.681 74.8966 16.8463 73.1459 16.8463V16.8503Z" fill="white"/>
<path d="M80.8499 18.7266H83.7098V16.7827H83.8778C84.3365 17.6826 85.2925 18.944 87.4138 18.944C90.3218 18.944 92.4991 16.6373 92.4991 12.5734C92.4991 8.46006 90.2578 6.22674 87.4058 6.22674C85.2285 6.22674 84.3205 7.53606 83.8778 8.42805H83.7552V2.27344H80.8499V18.7266ZM83.7018 12.5574C83.7018 10.1574 84.7298 8.61205 86.6018 8.61205C88.5378 8.61205 89.5351 10.2587 89.5351 12.5574C89.5351 14.856 88.5231 16.5573 86.6018 16.5573C84.7458 16.5573 83.7018 14.9507 83.7018 12.5574Z" fill="white"/>
</svg>
