<svg width="1165" height="696" viewBox="0 0 1165 696" fill="none" xmlns="http://www.w3.org/2000/svg">
<mask id="mask0" mask-type="alpha" maskUnits="userSpaceOnUse" x="0" y="0" width="1165" height="696">
<rect width="1165" height="696" transform="matrix(1 0 0 -1 0 696)" fill="#C4C4C4"/>
</mask>
<g mask="url(#mask0)">
<path opacity="0.6" fill-rule="evenodd" clip-rule="evenodd" d="M1163 568C1163 880.593 909.592 1134 596.999 1134C284.406 1134 30.9995 880.593 30.9995 568C30.9995 458.388 62.1578 356.054 116.101 269.371C115.495 269.075 114.936 268.701 114.434 268.262C60.2807 355.263 28.9995 457.978 28.9995 568C28.9995 881.698 283.302 1136 596.999 1136C910.697 1136 1165 881.698 1165 568C1165 254.302 910.697 0 596.999 0C398.664 0 224.072 101.654 122.482 255.704C123.097 255.979 123.669 256.335 124.183 256.757C225.42 103.276 399.383 2 596.999 2C909.592 2 1163 255.407 1163 568ZM596.998 998.174C834.576 998.174 1027.17 805.578 1027.17 568C1027.17 437.415 968.986 320.421 877.126 241.528C877.659 241.119 878.135 240.641 878.542 240.107C970.763 319.366 1029.17 436.862 1029.17 568C1029.17 806.683 835.681 1000.17 596.998 1000.17C358.315 1000.17 164.824 806.683 164.824 568C164.824 329.317 358.315 135.826 596.998 135.826C699.127 135.826 792.982 171.252 866.945 230.485C866.497 230.981 866.114 231.536 865.809 232.138C792.171 173.124 698.706 137.826 596.998 137.826C359.419 137.826 166.824 330.421 166.824 568C166.824 805.578 359.419 998.174 596.998 998.174ZM891.347 568C891.347 730.564 759.563 862.348 596.999 862.348C434.436 862.348 302.652 730.564 302.652 568C302.652 405.436 434.436 273.652 596.999 273.652C759.563 273.652 891.347 405.436 891.347 568ZM893.347 568C893.347 731.668 760.668 864.348 596.999 864.348C433.331 864.348 300.652 731.668 300.652 568C300.652 404.332 433.331 271.652 596.999 271.652C760.668 271.652 893.347 404.332 893.347 568ZM755.52 568C755.52 655.549 684.547 726.522 596.998 726.522C509.449 726.522 438.476 655.549 438.476 568C438.476 480.451 509.449 409.479 596.998 409.479C614.141 409.479 630.649 412.2 646.112 417.234C646.229 416.564 646.435 415.924 646.717 415.327C631.062 410.232 614.352 407.479 596.998 407.479C508.344 407.479 436.476 479.347 436.476 568C436.476 656.654 508.344 728.522 596.998 728.522C685.651 728.522 757.52 656.654 757.52 568C757.52 502.012 717.702 445.324 660.782 420.651C660.593 421.301 660.319 421.915 659.972 422.48C716.191 446.842 755.52 502.828 755.52 568Z" fill="#D7E5FF"/>
<g filter="url(#filter0_d)">
<circle cx="872" cy="236" r="4" fill="#FFA600"/>
</g>
<g filter="url(#filter1_d)">
<circle cx="653" cy="418" r="4" fill="#FFA600"/>
</g>
<g filter="url(#filter2_d)">
<circle cx="119" cy="262" r="4" fill="#FFA600"/>
</g>
<g opacity="0.1" filter="url(#filter3_f)">
<rect x="727.929" y="288.934" width="97.0667" height="97.0667" rx="48.5333" fill="#343C7B"/>
</g>
<circle cx="769.533" cy="330.533" r="48.5333" fill="white"/>
<g clip-path="url(#clip0)">
<path d="M781.287 331.68C776.289 331.68 772.239 335.788 772.239 340.855C772.239 345.923 776.289 350.031 781.287 350.031C786.283 350.031 790.333 345.923 790.333 340.855C790.333 335.788 786.283 331.68 781.287 331.68V331.68ZM757.781 331.68C752.784 331.681 748.733 335.788 748.733 340.856C748.733 345.923 752.784 350.031 757.781 350.031C762.778 350.031 766.828 345.923 766.828 340.856C766.828 335.788 762.778 331.68 757.78 331.68H757.781V331.68ZM778.581 320.211C778.581 325.278 774.53 329.387 769.534 329.387C764.537 329.387 760.486 325.278 760.486 320.211C760.486 315.143 764.537 311.035 769.534 311.035C774.53 311.035 778.58 315.143 778.58 320.211H778.581Z" fill="url(#paint0_radial)"/>
</g>
<g opacity="0.1" filter="url(#filter4_f)">
<rect x="178.929" y="315.934" width="97.0667" height="97.0667" rx="48.5333" fill="#343C7B"/>
</g>
<circle cx="220.533" cy="357.533" r="48.5333" fill="white"/>
<g clip-path="url(#clip1)">
<path fill-rule="evenodd" clip-rule="evenodd" d="M214.99 336.734C212.69 336.736 210.829 338.599 210.831 340.894C210.829 343.189 212.692 345.051 214.991 345.053H219.152V340.895C219.154 338.6 217.291 336.738 214.99 336.734C214.991 336.734 214.991 336.734 214.99 336.734V336.734ZM214.99 347.828H203.898C201.598 347.829 199.736 349.692 199.737 351.987C199.734 354.282 201.597 356.144 203.896 356.148H214.99C217.289 356.146 219.152 354.284 219.15 351.989C219.152 349.692 217.289 347.829 214.99 347.828V347.828Z" fill="#36C5F0"/>
<path fill-rule="evenodd" clip-rule="evenodd" d="M241.338 351.987C241.34 349.692 239.477 347.829 237.178 347.828C234.878 347.829 233.015 349.692 233.017 351.987V356.148H237.178C239.477 356.146 241.34 354.284 241.338 351.987ZM230.245 351.987V340.894C230.247 338.6 228.386 336.738 226.086 336.734C223.786 336.736 221.924 338.599 221.925 340.894V351.987C221.922 354.282 223.785 356.144 226.084 356.148C228.384 356.146 230.247 354.284 230.245 351.987Z" fill="#2EB67D"/>
<path fill-rule="evenodd" clip-rule="evenodd" d="M226.086 378.333C228.386 378.331 230.248 376.469 230.247 374.174C230.248 371.879 228.386 370.016 226.086 370.015H221.925V374.174C221.924 376.467 223.786 378.33 226.086 378.333ZM226.086 367.238H237.179C239.479 367.236 241.342 365.374 241.34 363.079C241.343 360.784 239.481 358.921 237.181 358.918H226.088C223.788 358.92 221.925 360.782 221.927 363.077C221.925 365.374 223.786 367.236 226.086 367.238V367.238Z" fill="#ECB22E"/>
<path fill-rule="evenodd" clip-rule="evenodd" d="M199.737 363.081C199.736 365.376 201.598 367.239 203.898 367.24C206.198 367.239 208.06 365.376 208.059 363.081V358.922H203.898C201.598 358.924 199.736 360.786 199.737 363.081ZM210.831 363.081V374.174C210.827 376.469 212.69 378.332 214.99 378.335C217.289 378.334 219.152 376.471 219.15 374.176V363.084C219.154 360.789 217.291 358.927 214.991 358.924C212.69 358.924 210.829 360.786 210.831 363.081C210.831 363.083 210.831 363.081 210.831 363.081Z" fill="#E01E5A"/>
</g>
<g opacity="0.1" filter="url(#filter5_f)">
<rect x="946.929" y="114.934" width="97.0667" height="97.0667" rx="48.5333" fill="#343C7B"/>
</g>
<circle cx="988.533" cy="156.533" r="48.5333" fill="white"/>
<g clip-path="url(#clip2)">
<path d="M988.45 137.035C977.008 137.035 967.73 146.273 967.73 157.668C967.73 166.785 973.667 174.519 981.9 177.247C982.935 177.438 983.315 176.8 983.315 176.255C983.315 175.763 983.296 174.137 983.287 172.413C977.523 173.661 976.306 169.979 976.306 169.979C975.364 167.594 974.006 166.96 974.006 166.96C972.126 165.679 974.148 165.705 974.148 165.705C976.228 165.851 977.324 167.832 977.324 167.832C979.172 170.986 982.171 170.074 983.353 169.547C983.539 168.213 984.076 167.303 984.669 166.788C980.067 166.266 975.229 164.497 975.229 156.591C975.229 154.338 976.038 152.498 977.364 151.053C977.149 150.533 976.439 148.434 977.564 145.592C977.564 145.592 979.304 145.038 983.264 147.707C984.916 147.25 986.689 147.021 988.45 147.013C990.211 147.021 991.984 147.25 993.64 147.707C997.595 145.038 999.333 145.592 999.333 145.592C1000.46 148.434 999.751 150.533 999.536 151.053C1000.86 152.498 1001.67 154.338 1001.67 156.591C1001.67 164.516 996.821 166.261 992.207 166.772C992.95 167.412 993.613 168.668 993.613 170.592C993.613 173.353 993.589 175.575 993.589 176.255C993.589 176.804 993.961 177.447 995.012 177.245C1003.24 174.513 1009.17 166.782 1009.17 157.668C1009.17 146.273 999.893 137.035 988.45 137.035Z" fill="black"/>
<path d="M975.489 166.428C975.444 166.53 975.282 166.561 975.134 166.491C974.984 166.424 974.899 166.284 974.948 166.181C974.993 166.075 975.155 166.046 975.305 166.117C975.456 166.184 975.541 166.325 975.489 166.428V166.428ZM976.508 167.334C976.41 167.425 976.216 167.382 976.085 167.238C975.95 167.094 975.924 166.902 976.025 166.809C976.127 166.718 976.314 166.761 976.45 166.905C976.585 167.05 976.612 167.241 976.508 167.334L976.508 167.334ZM977.208 168.492C977.081 168.58 976.873 168.498 976.745 168.314C976.618 168.131 976.618 167.911 976.748 167.823C976.876 167.734 977.081 167.814 977.211 167.996C977.337 168.182 977.337 168.402 977.208 168.492L977.208 168.492ZM978.39 169.834C978.276 169.959 978.035 169.925 977.858 169.755C977.677 169.589 977.626 169.353 977.74 169.228C977.855 169.103 978.098 169.138 978.276 169.307C978.456 169.473 978.511 169.711 978.39 169.834H978.39ZM979.918 170.287C979.868 170.449 979.635 170.522 979.401 170.454C979.166 170.383 979.013 170.194 979.06 170.03C979.109 169.868 979.343 169.791 979.579 169.865C979.813 169.935 979.967 170.123 979.918 170.287H979.918ZM981.658 170.479C981.663 170.65 981.464 170.791 981.218 170.794C980.97 170.799 980.77 170.661 980.767 170.494C980.767 170.322 980.962 170.182 981.209 170.178C981.456 170.174 981.658 170.31 981.658 170.479V170.479ZM983.366 170.414C983.396 170.58 983.224 170.751 982.98 170.796C982.739 170.84 982.517 170.737 982.486 170.573C982.456 170.403 982.631 170.232 982.871 170.188C983.116 170.146 983.335 170.245 983.366 170.414" fill="black"/>
</g>
<g opacity="0.1" filter="url(#filter6_f)">
<rect x="455.664" y="424.668" width="73.3333" height="73.3333" rx="36.6667" fill="#343C7B"/>
</g>
<circle cx="485.666" cy="454.667" r="36.6667" fill="white"/>
<g clip-path="url(#clip3)">
<path d="M496.398 441.332H474.94C473.502 441.332 472.336 442.498 472.336 443.936V465.395C472.336 466.833 473.502 467.999 474.94 467.999H496.398C497.837 467.999 499.003 466.833 499.003 465.395V443.936C499.003 442.498 497.837 441.332 496.398 441.332Z" fill="url(#paint1_linear)"/>
<path d="M494.281 444.797H488.648C487.958 444.797 487.398 445.357 487.398 446.047V455.214C487.398 455.904 487.958 456.464 488.648 456.464H494.281C494.972 456.464 495.531 455.904 495.531 455.214V446.047C495.531 445.357 494.972 444.797 494.281 444.797Z" fill="white"/>
<path d="M482.688 444.797H477.054C476.364 444.797 475.804 445.357 475.804 446.047V461.88C475.804 462.571 476.364 463.13 477.054 463.13H482.688C483.378 463.13 483.938 462.571 483.938 461.88V446.047C483.938 445.357 483.378 444.797 482.688 444.797Z" fill="white"/>
</g>
<g opacity="0.1" filter="url(#filter7_f)">
<rect x="167.664" y="134.668" width="73.3333" height="73.3333" rx="36.6667" fill="#343C7B"/>
</g>
<circle cx="197.666" cy="164.667" r="36.6667" fill="white"/>
<g clip-path="url(#clip4)">
<path d="M195.267 155.617C196.373 154.465 197.912 153.751 199.615 153.751C201.878 153.751 203.853 155.013 204.904 156.886C205.818 156.478 206.83 156.251 207.894 156.251C211.976 156.251 215.285 159.589 215.285 163.707C215.285 167.825 211.976 171.163 207.894 171.163C207.405 171.163 206.917 171.115 206.438 171.018C205.512 172.67 203.747 173.786 201.722 173.786C200.874 173.786 200.072 173.59 199.358 173.242C198.419 175.45 196.232 176.998 193.683 176.998C191.029 176.998 188.767 175.318 187.898 172.963C187.519 173.043 187.126 173.085 186.722 173.085C183.562 173.085 181 170.497 181 167.303C181 165.163 182.151 163.294 183.861 162.295C183.509 161.484 183.313 160.59 183.313 159.65C183.313 155.977 186.295 153 189.972 153C192.132 153 194.051 154.027 195.267 155.617Z" fill="#00A1E0"/>
<path d="M185.963 165.447C185.942 165.503 185.971 165.515 185.978 165.525C186.042 165.572 186.108 165.605 186.174 165.643C186.524 165.828 186.854 165.883 187.199 165.883C187.902 165.883 188.339 165.509 188.339 164.906V164.895C188.339 164.338 187.846 164.136 187.384 163.99L187.324 163.97C186.975 163.857 186.674 163.759 186.674 163.53V163.517C186.674 163.321 186.85 163.176 187.122 163.176C187.425 163.176 187.785 163.277 188.016 163.405C188.016 163.405 188.084 163.449 188.109 163.383C188.123 163.348 188.24 163.032 188.252 162.998C188.265 162.961 188.242 162.934 188.218 162.919C187.954 162.758 187.588 162.648 187.21 162.648L187.14 162.649C186.496 162.649 186.047 163.038 186.047 163.595V163.607C186.047 164.194 186.543 164.385 187.007 164.518L187.082 164.541C187.42 164.645 187.712 164.734 187.712 164.972V164.984C187.712 165.202 187.522 165.364 187.217 165.364C187.098 165.364 186.719 165.362 186.311 165.103C186.261 165.074 186.233 165.053 186.194 165.03C186.174 165.018 186.124 164.996 186.102 165.062L185.963 165.447V165.447ZM196.259 165.447C196.238 165.503 196.267 165.515 196.274 165.525C196.338 165.572 196.404 165.605 196.47 165.643C196.819 165.828 197.15 165.883 197.495 165.883C198.198 165.883 198.635 165.509 198.635 164.906V164.895C198.635 164.338 198.142 164.136 197.679 163.99L197.619 163.97C197.271 163.857 196.97 163.759 196.97 163.53V163.517C196.97 163.321 197.146 163.176 197.418 163.176C197.721 163.176 198.08 163.277 198.312 163.405C198.312 163.405 198.38 163.449 198.405 163.383C198.418 163.348 198.536 163.032 198.548 162.998C198.561 162.961 198.538 162.934 198.514 162.919C198.249 162.758 197.884 162.648 197.506 162.648L197.436 162.649C196.792 162.649 196.343 163.038 196.343 163.595V163.607C196.343 164.194 196.838 164.385 197.303 164.518L197.378 164.541C197.716 164.645 198.008 164.734 198.008 164.972V164.984C198.008 165.202 197.818 165.364 197.512 165.364C197.394 165.364 197.015 165.362 196.606 165.103C196.557 165.074 196.528 165.054 196.491 165.03C196.478 165.022 196.418 164.999 196.398 165.062L196.259 165.447V165.447ZM203.288 164.267C203.288 164.608 203.224 164.876 203.099 165.065C202.976 165.253 202.789 165.344 202.528 165.344C202.267 165.344 202.081 165.254 201.959 165.065C201.836 164.876 201.773 164.608 201.773 164.267C201.773 163.928 201.836 163.66 201.959 163.472C202.081 163.287 202.267 163.196 202.528 163.196C202.789 163.196 202.976 163.287 203.1 163.472C203.224 163.66 203.288 163.927 203.288 164.267V164.267ZM203.875 163.636C203.817 163.442 203.727 163.27 203.608 163.127C203.488 162.983 203.337 162.868 203.157 162.784C202.978 162.7 202.766 162.658 202.528 162.658C202.29 162.658 202.078 162.7 201.898 162.784C201.719 162.868 201.567 162.983 201.447 163.127C201.328 163.27 201.238 163.442 201.18 163.636C201.123 163.83 201.094 164.042 201.094 164.267C201.094 164.493 201.123 164.705 201.18 164.898C201.238 165.093 201.328 165.265 201.448 165.408C201.567 165.552 201.719 165.667 201.898 165.748C202.078 165.83 202.29 165.871 202.528 165.871C202.766 165.871 202.977 165.83 203.157 165.748C203.336 165.667 203.488 165.552 203.608 165.408C203.728 165.265 203.817 165.093 203.875 164.898C203.933 164.705 203.961 164.492 203.961 164.267C203.961 164.043 203.933 163.83 203.875 163.636V163.636ZM208.696 165.253C208.676 165.196 208.621 165.218 208.621 165.218C208.536 165.251 208.445 165.281 208.348 165.296C208.25 165.311 208.142 165.319 208.026 165.319C207.742 165.319 207.516 165.234 207.355 165.067C207.193 164.9 207.102 164.63 207.103 164.265C207.104 163.932 207.184 163.682 207.328 163.492C207.471 163.302 207.689 163.205 207.979 163.205C208.222 163.205 208.406 163.233 208.6 163.294C208.6 163.294 208.646 163.314 208.668 163.253C208.719 163.111 208.757 163.009 208.812 162.852C208.828 162.808 208.79 162.788 208.776 162.783C208.7 162.753 208.52 162.705 208.384 162.684C208.257 162.665 208.109 162.655 207.944 162.655C207.697 162.655 207.477 162.697 207.289 162.781C207.102 162.864 206.942 162.979 206.816 163.123C206.69 163.267 206.595 163.439 206.531 163.633C206.467 163.827 206.435 164.04 206.435 164.265C206.435 164.752 206.566 165.145 206.826 165.434C207.086 165.723 207.476 165.87 207.985 165.87C208.286 165.87 208.594 165.809 208.816 165.721C208.816 165.721 208.858 165.701 208.84 165.652L208.696 165.253V165.253ZM209.723 163.941C209.751 163.752 209.803 163.595 209.884 163.472C210.005 163.286 210.191 163.184 210.452 163.184C210.712 163.184 210.885 163.287 211.008 163.472C211.09 163.595 211.126 163.759 211.14 163.941H209.723ZM211.699 163.526C211.65 163.338 211.526 163.148 211.445 163.061C211.317 162.923 211.192 162.827 211.068 162.773C210.906 162.704 210.711 162.658 210.499 162.658C210.25 162.658 210.025 162.699 209.843 162.785C209.659 162.871 209.506 162.988 209.385 163.134C209.264 163.28 209.174 163.453 209.116 163.65C209.058 163.846 209.028 164.06 209.028 164.285C209.028 164.514 209.059 164.727 209.119 164.919C209.179 165.112 209.276 165.283 209.407 165.424C209.537 165.566 209.705 165.678 209.907 165.755C210.106 165.832 210.349 165.872 210.628 165.872C211.202 165.87 211.504 165.742 211.629 165.673C211.651 165.661 211.672 165.639 211.645 165.578L211.515 165.214C211.496 165.16 211.441 165.18 211.441 165.18C211.298 165.233 211.096 165.327 210.625 165.326C210.317 165.326 210.088 165.235 209.945 165.093C209.798 164.947 209.726 164.733 209.714 164.432L211.701 164.434C211.701 164.434 211.753 164.433 211.759 164.382C211.761 164.36 211.827 163.974 211.699 163.526V163.526ZM193.808 163.941C193.836 163.752 193.888 163.595 193.968 163.472C194.09 163.286 194.276 163.184 194.536 163.184C194.797 163.184 194.97 163.287 195.094 163.472C195.175 163.595 195.211 163.759 195.225 163.941H193.808V163.941ZM195.784 163.526C195.734 163.338 195.611 163.148 195.53 163.061C195.402 162.923 195.277 162.827 195.153 162.773C194.991 162.704 194.796 162.658 194.583 162.658C194.336 162.658 194.11 162.699 193.927 162.785C193.744 162.871 193.59 162.988 193.47 163.134C193.349 163.28 193.258 163.453 193.201 163.65C193.143 163.846 193.113 164.06 193.113 164.285C193.113 164.514 193.143 164.727 193.204 164.919C193.264 165.112 193.361 165.283 193.492 165.424C193.622 165.566 193.79 165.678 193.991 165.755C194.191 165.832 194.434 165.872 194.713 165.872C195.287 165.87 195.589 165.742 195.713 165.673C195.735 165.661 195.756 165.639 195.73 165.578L195.601 165.214C195.581 165.16 195.525 165.18 195.525 165.18C195.383 165.233 195.182 165.327 194.709 165.326C194.402 165.326 194.173 165.235 194.03 165.093C193.883 164.947 193.811 164.733 193.798 164.432L195.786 164.434C195.786 164.434 195.838 164.433 195.843 164.382C195.845 164.36 195.912 163.974 195.784 163.526V163.526ZM189.512 165.243C189.434 165.181 189.424 165.165 189.397 165.125C189.358 165.064 189.338 164.977 189.338 164.866C189.338 164.692 189.396 164.566 189.516 164.482C189.514 164.482 189.687 164.333 190.092 164.338C190.377 164.342 190.631 164.384 190.631 164.384V165.287H190.632C190.632 165.287 190.379 165.342 190.095 165.359C189.69 165.383 189.511 165.242 189.512 165.243V165.243ZM190.303 163.846C190.222 163.84 190.118 163.837 189.993 163.837C189.822 163.837 189.658 163.858 189.503 163.9C189.348 163.941 189.208 164.006 189.088 164.092C188.968 164.178 188.87 164.29 188.8 164.42C188.73 164.551 188.694 164.705 188.694 164.878C188.694 165.054 188.724 165.207 188.785 165.332C188.845 165.457 188.933 165.562 189.044 165.643C189.155 165.723 189.291 165.782 189.449 165.818C189.605 165.854 189.782 165.872 189.975 165.872C190.179 165.872 190.382 165.855 190.579 165.821C190.774 165.788 191.013 165.74 191.079 165.725C191.126 165.713 191.172 165.701 191.219 165.689C191.268 165.677 191.264 165.624 191.264 165.624L191.263 163.807C191.263 163.408 191.157 163.113 190.947 162.929C190.738 162.747 190.431 162.654 190.034 162.654C189.885 162.654 189.645 162.675 189.502 162.704C189.502 162.704 189.068 162.788 188.889 162.927C188.889 162.927 188.85 162.952 188.871 163.007L189.012 163.385C189.03 163.434 189.077 163.417 189.077 163.417C189.077 163.417 189.092 163.411 189.11 163.401C189.492 163.193 189.976 163.199 189.976 163.199C190.191 163.199 190.356 163.242 190.467 163.327C190.575 163.411 190.631 163.536 190.631 163.801V163.885C190.46 163.86 190.303 163.846 190.303 163.846V163.846ZM206.331 162.822C206.346 162.777 206.315 162.756 206.301 162.751C206.268 162.738 206.099 162.702 205.968 162.694C205.719 162.679 205.58 162.721 205.456 162.776C205.333 162.832 205.196 162.922 205.12 163.024V162.782C205.12 162.748 205.096 162.722 205.063 162.722H204.553C204.52 162.722 204.496 162.748 204.496 162.782V165.746C204.496 165.78 204.524 165.807 204.557 165.807H205.079C205.095 165.807 205.11 165.8 205.121 165.789C205.133 165.778 205.139 165.762 205.139 165.746V164.265C205.139 164.067 205.161 163.868 205.205 163.744C205.248 163.621 205.307 163.522 205.379 163.451C205.452 163.381 205.534 163.332 205.624 163.304C205.717 163.275 205.819 163.266 205.891 163.266C205.995 163.266 206.109 163.293 206.109 163.293C206.147 163.297 206.169 163.274 206.182 163.239C206.216 163.148 206.313 162.876 206.331 162.822" fill="white"/>
<path d="M201.436 161.446C201.373 161.427 201.315 161.414 201.24 161.399C201.164 161.386 201.073 161.379 200.97 161.379C200.61 161.379 200.327 161.48 200.128 161.681C199.93 161.88 199.796 162.183 199.729 162.582L199.704 162.717H199.253C199.253 162.717 199.198 162.715 199.187 162.774L199.113 163.188C199.108 163.227 199.125 163.252 199.177 163.252H199.616L199.171 165.739C199.136 165.939 199.096 166.104 199.052 166.229C199.008 166.352 198.966 166.444 198.913 166.511C198.862 166.576 198.814 166.624 198.731 166.652C198.663 166.675 198.584 166.685 198.497 166.685C198.45 166.685 198.386 166.677 198.338 166.668C198.291 166.658 198.266 166.648 198.231 166.633C198.231 166.633 198.18 166.613 198.159 166.665C198.143 166.707 198.026 167.029 198.012 167.069C197.998 167.108 198.017 167.139 198.042 167.148C198.101 167.169 198.144 167.182 198.224 167.201C198.334 167.227 198.428 167.229 198.515 167.229C198.698 167.229 198.865 167.203 199.003 167.153C199.142 167.103 199.263 167.015 199.37 166.897C199.486 166.769 199.559 166.635 199.628 166.452C199.697 166.272 199.756 166.047 199.803 165.785L200.251 163.252H200.905C200.905 163.252 200.96 163.254 200.972 163.194L201.046 162.781C201.051 162.741 201.034 162.717 200.981 162.717H200.346C200.349 162.703 200.378 162.479 200.451 162.268C200.482 162.179 200.54 162.106 200.59 162.056C200.639 162.008 200.695 161.973 200.756 161.953C200.819 161.932 200.891 161.923 200.97 161.923C201.029 161.923 201.088 161.929 201.133 161.939C201.194 161.952 201.218 161.959 201.235 161.964C201.3 161.983 201.308 161.964 201.321 161.933L201.473 161.516C201.489 161.471 201.45 161.452 201.436 161.446ZM192.558 165.744C192.558 165.777 192.534 165.804 192.501 165.804H191.974C191.941 165.804 191.917 165.777 191.917 165.744V161.503C191.917 161.47 191.941 161.443 191.974 161.443H192.501C192.534 161.443 192.558 161.47 192.558 161.503V165.744Z" fill="white"/>
</g>
<g opacity="0.1" filter="url(#filter8_f)">
<rect x="942.664" y="325.668" width="73.3333" height="73.3333" rx="36.6667" fill="#343C7B"/>
</g>
<circle cx="972.666" cy="355.667" r="36.6667" fill="white"/>
<g clip-path="url(#clip5)">
<path d="M982.878 344.004H962.459C960.737 344.004 959.335 345.229 959.335 346.746V364.744C959.335 366.262 960.737 367.486 962.459 367.486H979.739L978.932 365.024L980.882 366.608L982.726 368.099L986.002 370.628V346.746C986.002 345.229 984.6 344.004 982.878 344.004ZM976.996 361.389C976.996 361.389 976.448 360.817 975.991 360.311C977.987 359.819 978.749 358.727 978.749 358.727C978.124 359.086 977.53 359.339 976.996 359.512C976.235 359.792 975.503 359.978 974.787 360.085C973.324 360.324 971.983 360.258 970.84 360.072C969.972 359.925 969.225 359.712 968.6 359.499C968.25 359.379 967.869 359.233 967.488 359.046C967.442 359.02 967.396 359.007 967.351 358.98C967.32 358.967 967.305 358.953 967.29 358.94C967.015 358.807 966.863 358.714 966.863 358.714C966.863 358.714 967.595 359.779 969.53 360.284C969.073 360.79 968.509 361.389 968.509 361.389C965.141 361.296 963.861 359.366 963.861 359.366C963.861 355.08 966.055 351.605 966.055 351.605C968.25 350.167 970.337 350.207 970.337 350.207L970.49 350.367C967.747 351.059 966.482 352.111 966.482 352.111C966.482 352.111 966.817 351.951 967.381 351.725C969.012 351.099 970.307 350.926 970.84 350.886C970.932 350.873 971.008 350.86 971.099 350.86C972.12 350.743 973.154 350.734 974.177 350.833C975.625 350.979 977.179 351.352 978.764 352.111C978.764 352.111 977.56 351.113 974.97 350.42L975.183 350.207C975.183 350.207 977.271 350.167 979.465 351.605C979.465 351.605 981.659 355.08 981.659 359.366C981.659 359.366 980.364 361.296 976.996 361.389V361.389ZM969.911 355.173C969.042 355.173 968.356 355.838 968.356 356.65C968.356 357.462 969.057 358.128 969.911 358.128C970.779 358.128 971.465 357.462 971.465 356.65C971.48 355.838 970.779 355.173 969.911 355.173H969.911ZM975.473 355.173C974.604 355.173 973.918 355.838 973.918 356.65C973.918 357.462 974.619 358.128 975.473 358.128C976.341 358.128 977.027 357.462 977.027 356.65C977.027 355.838 976.341 355.173 975.473 355.173Z" fill="#7289DA"/>
</g>
<g opacity="0.1" filter="url(#filter9_f)">
<rect x="6.66406" y="447.668" width="73.3333" height="73.3333" rx="36.6667" fill="#343C7B"/>
</g>
<circle cx="36.6667" cy="477.667" r="36.6667" fill="white"/>
<g clip-path="url(#clip6)">
<path d="M46.7425 467.188H35.2769C35.2769 468.56 35.8222 469.877 36.7928 470.847C37.7635 471.818 39.0799 472.363 40.4526 472.363H42.5647V474.403C42.5666 477.259 44.8813 479.573 47.7372 479.575V468.182C47.7372 467.633 47.292 467.188 46.7425 467.188Z" fill="#2684FF"/>
<path d="M41.0672 472.898H29.6016C29.6033 475.754 31.918 478.069 34.774 478.071H36.8861V480.117C36.8898 482.973 39.206 485.286 42.0619 485.286V473.893C42.0619 473.344 41.6165 472.899 41.0672 472.899V472.898Z" fill="url(#paint2_linear)"/>
<path d="M35.3915 478.609H23.9258C23.9258 481.468 26.2432 483.785 29.1016 483.785H31.2203V485.824C31.2222 488.678 33.5328 490.991 36.3862 490.997V479.604C36.3862 479.055 35.9409 478.609 35.3915 478.609Z" fill="url(#paint3_linear)"/>
</g>
<g opacity="0.1" filter="url(#filter10_f)">
<rect x="379.664" y="303.668" width="73.3333" height="73.3333" rx="36.6667" fill="#343C7B"/>
</g>
<circle cx="409.667" cy="333.667" r="36.6667" fill="white"/>
<g clip-path="url(#clip7)">
<path d="M416.358 329.358V326.227C416.772 326.033 417.122 325.726 417.368 325.342C417.614 324.957 417.746 324.51 417.748 324.053V323.981C417.748 322.649 416.669 321.57 415.337 321.57H415.265C413.933 321.57 412.853 322.649 412.853 323.981V324.053C412.855 324.51 412.987 324.957 413.233 325.342C413.479 325.726 413.83 326.033 414.244 326.227V329.358C413.054 329.541 411.934 330.034 410.997 330.788L402.408 324.098C402.469 323.877 402.501 323.65 402.505 323.422C402.506 322.884 402.347 322.358 402.049 321.911C401.752 321.464 401.328 321.114 400.832 320.908C400.336 320.701 399.789 320.647 399.262 320.751C398.735 320.854 398.25 321.112 397.869 321.492C397.489 321.871 397.229 322.355 397.123 322.882C397.018 323.409 397.071 323.956 397.276 324.452C397.481 324.949 397.828 325.374 398.275 325.673C398.721 325.973 399.246 326.133 399.784 326.133C400.254 326.131 400.715 326.006 401.122 325.769L409.58 332.351C408.025 334.7 408.066 337.761 409.684 340.067L407.112 342.64C406.904 342.573 406.687 342.538 406.469 342.535C405.237 342.536 404.239 343.535 404.239 344.767C404.24 345.999 405.238 346.998 406.47 346.998C407.702 346.998 408.701 346 408.702 344.768C408.699 344.55 408.664 344.333 408.597 344.126L411.142 341.58C413.416 343.33 416.539 343.481 418.971 341.958C421.403 340.435 422.63 337.559 422.047 334.749C421.464 331.939 419.195 329.789 416.358 329.358V329.358ZM415.303 339.658C414.833 339.671 414.365 339.589 413.927 339.418C413.489 339.247 413.09 338.99 412.753 338.662C412.416 338.334 412.148 337.941 411.965 337.508C411.782 337.075 411.688 336.609 411.688 336.139C411.688 335.669 411.782 335.203 411.965 334.77C412.148 334.337 412.416 333.944 412.753 333.616C413.09 333.288 413.489 333.031 413.927 332.86C414.365 332.689 414.833 332.607 415.303 332.62C417.198 332.686 418.699 334.241 418.701 336.136C418.701 338.032 417.201 339.588 415.307 339.657" fill="#FF7A59"/>
</g>
</g>
<defs>
<filter id="filter0_d" x="863" y="227" width="18" height="18" filterUnits="userSpaceOnUse" color-interpolation-filters="sRGB">
<feFlood flood-opacity="0" result="BackgroundImageFix"/>
<feColorMatrix in="SourceAlpha" type="matrix" values="0 0 0 0 0 0 0 0 0 0 0 0 0 0 0 0 0 0 127 0"/>
<feOffset/>
<feGaussianBlur stdDeviation="2.5"/>
<feColorMatrix type="matrix" values="0 0 0 0 1 0 0 0 0 0.65098 0 0 0 0 0 0 0 0 0.8 0"/>
<feBlend mode="normal" in2="BackgroundImageFix" result="effect1_dropShadow"/>
<feBlend mode="normal" in="SourceGraphic" in2="effect1_dropShadow" result="shape"/>
</filter>
<filter id="filter1_d" x="644" y="409" width="18" height="18" filterUnits="userSpaceOnUse" color-interpolation-filters="sRGB">
<feFlood flood-opacity="0" result="BackgroundImageFix"/>
<feColorMatrix in="SourceAlpha" type="matrix" values="0 0 0 0 0 0 0 0 0 0 0 0 0 0 0 0 0 0 127 0"/>
<feOffset/>
<feGaussianBlur stdDeviation="2.5"/>
<feColorMatrix type="matrix" values="0 0 0 0 1 0 0 0 0 0.65098 0 0 0 0 0 0 0 0 0.8 0"/>
<feBlend mode="normal" in2="BackgroundImageFix" result="effect1_dropShadow"/>
<feBlend mode="normal" in="SourceGraphic" in2="effect1_dropShadow" result="shape"/>
</filter>
<filter id="filter2_d" x="110" y="253" width="18" height="18" filterUnits="userSpaceOnUse" color-interpolation-filters="sRGB">
<feFlood flood-opacity="0" result="BackgroundImageFix"/>
<feColorMatrix in="SourceAlpha" type="matrix" values="0 0 0 0 0 0 0 0 0 0 0 0 0 0 0 0 0 0 127 0"/>
<feOffset/>
<feGaussianBlur stdDeviation="2.5"/>
<feColorMatrix type="matrix" values="0 0 0 0 1 0 0 0 0 0.65098 0 0 0 0 0 0 0 0 0.8 0"/>
<feBlend mode="normal" in2="BackgroundImageFix" result="effect1_dropShadow"/>
<feBlend mode="normal" in="SourceGraphic" in2="effect1_dropShadow" result="shape"/>
</filter>
<filter id="filter3_f" x="653.929" y="214.934" width="245.067" height="245.067" filterUnits="userSpaceOnUse" color-interpolation-filters="sRGB">
<feFlood flood-opacity="0" result="BackgroundImageFix"/>
<feBlend mode="normal" in="SourceGraphic" in2="BackgroundImageFix" result="shape"/>
<feGaussianBlur stdDeviation="37" result="effect1_foregroundBlur"/>
</filter>
<filter id="filter4_f" x="104.929" y="241.934" width="245.067" height="245.067" filterUnits="userSpaceOnUse" color-interpolation-filters="sRGB">
<feFlood flood-opacity="0" result="BackgroundImageFix"/>
<feBlend mode="normal" in="SourceGraphic" in2="BackgroundImageFix" result="shape"/>
<feGaussianBlur stdDeviation="37" result="effect1_foregroundBlur"/>
</filter>
<filter id="filter5_f" x="872.929" y="40.9336" width="245.067" height="245.067" filterUnits="userSpaceOnUse" color-interpolation-filters="sRGB">
<feFlood flood-opacity="0" result="BackgroundImageFix"/>
<feBlend mode="normal" in="SourceGraphic" in2="BackgroundImageFix" result="shape"/>
<feGaussianBlur stdDeviation="37" result="effect1_foregroundBlur"/>
</filter>
<filter id="filter6_f" x="381.664" y="350.668" width="221.333" height="221.333" filterUnits="userSpaceOnUse" color-interpolation-filters="sRGB">
<feFlood flood-opacity="0" result="BackgroundImageFix"/>
<feBlend mode="normal" in="SourceGraphic" in2="BackgroundImageFix" result="shape"/>
<feGaussianBlur stdDeviation="37" result="effect1_foregroundBlur"/>
</filter>
<filter id="filter7_f" x="93.6636" y="60.668" width="221.333" height="221.333" filterUnits="userSpaceOnUse" color-interpolation-filters="sRGB">
<feFlood flood-opacity="0" result="BackgroundImageFix"/>
<feBlend mode="normal" in="SourceGraphic" in2="BackgroundImageFix" result="shape"/>
<feGaussianBlur stdDeviation="37" result="effect1_foregroundBlur"/>
</filter>
<filter id="filter8_f" x="868.664" y="251.668" width="221.333" height="221.333" filterUnits="userSpaceOnUse" color-interpolation-filters="sRGB">
<feFlood flood-opacity="0" result="BackgroundImageFix"/>
<feBlend mode="normal" in="SourceGraphic" in2="BackgroundImageFix" result="shape"/>
<feGaussianBlur stdDeviation="37" result="effect1_foregroundBlur"/>
</filter>
<filter id="filter9_f" x="-67.3359" y="373.668" width="221.333" height="221.333" filterUnits="userSpaceOnUse" color-interpolation-filters="sRGB">
<feFlood flood-opacity="0" result="BackgroundImageFix"/>
<feBlend mode="normal" in="SourceGraphic" in2="BackgroundImageFix" result="shape"/>
<feGaussianBlur stdDeviation="37" result="effect1_foregroundBlur"/>
</filter>
<filter id="filter10_f" x="305.664" y="229.668" width="221.333" height="221.333" filterUnits="userSpaceOnUse" color-interpolation-filters="sRGB">
<feFlood flood-opacity="0" result="BackgroundImageFix"/>
<feBlend mode="normal" in="SourceGraphic" in2="BackgroundImageFix" result="shape"/>
<feGaussianBlur stdDeviation="37" result="effect1_foregroundBlur"/>
</filter>
<radialGradient id="paint0_radial" cx="0" cy="0" r="1" gradientUnits="userSpaceOnUse" gradientTransform="translate(769.539 332.372) rotate(39.3263) scale(22.4003 20.9982)">
<stop offset="0.119792" stop-color="#FFB900"/>
<stop offset="0.6" stop-color="#FF5189"/>
<stop offset="0.999" stop-color="#FF4747"/>
</radialGradient>
<linearGradient id="paint1_linear" x1="485.669" y1="441.332" x2="485.669" y2="467.999" gradientUnits="userSpaceOnUse">
<stop stop-color="#0091E6"/>
<stop offset="1" stop-color="#0079BF"/>
</linearGradient>
<linearGradient id="paint2_linear" x1="41.8166" y1="472.918" x2="36.9689" y2="477.977" gradientUnits="userSpaceOnUse">
<stop offset="0.18" stop-color="#0052CC"/>
<stop offset="1" stop-color="#2684FF"/>
</linearGradient>
<linearGradient id="paint3_linear" x1="36.4691" y1="478.666" x2="30.8615" y2="484.183" gradientUnits="userSpaceOnUse">
<stop offset="0.18" stop-color="#0052CC"/>
<stop offset="1" stop-color="#2684FF"/>
</linearGradient>
<clipPath id="clip0">
<rect width="41.6" height="41.6" fill="white" transform="translate(748.733 309.734)"/>
</clipPath>
<clipPath id="clip1">
<rect width="41.6" height="41.6" fill="white" transform="translate(199.733 336.734)"/>
</clipPath>
<clipPath id="clip2">
<rect width="41.6" height="41.6" fill="white" transform="translate(967.733 135.734)"/>
</clipPath>
<clipPath id="clip3">
<rect width="26.6667" height="26.6667" fill="white" transform="translate(472.335 441.332)"/>
</clipPath>
<clipPath id="clip4">
<rect width="34.2857" height="24" fill="white" transform="translate(181 153)"/>
</clipPath>
<clipPath id="clip5">
<rect width="26.6667" height="26.6667" fill="white" transform="translate(959.335 344)"/>
</clipPath>
<clipPath id="clip6">
<rect width="26.6667" height="26.6667" fill="white" transform="translate(22.5 464.332)"/>
</clipPath>
<clipPath id="clip7">
<rect width="26.6667" height="26.6667" fill="white" transform="translate(396.336 320.332)"/>
</clipPath>
</defs>
</svg>
