<svg width="1049" height="556" viewBox="0 0 1049 556" fill="none" xmlns="http://www.w3.org/2000/svg">
<path opacity="0.6" fill-rule="evenodd" clip-rule="evenodd" d="M171.328 249.936C251.985 127.674 390.571 47 548 47C797.042 47 998.93 248.888 998.93 497.93C998.93 516.835 997.767 535.469 995.508 553.762L997.492 554.008C999.762 535.633 1000.93 516.918 1000.93 497.93C1000.93 247.784 798.146 45 548 45C389.755 45 250.464 126.153 169.475 249.113C170.144 249.282 170.769 249.564 171.328 249.936ZM164.853 260.04C164.273 259.682 163.759 259.227 163.332 258.699C120.066 328.121 95.0703 410.106 95.0703 497.93C95.0703 516.918 96.2388 535.633 98.5078 554.008L100.493 553.762C98.2337 535.469 97.0703 516.835 97.0703 497.93C97.0703 410.614 121.888 329.094 164.853 260.04ZM548 155.07C358.644 155.07 205.141 308.574 205.141 497.93C205.141 517.491 206.779 536.669 209.925 555.334L207.953 555.666C204.788 536.892 203.141 517.603 203.141 497.93C203.141 307.469 357.54 153.07 548 153.07C683.118 153.07 800.087 230.777 856.655 343.94C855.947 343.98 855.272 344.143 854.651 344.407C798.332 232.132 682.165 155.07 548 155.07ZM859.838 355.217C860.449 354.889 860.996 354.458 861.457 353.947C881.617 397.765 892.86 446.535 892.86 497.93C892.86 517.603 891.213 536.892 888.048 555.666L886.076 555.334C889.222 536.669 890.86 517.491 890.86 497.93C890.86 447.003 879.756 398.669 859.838 355.217ZM497.832 268.512C513.996 264.994 530.782 263.14 548 263.14C677.671 263.14 782.79 368.259 782.79 497.93C782.79 516.814 780.561 535.175 776.352 552.767L778.297 553.232C782.542 535.49 784.79 516.972 784.79 497.93C784.79 367.155 678.776 261.14 548 261.14C530.498 261.14 513.44 263.039 497.02 266.642C497.39 267.206 497.668 267.837 497.832 268.512ZM486.173 271.366C486.06 270.906 486 270.425 486 269.93C486 269.728 486.01 269.529 486.029 269.332C385.311 296.57 311.211 388.597 311.211 497.93C311.211 516.972 313.459 535.49 317.704 553.232L319.649 552.767C315.44 535.175 313.211 516.814 313.211 497.93C313.211 389.658 386.499 298.503 486.173 271.366ZM421.281 497.93C421.281 427.945 478.015 371.211 548.001 371.211C617.986 371.211 674.72 427.945 674.72 497.93C674.72 517.693 670.196 536.396 662.13 553.064L663.93 553.935C672.125 537.002 676.72 518.001 676.72 497.93C676.72 426.84 619.09 369.211 548.001 369.211C476.911 369.211 419.281 426.84 419.281 497.93C419.281 518.001 423.876 537.002 432.071 553.935L433.872 553.064C425.805 536.396 421.281 517.693 421.281 497.93Z" fill="#D7E5FF"/>
<g filter="url(#filter0_d)">
<circle cx="857" cy="349.93" r="4" fill="#FFA600"/>
</g>
<g filter="url(#filter1_d)">
<circle cx="492" cy="269.93" r="4" fill="#FFA600"/>
</g>
<g filter="url(#filter2_d)">
<circle cx="168" cy="254.93" r="4" fill="#FFA600"/>
</g>
<g opacity="0.1" filter="url(#filter3_f)">
<rect x="614.93" y="250.863" width="97.0667" height="97.0667" rx="48.5333" fill="#343C7B"/>
</g>
<circle cx="656.533" cy="292.463" r="48.5333" fill="white"/>
<g clip-path="url(#clip0)">
<path d="M668.287 293.608C663.29 293.608 659.239 297.716 659.239 302.783C659.239 307.851 663.29 311.959 668.287 311.959C673.284 311.959 677.334 307.851 677.334 302.783C677.334 297.716 673.284 293.608 668.287 293.608V293.608ZM644.781 293.608C639.785 293.609 635.734 297.716 635.734 302.783C635.734 307.851 639.785 311.959 644.781 311.959C649.778 311.959 653.829 307.851 653.829 302.783C653.829 297.716 649.778 293.608 644.781 293.608H644.781V293.608ZM665.581 282.138C665.581 287.206 661.531 291.315 656.534 291.315C651.537 291.315 647.487 287.206 647.487 282.138C647.487 277.071 651.537 272.963 656.534 272.963C661.531 272.963 665.581 277.071 665.581 282.138H665.581Z" fill="url(#paint0_radial)"/>
</g>
<g opacity="0.1" filter="url(#filter4_f)">
<rect x="218.93" y="275.863" width="97.0667" height="97.0667" rx="48.5333" fill="#343C7B"/>
</g>
<circle cx="260.533" cy="317.463" r="48.5333" fill="white"/>
<g clip-path="url(#clip1)">
<path fill-rule="evenodd" clip-rule="evenodd" d="M254.99 296.662C252.691 296.664 250.83 298.526 250.831 300.821C250.83 303.116 252.692 304.979 254.992 304.98H259.153V300.823C259.154 298.528 257.292 296.666 254.99 296.662C254.992 296.662 254.992 296.662 254.99 296.662V296.662ZM254.99 307.755H243.898C241.599 307.757 239.736 309.62 239.738 311.915C239.734 314.21 241.597 316.072 243.897 316.075H254.99C257.29 316.074 259.153 314.211 259.151 311.916C259.153 309.62 257.29 307.757 254.99 307.755V307.755Z" fill="#36C5F0"/>
<path fill-rule="evenodd" clip-rule="evenodd" d="M281.339 311.915C281.34 309.62 279.478 307.757 277.178 307.755C274.879 307.757 273.016 309.62 273.017 311.915V316.075H277.178C279.478 316.074 281.34 314.211 281.339 311.915ZM270.245 311.915V300.821C270.247 298.528 268.386 296.666 266.086 296.662C263.787 296.664 261.924 298.526 261.926 300.821V311.915C261.922 314.21 263.785 316.072 266.085 316.075C268.384 316.074 270.247 314.211 270.245 311.915Z" fill="#2EB67D"/>
<path fill-rule="evenodd" clip-rule="evenodd" d="M266.086 338.263C268.386 338.261 270.249 336.399 270.247 334.104C270.249 331.809 268.386 329.946 266.086 329.944H261.926V334.104C261.924 336.397 263.787 338.259 266.086 338.263ZM266.086 327.168H277.18C279.479 327.166 281.342 325.303 281.341 323.009C281.344 320.714 279.481 318.851 277.182 318.848H266.088C263.789 318.849 261.926 320.712 261.927 323.007C261.926 325.303 263.787 327.166 266.086 327.168V327.168Z" fill="#ECB22E"/>
<path fill-rule="evenodd" clip-rule="evenodd" d="M239.738 323.009C239.736 325.304 241.599 327.166 243.898 327.168C246.198 327.166 248.061 325.304 248.059 323.009V318.85H243.898C241.599 318.851 239.736 320.714 239.738 323.009ZM250.831 323.009V334.102C250.828 336.397 252.691 338.26 254.99 338.263C257.29 338.261 259.153 336.399 259.151 334.104V323.012C259.154 320.717 257.292 318.855 254.992 318.851C252.691 318.851 250.83 320.714 250.831 323.009C250.831 323.01 250.831 323.009 250.831 323.009Z" fill="#E01E5A"/>
</g>
<g opacity="0.1" filter="url(#filter5_f)">
<rect x="877.93" y="205.863" width="97.0667" height="97.0667" rx="48.5333" fill="#343C7B"/>
</g>
<circle cx="919.533" cy="247.463" r="48.5333" fill="white"/>
<g clip-path="url(#clip2)">
<path d="M919.451 227.963C908.009 227.963 898.731 237.201 898.731 248.596C898.731 257.713 904.668 265.447 912.9 268.175C913.936 268.366 914.316 267.728 914.316 267.183C914.316 266.691 914.297 265.065 914.288 263.341C908.524 264.589 907.307 260.907 907.307 260.907C906.365 258.522 905.007 257.888 905.007 257.888C903.127 256.607 905.148 256.633 905.148 256.633C907.229 256.779 908.325 258.76 908.325 258.76C910.173 261.914 913.172 261.002 914.354 260.475C914.54 259.141 915.077 258.231 915.669 257.716C911.067 257.194 906.23 255.425 906.23 247.519C906.23 245.266 907.039 243.425 908.364 241.98C908.149 241.461 907.44 239.362 908.565 236.52C908.565 236.52 910.305 235.965 914.264 238.635C915.917 238.178 917.69 237.949 919.451 237.941C921.211 237.949 922.985 238.178 924.641 238.635C928.596 235.965 930.333 236.52 930.333 236.52C931.461 239.362 930.752 241.461 930.536 241.98C931.865 243.425 932.669 245.266 932.669 247.519C932.669 255.443 927.822 257.189 923.208 257.699C923.951 258.34 924.613 259.595 924.613 261.52C924.613 264.281 924.589 266.503 924.589 267.183C924.589 267.732 924.962 268.375 926.013 268.172C934.241 265.441 940.17 257.71 940.17 248.596C940.17 237.201 930.893 227.963 919.451 227.963Z" fill="black"/>
<path d="M906.49 257.356C906.445 257.458 906.282 257.489 906.135 257.419C905.985 257.351 905.9 257.212 905.949 257.109C905.994 257.003 906.156 256.974 906.306 257.045C906.456 257.112 906.542 257.253 906.49 257.356V257.356ZM907.509 258.261C907.41 258.353 907.217 258.31 907.086 258.166C906.951 258.022 906.925 257.83 907.025 257.737C907.127 257.646 907.315 257.689 907.451 257.833C907.586 257.978 907.612 258.169 907.509 258.261L907.509 258.261ZM908.208 259.42C908.081 259.508 907.874 259.425 907.745 259.242C907.619 259.059 907.619 258.839 907.748 258.75C907.877 258.662 908.081 258.741 908.211 258.923C908.338 259.11 908.338 259.33 908.208 259.42L908.208 259.42ZM909.391 260.762C909.277 260.887 909.035 260.853 908.858 260.683C908.677 260.517 908.627 260.281 908.741 260.156C908.856 260.031 909.099 260.066 909.277 260.235C909.457 260.401 909.512 260.639 909.391 260.762H909.391ZM910.919 261.215C910.869 261.377 910.636 261.45 910.401 261.381C910.167 261.311 910.014 261.121 910.061 260.958C910.11 260.795 910.344 260.719 910.58 260.792C910.814 260.863 910.968 261.051 910.919 261.215H910.919ZM912.658 261.407C912.664 261.577 912.465 261.718 912.219 261.722C911.971 261.727 911.771 261.589 911.768 261.422C911.768 261.25 911.963 261.11 912.21 261.106C912.457 261.101 912.658 261.238 912.658 261.407V261.407ZM914.367 261.342C914.396 261.508 914.225 261.679 913.981 261.724C913.74 261.768 913.517 261.665 913.487 261.501C913.457 261.33 913.631 261.16 913.871 261.116C914.116 261.073 914.336 261.173 914.367 261.342" fill="black"/>
</g>
<g opacity="0.1" filter="url(#filter6_f)">
<rect x="426.664" y="378.598" width="73.3333" height="73.3333" rx="36.6667" fill="#343C7B"/>
</g>
<circle cx="456.667" cy="408.596" r="36.6667" fill="white"/>
<g clip-path="url(#clip3)">
<path d="M467.399 395.262H445.941C444.502 395.262 443.336 396.428 443.336 397.866V419.324C443.336 420.762 444.502 421.928 445.941 421.928H467.399C468.837 421.928 470.003 420.762 470.003 419.324V397.866C470.003 396.428 468.837 395.262 467.399 395.262Z" fill="url(#paint1_linear)"/>
<path d="M465.282 398.729H459.648C458.958 398.729 458.398 399.288 458.398 399.979V409.145C458.398 409.836 458.958 410.395 459.648 410.395H465.282C465.972 410.395 466.532 409.836 466.532 409.145V399.979C466.532 399.288 465.972 398.729 465.282 398.729Z" fill="white"/>
<path d="M453.688 398.729H448.055C447.364 398.729 446.805 399.288 446.805 399.979V415.812C446.805 416.502 447.364 417.062 448.055 417.062H453.688C454.378 417.062 454.938 416.502 454.938 415.812V399.979C454.938 399.288 454.378 398.729 453.688 398.729Z" fill="white"/>
</g>
<g opacity="0.1" filter="url(#filter7_f)">
<rect x="268.664" y="90.5957" width="73.3333" height="73.3333" rx="36.6667" fill="#343C7B"/>
</g>
<circle cx="298.667" cy="120.596" r="36.6667" fill="white"/>
<g clip-path="url(#clip4)">
<path d="M293.583 133.184L294.06 130.248L292.997 130.225H287.922L291.449 108.563C291.459 108.497 291.494 108.436 291.547 108.393C291.599 108.35 291.666 108.326 291.735 108.326H300.293C303.134 108.326 305.094 108.899 306.118 110.029C306.598 110.559 306.903 111.113 307.051 111.723C307.206 112.363 307.209 113.127 307.057 114.059L307.047 114.128V114.725L307.526 114.988C307.893 115.168 308.222 115.411 308.498 115.706C308.909 116.159 309.174 116.735 309.286 117.418C309.402 118.121 309.364 118.957 309.174 119.903C308.955 120.992 308.601 121.94 308.123 122.716C307.701 123.411 307.134 124.013 306.458 124.483C305.823 124.92 305.069 125.251 304.216 125.463C303.389 125.672 302.447 125.777 301.413 125.777H300.747C300.271 125.777 299.808 125.943 299.445 126.241C299.083 126.542 298.842 126.958 298.766 127.414L298.716 127.679L297.873 132.853L297.835 133.043C297.825 133.103 297.808 133.133 297.782 133.153C297.757 133.173 297.726 133.184 297.694 133.184H293.583Z" fill="#253B80"/>
<path d="M307.979 114.197C307.954 114.355 307.925 114.517 307.892 114.683C306.763 120.296 302.902 122.234 297.971 122.234H295.461C294.858 122.234 294.349 122.658 294.255 123.235L292.97 131.131L292.606 133.369C292.592 133.458 292.597 133.549 292.622 133.636C292.647 133.722 292.692 133.802 292.752 133.871C292.812 133.939 292.887 133.994 292.971 134.032C293.056 134.069 293.147 134.089 293.24 134.089H297.693C298.22 134.089 298.668 133.718 298.751 133.214L298.795 132.995L299.634 127.841L299.687 127.558C299.769 127.053 300.218 126.682 300.746 126.682H301.412C305.726 126.682 309.103 124.985 310.09 120.075C310.503 118.024 310.289 116.312 309.198 115.107C308.852 114.735 308.439 114.426 307.979 114.197V114.197Z" fill="#179BD7"/>
<path d="M306.798 113.74C306.437 113.639 306.071 113.561 305.7 113.504C304.968 113.395 304.228 113.343 303.487 113.348H296.78C296.524 113.348 296.277 113.436 296.084 113.597C295.89 113.758 295.761 113.98 295.722 114.225L294.295 122.978L294.254 123.234C294.299 122.955 294.445 122.701 294.666 122.517C294.887 122.334 295.168 122.233 295.46 122.233H297.97C302.901 122.233 306.762 120.294 307.891 114.682C307.924 114.516 307.953 114.354 307.978 114.196C307.68 114.045 307.37 113.918 307.05 113.817C306.967 113.79 306.882 113.765 306.798 113.74V113.74Z" fill="#222D65"/>
<path d="M295.724 114.225C295.763 113.981 295.891 113.758 296.085 113.597C296.279 113.437 296.526 113.349 296.781 113.35H303.489C304.283 113.35 305.025 113.4 305.702 113.506C306.16 113.576 306.612 113.68 307.053 113.818C307.386 113.925 307.695 114.051 307.981 114.197C308.316 112.123 307.978 110.711 306.82 109.432C305.544 108.025 303.24 107.422 300.293 107.422H291.735C291.133 107.422 290.62 107.846 290.527 108.423L286.962 130.307C286.946 130.409 286.952 130.513 286.981 130.612C287.009 130.711 287.06 130.803 287.129 130.881C287.198 130.959 287.284 131.022 287.38 131.065C287.476 131.108 287.581 131.131 287.687 131.131H292.971L294.297 122.979L295.724 114.225Z" fill="#253B80"/>
</g>
<g opacity="0.1" filter="url(#filter8_f)">
<rect x="413.664" y="138.596" width="73.3333" height="73.3333" rx="36.6667" fill="#343C7B"/>
</g>
<circle cx="443.667" cy="168.596" r="36.6667" fill="white"/>
<g clip-path="url(#clip5)">
<path d="M453.743 158.121H442.277C442.277 159.494 442.822 160.81 443.793 161.781C444.763 162.752 446.08 163.297 447.453 163.297H449.565V165.336C449.567 168.192 451.881 170.507 454.737 170.509V159.116C454.737 158.567 454.292 158.121 453.743 158.121Z" fill="#2684FF"/>
<path d="M448.067 163.834H436.602C436.603 166.69 438.918 169.005 441.774 169.007H443.886V171.052C443.89 173.908 446.206 176.221 449.062 176.221V164.829C449.062 164.279 448.617 163.834 448.067 163.834V163.834Z" fill="url(#paint2_linear)"/>
<path d="M442.391 169.543H430.926C430.926 172.401 433.243 174.719 436.102 174.719H438.22V176.758C438.222 179.611 440.533 181.925 443.386 181.93V170.538C443.386 169.988 442.941 169.543 442.391 169.543Z" fill="url(#paint3_linear)"/>
</g>
<g opacity="0.1" filter="url(#filter9_f)">
<rect x="746.664" y="74.5957" width="73.3333" height="73.3333" rx="36.6667" fill="#343C7B"/>
</g>
<circle cx="776.667" cy="104.596" r="36.6667" fill="white"/>
<g clip-path="url(#clip6)">
<path d="M786.879 92.9316H766.46C764.738 92.9316 763.336 94.1563 763.336 95.6739V113.672C763.336 115.189 764.738 116.414 766.46 116.414H783.74L782.932 113.951L784.883 115.535L786.726 117.026L790.003 119.556V95.6739C790.003 94.1563 788.601 92.9316 786.879 92.9316ZM780.997 110.317C780.997 110.317 780.448 109.745 779.991 109.239C781.987 108.746 782.749 107.655 782.749 107.655C782.124 108.014 781.53 108.267 780.997 108.44C780.235 108.72 779.504 108.906 778.787 109.013C777.324 109.252 775.984 109.186 774.841 108.999C773.972 108.853 773.225 108.64 772.601 108.427C772.25 108.307 771.869 108.161 771.488 107.974C771.443 107.948 771.397 107.934 771.351 107.908C771.321 107.894 771.305 107.881 771.29 107.868C771.016 107.735 770.864 107.641 770.864 107.641C770.864 107.641 771.595 108.706 773.53 109.212C773.073 109.718 772.509 110.317 772.509 110.317C769.142 110.224 767.862 108.294 767.862 108.294C767.862 104.007 770.056 100.533 770.056 100.533C772.25 99.0951 774.338 99.135 774.338 99.135L774.49 99.2948C771.747 99.9869 770.483 101.039 770.483 101.039C770.483 101.039 770.818 100.879 771.382 100.653C773.012 100.027 774.307 99.8539 774.841 99.814C774.932 99.8006 775.008 99.7873 775.1 99.7873C776.121 99.6711 777.154 99.6622 778.178 99.7607C779.625 99.9072 781.18 100.28 782.764 101.039C782.764 101.039 781.561 100.04 778.97 99.3481L779.184 99.1351C779.184 99.1351 781.271 99.0951 783.465 100.533C783.465 100.533 785.66 104.007 785.66 108.294C785.66 108.294 784.364 110.224 780.997 110.317V110.317ZM773.911 104.1C773.043 104.1 772.357 104.766 772.357 105.578C772.357 106.39 773.058 107.056 773.911 107.056C774.78 107.056 775.465 106.39 775.465 105.578C775.481 104.766 774.78 104.1 773.911 104.1H773.911ZM779.473 104.1C778.604 104.1 777.919 104.766 777.919 105.578C777.919 106.39 778.62 107.056 779.473 107.056C780.342 107.056 781.027 106.39 781.027 105.578C781.027 104.766 780.342 104.1 779.473 104.1Z" fill="#7289DA"/>
</g>
<g opacity="0.1" filter="url(#filter10_f)">
<rect x="74.6641" y="385.598" width="73.3333" height="73.3333" rx="36.6667" fill="#343C7B"/>
</g>
<circle cx="104.667" cy="415.596" r="36.6667" fill="white"/>
<g clip-path="url(#clip7)">
<path d="M111.358 411.288V408.156C111.772 407.963 112.122 407.656 112.368 407.271C112.614 406.886 112.746 406.44 112.748 405.983V405.911C112.748 404.579 111.669 403.499 110.337 403.499H110.265C108.933 403.499 107.853 404.579 107.853 405.911V405.983C107.855 406.44 107.987 406.886 108.233 407.271C108.479 407.656 108.83 407.963 109.244 408.156V411.288C108.054 411.47 106.934 411.963 105.997 412.718L97.4077 406.028C97.469 405.807 97.5009 405.58 97.5045 405.351C97.5056 404.814 97.3472 404.288 97.0494 403.841C96.7517 403.393 96.3279 403.044 95.8317 402.838C95.3355 402.631 94.7892 402.576 94.2619 402.68C93.7346 402.784 93.2499 403.042 92.8693 403.422C92.4886 403.801 92.229 404.285 92.1233 404.812C92.0177 405.339 92.0707 405.885 92.2756 406.382C92.4806 406.879 92.8283 407.304 93.2748 407.603C93.7213 407.902 94.2464 408.062 94.7839 408.063C95.2541 408.061 95.7155 407.935 96.122 407.699L104.58 414.28C103.025 416.629 103.066 419.691 104.684 421.997L102.112 424.57C101.904 424.503 101.687 424.468 101.469 424.465C100.237 424.466 99.2391 425.465 99.2395 426.697C99.2398 427.929 100.238 428.927 101.47 428.928C102.702 428.928 103.701 427.93 103.702 426.698C103.699 426.48 103.664 426.263 103.597 426.055L106.142 423.51C108.416 425.26 111.539 425.411 113.971 423.888C116.403 422.364 117.63 419.489 117.047 416.679C116.464 413.869 114.195 411.719 111.358 411.288V411.288ZM110.303 421.588C109.833 421.601 109.365 421.519 108.927 421.348C108.489 421.177 108.09 420.919 107.753 420.591C107.416 420.263 107.148 419.871 106.965 419.438C106.782 419.005 106.688 418.539 106.688 418.069C106.688 417.598 106.782 417.133 106.965 416.7C107.148 416.266 107.416 415.874 107.753 415.546C108.09 415.218 108.489 414.961 108.927 414.79C109.365 414.618 109.833 414.537 110.303 414.549C112.198 414.616 113.699 416.17 113.701 418.066C113.701 419.962 112.201 421.518 110.307 421.586" fill="#FF7A59"/>
</g>
<defs>
<filter id="filter0_d" x="848" y="340.93" width="18" height="18" filterUnits="userSpaceOnUse" color-interpolation-filters="sRGB">
<feFlood flood-opacity="0" result="BackgroundImageFix"/>
<feColorMatrix in="SourceAlpha" type="matrix" values="0 0 0 0 0 0 0 0 0 0 0 0 0 0 0 0 0 0 127 0"/>
<feOffset/>
<feGaussianBlur stdDeviation="2.5"/>
<feColorMatrix type="matrix" values="0 0 0 0 1 0 0 0 0 0.65098 0 0 0 0 0 0 0 0 0.8 0"/>
<feBlend mode="normal" in2="BackgroundImageFix" result="effect1_dropShadow"/>
<feBlend mode="normal" in="SourceGraphic" in2="effect1_dropShadow" result="shape"/>
</filter>
<filter id="filter1_d" x="483" y="260.93" width="18" height="18" filterUnits="userSpaceOnUse" color-interpolation-filters="sRGB">
<feFlood flood-opacity="0" result="BackgroundImageFix"/>
<feColorMatrix in="SourceAlpha" type="matrix" values="0 0 0 0 0 0 0 0 0 0 0 0 0 0 0 0 0 0 127 0"/>
<feOffset/>
<feGaussianBlur stdDeviation="2.5"/>
<feColorMatrix type="matrix" values="0 0 0 0 1 0 0 0 0 0.65098 0 0 0 0 0 0 0 0 0.8 0"/>
<feBlend mode="normal" in2="BackgroundImageFix" result="effect1_dropShadow"/>
<feBlend mode="normal" in="SourceGraphic" in2="effect1_dropShadow" result="shape"/>
</filter>
<filter id="filter2_d" x="159" y="245.93" width="18" height="18" filterUnits="userSpaceOnUse" color-interpolation-filters="sRGB">
<feFlood flood-opacity="0" result="BackgroundImageFix"/>
<feColorMatrix in="SourceAlpha" type="matrix" values="0 0 0 0 0 0 0 0 0 0 0 0 0 0 0 0 0 0 127 0"/>
<feOffset/>
<feGaussianBlur stdDeviation="2.5"/>
<feColorMatrix type="matrix" values="0 0 0 0 1 0 0 0 0 0.65098 0 0 0 0 0 0 0 0 0.8 0"/>
<feBlend mode="normal" in2="BackgroundImageFix" result="effect1_dropShadow"/>
<feBlend mode="normal" in="SourceGraphic" in2="effect1_dropShadow" result="shape"/>
</filter>
<filter id="filter3_f" x="540.93" y="176.863" width="245.067" height="245.067" filterUnits="userSpaceOnUse" color-interpolation-filters="sRGB">
<feFlood flood-opacity="0" result="BackgroundImageFix"/>
<feBlend mode="normal" in="SourceGraphic" in2="BackgroundImageFix" result="shape"/>
<feGaussianBlur stdDeviation="37" result="effect1_foregroundBlur"/>
</filter>
<filter id="filter4_f" x="144.93" y="201.863" width="245.067" height="245.067" filterUnits="userSpaceOnUse" color-interpolation-filters="sRGB">
<feFlood flood-opacity="0" result="BackgroundImageFix"/>
<feBlend mode="normal" in="SourceGraphic" in2="BackgroundImageFix" result="shape"/>
<feGaussianBlur stdDeviation="37" result="effect1_foregroundBlur"/>
</filter>
<filter id="filter5_f" x="803.93" y="131.863" width="245.067" height="245.067" filterUnits="userSpaceOnUse" color-interpolation-filters="sRGB">
<feFlood flood-opacity="0" result="BackgroundImageFix"/>
<feBlend mode="normal" in="SourceGraphic" in2="BackgroundImageFix" result="shape"/>
<feGaussianBlur stdDeviation="37" result="effect1_foregroundBlur"/>
</filter>
<filter id="filter6_f" x="352.664" y="304.598" width="221.333" height="221.333" filterUnits="userSpaceOnUse" color-interpolation-filters="sRGB">
<feFlood flood-opacity="0" result="BackgroundImageFix"/>
<feBlend mode="normal" in="SourceGraphic" in2="BackgroundImageFix" result="shape"/>
<feGaussianBlur stdDeviation="37" result="effect1_foregroundBlur"/>
</filter>
<filter id="filter7_f" x="194.664" y="16.5957" width="221.333" height="221.333" filterUnits="userSpaceOnUse" color-interpolation-filters="sRGB">
<feFlood flood-opacity="0" result="BackgroundImageFix"/>
<feBlend mode="normal" in="SourceGraphic" in2="BackgroundImageFix" result="shape"/>
<feGaussianBlur stdDeviation="37" result="effect1_foregroundBlur"/>
</filter>
<filter id="filter8_f" x="339.664" y="64.5957" width="221.333" height="221.333" filterUnits="userSpaceOnUse" color-interpolation-filters="sRGB">
<feFlood flood-opacity="0" result="BackgroundImageFix"/>
<feBlend mode="normal" in="SourceGraphic" in2="BackgroundImageFix" result="shape"/>
<feGaussianBlur stdDeviation="37" result="effect1_foregroundBlur"/>
</filter>
<filter id="filter9_f" x="672.664" y="0.595703" width="221.333" height="221.333" filterUnits="userSpaceOnUse" color-interpolation-filters="sRGB">
<feFlood flood-opacity="0" result="BackgroundImageFix"/>
<feBlend mode="normal" in="SourceGraphic" in2="BackgroundImageFix" result="shape"/>
<feGaussianBlur stdDeviation="37" result="effect1_foregroundBlur"/>
</filter>
<filter id="filter10_f" x="0.664062" y="311.598" width="221.333" height="221.333" filterUnits="userSpaceOnUse" color-interpolation-filters="sRGB">
<feFlood flood-opacity="0" result="BackgroundImageFix"/>
<feBlend mode="normal" in="SourceGraphic" in2="BackgroundImageFix" result="shape"/>
<feGaussianBlur stdDeviation="37" result="effect1_foregroundBlur"/>
</filter>
<radialGradient id="paint0_radial" cx="0" cy="0" r="1" gradientUnits="userSpaceOnUse" gradientTransform="translate(656.54 294.3) rotate(39.3263) scale(22.4003 20.9982)">
<stop offset="0.119792" stop-color="#FFB900"/>
<stop offset="0.6" stop-color="#FF5189"/>
<stop offset="0.999" stop-color="#FF4747"/>
</radialGradient>
<linearGradient id="paint1_linear" x1="456.67" y1="395.262" x2="456.67" y2="421.928" gradientUnits="userSpaceOnUse">
<stop stop-color="#0091E6"/>
<stop offset="1" stop-color="#0079BF"/>
</linearGradient>
<linearGradient id="paint2_linear" x1="448.817" y1="163.854" x2="443.969" y2="168.912" gradientUnits="userSpaceOnUse">
<stop offset="0.18" stop-color="#0052CC"/>
<stop offset="1" stop-color="#2684FF"/>
</linearGradient>
<linearGradient id="paint3_linear" x1="443.469" y1="169.599" x2="437.862" y2="175.116" gradientUnits="userSpaceOnUse">
<stop offset="0.18" stop-color="#0052CC"/>
<stop offset="1" stop-color="#2684FF"/>
</linearGradient>
<clipPath id="clip0">
<rect width="41.6" height="41.6" fill="white" transform="translate(635.734 271.662)"/>
</clipPath>
<clipPath id="clip1">
<rect width="41.6" height="41.6" fill="white" transform="translate(239.734 296.662)"/>
</clipPath>
<clipPath id="clip2">
<rect width="41.6" height="41.6" fill="white" transform="translate(898.734 226.662)"/>
</clipPath>
<clipPath id="clip3">
<rect width="26.6667" height="26.6667" fill="white" transform="translate(443.336 395.262)"/>
</clipPath>
<clipPath id="clip4">
<rect width="26.6667" height="26.6667" fill="white" transform="translate(285.336 107.264)"/>
</clipPath>
<clipPath id="clip5">
<rect width="26.6667" height="26.6667" fill="white" transform="translate(429.5 155.264)"/>
</clipPath>
<clipPath id="clip6">
<rect width="26.6667" height="26.6667" fill="white" transform="translate(763.336 92.9297)"/>
</clipPath>
<clipPath id="clip7">
<rect width="26.6667" height="26.6667" fill="white" transform="translate(91.3359 402.262)"/>
</clipPath>
</defs>
</svg>
