<svg width="98" height="20" viewBox="0 0 98 20" fill="none" xmlns="http://www.w3.org/2000/svg">
<g clip-path="url(#clip0_6125_15991)">
<path d="M95.5492 4.18969L93.3492 10.4297C92.9492 11.5497 92.7492 12.1897 92.3792 13.2697H92.3392C92.0492 12.3397 91.7892 11.5897 91.4092 10.4897L89.2692 4.17969H86.7092L91.1392 15.7597C91.0392 16.0097 90.9392 16.2697 90.8292 16.5397C90.4592 17.4397 89.5792 18.0297 88.6092 18.0297H87.5092V19.9997H88.6392C90.4692 19.9997 92.1192 18.8897 92.7992 17.1797C94.2092 13.6497 96.6092 7.63969 97.9792 4.18969H95.5492Z" fill="white"/>
<path d="M34.1192 13.5381C34.1192 17.7281 32.1992 19.9981 28.3192 19.9981C25.4292 19.9981 23.6892 18.4781 23.0692 16.1881H25.4092C25.8092 17.2481 26.6392 18.1981 28.3592 18.1981C31.0092 18.1981 31.9492 16.5481 31.9492 13.4081C31.9292 13.4081 31.9292 13.3881 31.9092 13.3881C31.3392 14.3781 30.0592 15.2581 28.0292 15.2581C24.7692 15.2581 22.6892 12.8981 22.6892 9.58813C22.6892 6.14813 24.9392 3.82812 28.0492 3.82812C30.0592 3.82812 31.2692 4.68813 31.9292 5.63813C31.9092 5.39813 31.9092 5.14812 31.9092 4.90812V4.17812H34.1192V13.5381ZM25.1192 9.56812C25.1192 11.8181 26.3792 13.4281 28.5392 13.4281C30.4792 13.4281 31.9792 12.0581 31.9792 9.49813C31.9792 7.22813 30.6592 5.70812 28.5392 5.70812C26.4192 5.70812 25.1192 7.22812 25.1192 9.56812Z" fill="white"/>
<path d="M37.7693 10.5594C37.8593 12.5894 39.1593 14.1994 41.4093 14.1994C42.9993 14.1994 43.7693 13.4494 44.3593 12.4594H46.5893C45.9293 14.5494 44.0993 16.0494 41.3193 16.0494C37.7493 16.0494 35.5193 13.6494 35.5193 10.0294C35.5193 6.40938 37.8393 3.85938 41.3193 3.85938C45.0893 3.85938 46.8293 6.72938 46.8293 9.83938V10.5694H37.7693V10.5594ZM44.5093 8.79938C44.3093 6.96938 43.1593 5.66938 41.2693 5.66938C39.4593 5.66938 38.0693 6.85938 37.8493 8.79938H44.5093Z" fill="white"/>
<path d="M50.3993 4.18625V5.66625C50.7693 4.58625 51.8993 3.90625 53.1993 3.90625C53.4893 3.90625 53.6193 3.92625 53.7693 3.94625V5.97625C53.5693 5.93625 53.2393 5.90625 52.9993 5.90625C50.9093 5.90625 50.5093 7.44625 50.5093 9.76625V15.7662H48.2793V6.26625C48.2793 5.53625 48.2793 4.89625 48.2593 4.19625H50.3993V4.18625Z" fill="white"/>
<path d="M76.6693 14.1075C76.0693 15.0975 74.9493 16.0475 72.9893 16.0475C70.2993 16.0475 68.9792 14.3975 68.9792 11.3975V4.1875H71.1992V10.5575C71.1992 12.8275 71.9492 14.1975 73.7592 14.1975C76.1392 14.1975 76.5592 12.0375 76.5592 9.4975V4.1875H78.7893V14.0175C78.7893 14.6175 78.7892 15.1875 78.8092 15.7575H76.6693V14.1075Z" fill="white"/>
<path d="M83.7993 4.1925H85.9593V5.9125H83.7993V12.8625C83.7993 13.9625 84.3493 14.2925 85.2093 14.2925C85.3593 14.2925 85.6293 14.2725 85.7593 14.2525V15.9025C85.4293 15.9425 85.1893 15.9925 84.8993 15.9925C82.8493 15.9925 81.5493 15.3125 81.5493 12.9925V5.9125H79.8093V4.1925H81.5493V1.0625H83.7993V4.1925Z" fill="white"/>
<path d="M2.80927 11.5625H0.499268V15.7625H2.80927V11.5625Z" fill="white"/>
<path d="M9.19927 0.77C7.95927 0.11 7.09927 0 5.06927 0H0.499268V9.56H2.80927H3.10927H5.04927C6.85927 9.56 8.20927 9.45 9.39927 8.66C10.6993 7.8 11.3693 6.37 11.3693 4.72C11.3693 2.93 10.5393 1.5 9.19927 0.77ZM5.57927 7.56H2.80927V2.05L5.41927 2.03C7.79927 2 8.98927 2.84 8.98927 4.74C8.98927 6.78 7.51927 7.56 5.57927 7.56Z" fill="white"/>
<path d="M55.1292 0H58.9892C64.7692 0.04 67.5492 2.86 67.5692 7.92C67.5892 12.23 65.3592 15.71 59.3692 15.77H55.1392V0H55.1292ZM57.4692 13.8H58.8192C63.0092 13.8 65.1992 12.2 65.1992 7.91C65.1892 4.14 63.0192 1.98 59.0392 1.98C58.2692 1.98 57.4692 2 57.4692 2V13.8Z" fill="white"/>
<path d="M19.4693 15.7706C19.3993 15.3106 19.3993 15.0206 19.3593 14.1806C18.4793 15.4406 17.3093 15.9906 15.4593 15.9906C13.0293 15.9906 11.2693 14.8006 11.2693 12.6406C11.2693 10.1506 13.6493 9.33062 16.7393 8.91062C17.5093 8.80062 18.3693 8.71062 19.1193 8.65062C19.1193 6.36063 17.8493 5.67062 16.5193 5.67062C15.1893 5.67062 14.2193 6.60062 14.2193 7.82062H12.0593C12.0593 5.47062 13.9093 3.89062 16.5693 3.89062C19.2293 3.89062 21.2793 4.99063 21.2793 9.23063V11.4806C21.2793 13.3506 21.3693 14.7206 21.5693 15.7806H19.4693V15.7706ZM13.6693 12.6106C13.6693 13.6906 14.5493 14.3706 15.9593 14.3706C18.0293 14.3706 19.1393 13.1106 19.1393 10.8606C19.1393 10.5706 19.1393 10.3706 19.1593 10.2406C15.3893 10.6306 13.6693 11.0006 13.6693 12.6106Z" fill="white"/>
</g>
<defs>
<clipPath id="clip0_6125_15991">
<rect width="97.48" height="20" fill="white" transform="translate(0.499268)"/>
</clipPath>
</defs>
</svg>
