<svg width="1360" height="260" viewBox="0 0 1360 260" fill="none" xmlns="http://www.w3.org/2000/svg">
<mask id="mask0" mask-type="alpha" maskUnits="userSpaceOnUse" x="0" y="0" width="1360" height="260">
<rect width="1360" height="260" fill="#C4C4C4"/>
</mask>
<g mask="url(#mask0)">
<path d="M957.784 101.169C955.94 88.0429 965.085 75.9069 978.211 74.0622L1460.09 6.33872C1473.21 4.494 1485.35 13.6392 1487.19 26.765V26.765C1489.04 39.8908 1479.89 52.0269 1466.77 53.8716L984.891 121.595C971.765 123.44 959.629 114.295 957.784 101.169V101.169Z" fill="url(#paint0_linear)"/>
<path d="M1359.5 67.5L0 259.5H1359.5V67.5Z" fill="white"/>
<path opacity="0.6" d="M1153.56 108.68C1152.63 102.117 1157.21 96.0492 1163.77 95.1268L1465.85 52.6717C1472.42 51.7494 1478.48 56.3219 1479.41 62.8849V62.8849C1480.33 69.4478 1475.76 75.5158 1469.19 76.4382L1167.11 118.893C1160.55 119.816 1154.48 115.243 1153.56 108.68V108.68Z" fill="url(#paint1_linear)"/>
</g>
<defs>
<linearGradient id="paint0_linear" x1="983.271" y1="119.64" x2="1136.05" y2="-41.8172" gradientUnits="userSpaceOnUse">
<stop stop-color="#D7E5FF"/>
<stop offset="1" stop-color="#D7E5FF" stop-opacity="0.33"/>
</linearGradient>
<linearGradient id="paint1_linear" x1="1168.89" y1="117.551" x2="1296.81" y2="-46.9978" gradientUnits="userSpaceOnUse">
<stop stop-color="#020084"/>
<stop offset="1" stop-color="#D2E4FF"/>
</linearGradient>
</defs>
</svg>
