<svg width="1360" height="1032" viewBox="0 0 1360 1032" fill="none" xmlns="http://www.w3.org/2000/svg">
<g clip-path="url(#clip0_5113_20445)">
<path d="M-239.809 113C-239.809 46.7258 -186.083 -7 -119.809 -7H1479.19C1545.47 -7 1599.19 46.7258 1599.19 113V956C1599.19 1022.27 1545.47 1076 1479.19 1076H-119.809C-186.083 1076 -239.809 1022.27 -239.809 956V113Z" fill="url(#paint0_linear_5113_20445)"/>
<mask id="mask0_5113_20445" style="mask-type:alpha" maskUnits="userSpaceOnUse" x="-240" y="1" width="1840" height="1254">
<path d="M-239.812 121C-239.812 54.7258 -186.087 1 -119.812 1H1479.19C1545.46 1 1599.19 54.7258 1599.19 121V1052.98C1599.19 1116.87 1549.12 1169.56 1485.31 1172.82L-113.687 1254.55C-182.278 1258.06 -239.812 1203.39 -239.812 1134.71V121Z" fill="url(#paint1_linear_5113_20445)"/>
</mask>
<g mask="url(#mask0_5113_20445)">
<g style="mix-blend-mode:lighten" opacity="0.52" filter="url(#filter0_f_5113_20445)">
<ellipse cx="985.585" cy="944.228" rx="266.586" ry="216.328" fill="#0602E1"/>
</g>
<g style="mix-blend-mode:lighten" opacity="0.3" filter="url(#filter1_f_5113_20445)">
<ellipse cx="358" cy="766.5" rx="238" ry="162.5" fill="#582FFE"/>
</g>
<g style="mix-blend-mode:lighten" opacity="0.3" filter="url(#filter2_f_5113_20445)">
<ellipse cx="536.172" cy="863.737" rx="141.045" ry="114.455" transform="rotate(120.474 536.172 863.737)" fill="#F820A2"/>
</g>
<g style="mix-blend-mode:lighten" opacity="0.18" filter="url(#filter3_f_5113_20445)">
<ellipse cx="966.075" cy="620.527" rx="191.561" ry="113.237" transform="rotate(120.474 966.075 620.527)" fill="#1A68FF"/>
</g>
<g style="mix-blend-mode:lighten" opacity="0.2" filter="url(#filter4_f_5113_20445)">
<ellipse rx="207.567" ry="168.435" transform="matrix(0.507146 -0.86186 -0.86186 -0.507146 929.606 749.678)" fill="#582FFE"/>
</g>
<g style="mix-blend-mode:lighten" opacity="0.21" filter="url(#filter5_f_5113_20445)">
<ellipse rx="191.691" ry="179.113" transform="matrix(0.329844 -0.944036 -0.971479 -0.237126 786.293 893.996)" fill="#FFA600"/>
</g>
<g style="mix-blend-mode:lighten" opacity="0.42" filter="url(#filter6_f_5113_20445)">
<ellipse rx="165.428" ry="154.573" transform="matrix(0.329844 -0.944036 -0.971479 -0.237126 303.731 758.823)" fill="#FFA600"/>
</g>
<g style="mix-blend-mode:lighten" opacity="0.2" filter="url(#filter7_f_5113_20445)">
<ellipse rx="165.428" ry="154.573" transform="matrix(0.329844 -0.944036 -0.971479 -0.237126 270.731 731.823)" fill="#FFA600"/>
</g>
<g style="mix-blend-mode:lighten" opacity="0.52" filter="url(#filter8_f_5113_20445)">
<ellipse cx="496.572" cy="-21.1391" rx="118.815" ry="293.466" transform="rotate(68.8093 496.572 -21.1391)" fill="#0038FF"/>
</g>
<g style="mix-blend-mode:lighten" opacity="0.2" filter="url(#filter9_f_5113_20445)">
<ellipse rx="243.5" ry="243" transform="matrix(-1 0 0 1 288.5 164)" fill="#0602E1"/>
</g>
<g style="mix-blend-mode:lighten" opacity="0.2" filter="url(#filter10_f_5113_20445)">
<ellipse rx="243.5" ry="243" transform="matrix(-1 0 0 1 68.5 232)" fill="#0602E1"/>
</g>
<g style="mix-blend-mode:lighten" opacity="0.3" filter="url(#filter11_f_5113_20445)">
<ellipse cx="397.267" cy="689.123" rx="180.904" ry="110.834" transform="rotate(120.474 397.267 689.123)" fill="#F820A2"/>
</g>
<mask id="mask1_5113_20445" style="mask-type:alpha" maskUnits="userSpaceOnUse" x="-183" y="-129" width="1840" height="1357">
<path d="M-182.809 273.706C-182.809 215.465 -140.988 165.632 -83.6298 155.526L1515.37 -126.19C1588.84 -139.134 1656.19 -82.6123 1656.19 -8.00989V888.322C1656.19 948.301 1611.91 999.068 1552.48 1007.21L-46.5172 1226.32C-118.594 1236.2 -182.809 1180.18 -182.809 1107.43L-182.809 273.706Z" fill="url(#paint2_linear_5113_20445)"/>
</mask>
<g mask="url(#mask1_5113_20445)">
<g style="mix-blend-mode:lighten" opacity="0.18" filter="url(#filter12_f_5113_20445)">
<ellipse cx="871.749" cy="249.672" rx="191.561" ry="182.111" fill="#1A68FF"/>
</g>
</g>
</g>
</g>
<defs>
<filter id="filter0_f_5113_20445" x="534.999" y="543.9" width="901.171" height="800.654" filterUnits="userSpaceOnUse" color-interpolation-filters="sRGB">
<feFlood flood-opacity="0" result="BackgroundImageFix"/>
<feBlend mode="normal" in="SourceGraphic" in2="BackgroundImageFix" result="shape"/>
<feGaussianBlur stdDeviation="92" result="effect1_foregroundBlur_5113_20445"/>
</filter>
<filter id="filter1_f_5113_20445" x="-144" y="340" width="1004" height="853" filterUnits="userSpaceOnUse" color-interpolation-filters="sRGB">
<feFlood flood-opacity="0" result="BackgroundImageFix"/>
<feBlend mode="normal" in="SourceGraphic" in2="BackgroundImageFix" result="shape"/>
<feGaussianBlur stdDeviation="132" result="effect1_foregroundBlur_5113_20445"/>
</filter>
<filter id="filter2_f_5113_20445" x="270.314" y="584.996" width="531.716" height="557.48" filterUnits="userSpaceOnUse" color-interpolation-filters="sRGB">
<feFlood flood-opacity="0" result="BackgroundImageFix"/>
<feBlend mode="normal" in="SourceGraphic" in2="BackgroundImageFix" result="shape"/>
<feGaussianBlur stdDeviation="72" result="effect1_foregroundBlur_5113_20445"/>
</filter>
<filter id="filter3_f_5113_20445" x="594.37" y="211.678" width="743.41" height="817.699" filterUnits="userSpaceOnUse" color-interpolation-filters="sRGB">
<feFlood flood-opacity="0" result="BackgroundImageFix"/>
<feBlend mode="normal" in="SourceGraphic" in2="BackgroundImageFix" result="shape"/>
<feGaussianBlur stdDeviation="117" result="effect1_foregroundBlur_5113_20445"/>
</filter>
<filter id="filter4_f_5113_20445" x="486.275" y="287.391" width="886.661" height="924.574" filterUnits="userSpaceOnUse" color-interpolation-filters="sRGB">
<feFlood flood-opacity="0" result="BackgroundImageFix"/>
<feBlend mode="normal" in="SourceGraphic" in2="BackgroundImageFix" result="shape"/>
<feGaussianBlur stdDeviation="132" result="effect1_foregroundBlur_5113_20445"/>
</filter>
<filter id="filter5_f_5113_20445" x="457.106" y="564.074" width="658.373" height="659.844" filterUnits="userSpaceOnUse" color-interpolation-filters="sRGB">
<feFlood flood-opacity="0" result="BackgroundImageFix"/>
<feBlend mode="normal" in="SourceGraphic" in2="BackgroundImageFix" result="shape"/>
<feGaussianBlur stdDeviation="72" result="effect1_foregroundBlur_5113_20445"/>
</filter>
<filter id="filter6_f_5113_20445" x="-0.0839844" y="454.373" width="607.629" height="608.9" filterUnits="userSpaceOnUse" color-interpolation-filters="sRGB">
<feFlood flood-opacity="0" result="BackgroundImageFix"/>
<feBlend mode="normal" in="SourceGraphic" in2="BackgroundImageFix" result="shape"/>
<feGaussianBlur stdDeviation="72" result="effect1_foregroundBlur_5113_20445"/>
</filter>
<filter id="filter7_f_5113_20445" x="-33.084" y="427.373" width="607.629" height="608.9" filterUnits="userSpaceOnUse" color-interpolation-filters="sRGB">
<feFlood flood-opacity="0" result="BackgroundImageFix"/>
<feBlend mode="normal" in="SourceGraphic" in2="BackgroundImageFix" result="shape"/>
<feGaussianBlur stdDeviation="72" result="effect1_foregroundBlur_5113_20445"/>
</filter>
<filter id="filter8_f_5113_20445" x="35.5596" y="-358.52" width="922.025" height="674.76" filterUnits="userSpaceOnUse" color-interpolation-filters="sRGB">
<feFlood flood-opacity="0" result="BackgroundImageFix"/>
<feBlend mode="normal" in="SourceGraphic" in2="BackgroundImageFix" result="shape"/>
<feGaussianBlur stdDeviation="92" result="effect1_foregroundBlur_5113_20445"/>
</filter>
<filter id="filter9_f_5113_20445" x="-159" y="-283" width="895" height="894" filterUnits="userSpaceOnUse" color-interpolation-filters="sRGB">
<feFlood flood-opacity="0" result="BackgroundImageFix"/>
<feBlend mode="normal" in="SourceGraphic" in2="BackgroundImageFix" result="shape"/>
<feGaussianBlur stdDeviation="102" result="effect1_foregroundBlur_5113_20445"/>
</filter>
<filter id="filter10_f_5113_20445" x="-379" y="-215" width="895" height="894" filterUnits="userSpaceOnUse" color-interpolation-filters="sRGB">
<feFlood flood-opacity="0" result="BackgroundImageFix"/>
<feBlend mode="normal" in="SourceGraphic" in2="BackgroundImageFix" result="shape"/>
<feGaussianBlur stdDeviation="102" result="effect1_foregroundBlur_5113_20445"/>
</filter>
<filter id="filter11_f_5113_20445" x="120.82" y="379.342" width="552.893" height="619.562" filterUnits="userSpaceOnUse" color-interpolation-filters="sRGB">
<feFlood flood-opacity="0" result="BackgroundImageFix"/>
<feBlend mode="normal" in="SourceGraphic" in2="BackgroundImageFix" result="shape"/>
<feGaussianBlur stdDeviation="72" result="effect1_foregroundBlur_5113_20445"/>
</filter>
<filter id="filter12_f_5113_20445" x="446.188" y="-166.439" width="851.123" height="832.223" filterUnits="userSpaceOnUse" color-interpolation-filters="sRGB">
<feFlood flood-opacity="0" result="BackgroundImageFix"/>
<feBlend mode="normal" in="SourceGraphic" in2="BackgroundImageFix" result="shape"/>
<feGaussianBlur stdDeviation="117" result="effect1_foregroundBlur_5113_20445"/>
</filter>
<linearGradient id="paint0_linear_5113_20445" x1="1206.56" y1="301.267" x2="919.135" y2="1317.92" gradientUnits="userSpaceOnUse">
<stop stop-color="#07122E"/>
<stop offset="1" stop-color="#16071E"/>
</linearGradient>
<linearGradient id="paint1_linear_5113_20445" x1="1206.55" y1="301.267" x2="919.131" y2="1317.92" gradientUnits="userSpaceOnUse">
<stop stop-color="#07122E"/>
<stop offset="1" stop-color="#16071E"/>
</linearGradient>
<linearGradient id="paint2_linear_5113_20445" x1="1263.56" y1="301.258" x2="976.151" y2="1317.88" gradientUnits="userSpaceOnUse">
<stop stop-color="#07122E"/>
<stop offset="1" stop-color="#16071E"/>
</linearGradient>
<clipPath id="clip0_5113_20445">
<rect width="1360" height="1032" fill="white"/>
</clipPath>
</defs>
</svg>
