<svg width="41" height="40" viewBox="0 0 41 40" fill="none" xmlns="http://www.w3.org/2000/svg">
<path fill-rule="evenodd" clip-rule="evenodd" d="M7.04958 18.4488C6.19376 19.3046 6.19376 20.6921 7.04958 21.548C7.9054 22.4038 9.29297 22.4038 10.1488 21.548L17.0702 14.6265C17.9261 13.7707 17.9261 12.3831 17.0702 11.5273C16.2144 10.6715 14.8269 10.6715 13.971 11.5273L7.04958 18.4488ZM22.5455 9.15126C21.6897 10.0071 20.302 10.0072 19.4462 9.15134C18.5904 8.29552 18.5905 6.90788 19.4463 6.05206C20.3021 5.19624 21.6897 5.19616 22.5456 6.05198C23.4014 6.90781 23.4013 8.29544 22.5455 9.15126ZM28.7438 12.2506C27.888 11.3947 26.5004 11.3947 25.6446 12.2506L13.248 24.6472C12.3922 25.503 12.3922 26.8906 13.248 27.7464C14.1038 28.6022 15.4914 28.6022 16.3472 27.7464L28.7438 15.3498C29.5997 14.4939 29.5997 13.1064 28.7438 12.2506ZM31.843 18.449C32.6989 17.5932 34.0864 17.5932 34.9423 18.449C35.7981 19.3048 35.7981 20.6924 34.9423 21.5482L28.0208 28.4696C27.165 29.3254 25.7775 29.3254 24.9216 28.4696C24.0658 27.6138 24.0658 26.2262 24.9216 25.3704L31.843 18.449ZM22.5456 30.8456C21.6898 29.9898 20.3023 29.9898 19.4464 30.8456C18.5906 31.7014 18.5906 33.0889 19.4464 33.9448C20.3022 34.8006 21.6898 34.8006 22.5456 33.9448C23.4015 33.089 23.4014 31.7014 22.5456 30.8456Z" fill="#15D6CF"/>
</svg>
