<svg width="32" height="32" viewBox="0 0 32 32" fill="none" xmlns="http://www.w3.org/2000/svg">
<path d="M24.3731 3.07401C23.4946 2.7919 22.5706 2.66699 21.6452 2.66699C19.258 2.66698 17.6281 3.82814 15.9987 5.01972C14.3978 3.84519 12.7394 2.66699 10.3813 2.66699C9.47479 2.66699 8.52871 2.761 7.66946 3.04454C2.19738 4.75822 0.246734 10.4424 1.90405 15.4109C2.84271 17.9498 4.35482 20.253 6.32014 22.1463C9.2804 24.8788 12.504 27.2628 15.9987 29.3337C19.4868 27.3176 22.7693 24.8713 25.6946 22.1603C27.6731 20.267 29.1838 17.9498 30.1077 15.4109C31.7372 10.4424 29.7866 4.75822 24.3731 3.07401Z" stroke="#03032D" stroke-width="2"/>
</svg>
