<svg width="32" height="32" viewBox="0 0 32 32" fill="none" xmlns="http://www.w3.org/2000/svg">
<path d="M17.9928 30.0405L18.5662 30.8598L17.9928 30.0405ZM14.0072 30.0405L13.4338 30.8598L14.0072 30.0405ZM9.74302 27.0559L10.3164 26.2367L9.74302 27.0559ZM22.257 27.0559L21.6836 26.2367L22.257 27.0559ZM15.0581 1.46227L14.7885 0.499302L15.0581 1.46227ZM16.9419 1.46227L17.2115 0.499302L16.9419 1.46227ZM25.5133 3.86202L25.7829 2.89905L25.5133 3.86202ZM6.48667 3.86202L6.21707 2.89905L6.48667 3.86202ZM6.75627 4.82499L15.3277 2.42525L14.7885 0.499302L6.21707 2.89905L6.75627 4.82499ZM16.6723 2.42525L25.2437 4.82499L25.7829 2.89905L17.2115 0.499302L16.6723 2.42525ZM27 7.0924V16.1205H29V7.0924H27ZM5 16.1205V7.0924H3V16.1205H5ZM21.6836 26.2367L17.4194 29.2213L18.5662 30.8598L22.8304 27.8752L21.6836 26.2367ZM14.5806 29.2213L10.3164 26.2367L9.1696 27.8752L13.4338 30.8598L14.5806 29.2213ZM17.4194 29.2213C16.5716 29.8147 15.4284 29.8147 14.5806 29.2213L13.4338 30.8598C14.9702 31.9352 17.0298 31.9352 18.5662 30.8598L17.4194 29.2213ZM3 16.1205C3 20.7921 5.30254 25.1686 9.1696 27.8752L10.3164 26.2367C6.97537 23.8982 5 20.1289 5 16.1205H3ZM27 16.1205C27 20.1289 25.0246 23.8982 21.6836 26.2367L22.8304 27.8752C26.6975 25.1686 29 20.7921 29 16.1205H27ZM15.3277 2.42525C15.767 2.30226 16.233 2.30226 16.6723 2.42525L17.2115 0.499302C16.4195 0.277576 15.5805 0.277576 14.7885 0.499302L15.3277 2.42525ZM25.2437 4.82499C26.2953 5.11941 27 6.05271 27 7.0924H29C29 5.13205 27.6751 3.42881 25.7829 2.89905L25.2437 4.82499ZM6.21707 2.89905C4.32487 3.42881 3 5.13205 3 7.0924H5C5 6.05271 5.70468 5.11941 6.75627 4.82499L6.21707 2.89905Z" fill="#03032D"/>
<path d="M10.668 14.667H21.3346M16.0013 9.33366V20.0003" stroke="#03032D" stroke-width="2" stroke-linecap="round"/>
</svg>
