<svg width="32" height="32" viewBox="0 0 32 32" fill="none" xmlns="http://www.w3.org/2000/svg">
<path d="M1.33203 8.59292C1.33203 5.32012 4.25047 2.66699 7.85055 2.66699H24.1468C27.7469 2.66699 30.6654 5.32012 30.6654 8.59292V23.4077C30.6654 26.6805 27.7469 29.3337 24.1468 29.3337H7.85055C4.25047 29.3337 1.33203 26.6805 1.33203 23.4077V8.59292Z" stroke="#03032D" stroke-width="2"/>
<path d="M16 16.0003C16 13.0548 18.1888 10.667 20.8889 10.667H29.037C29.9371 10.667 30.6667 11.4629 30.6667 12.4448V19.5559C30.6667 20.5377 29.9371 21.3337 29.037 21.3337H20.8889C18.1888 21.3337 16 18.9458 16 16.0003Z" stroke="#03032D" stroke-width="2"/>
<path d="M21.332 16L21.4654 16" stroke="#03032D" stroke-width="2" stroke-linecap="round"/>
</svg>
