<svg width="32" height="32" viewBox="0 0 32 32" fill="none" xmlns="http://www.w3.org/2000/svg">
<g clip-path="url(#clip0)">
<path d="M0.989272 29.7573L9.41057 10.6691C9.6943 10.0259 10.5355 9.86854 11.0326 10.3656L22.261 21.594C22.7686 22.1016 22.5918 22.9629 21.9253 23.2296L2.27558 31.0894C1.44364 31.4222 0.6276 30.5771 0.989272 29.7573Z" stroke="#03032D" stroke-width="2"/>
<path d="M22.1144 17.5094C22.4805 17.8755 23.0741 17.8755 23.4402 17.5094C26.967 13.9826 30.4011 15.0729 30.4354 15.0843C30.9265 15.248 31.4574 14.9826 31.6212 14.4914C31.785 14.0004 31.5194 13.4693 31.0283 13.3056C30.8434 13.244 26.4516 11.8465 22.1145 16.1836C21.7483 16.5497 21.7483 17.1433 22.1144 17.5094Z" fill="#03032D"/>
<path d="M16.1473 10.2178C20.4845 5.88119 19.0865 1.48896 19.0252 1.30397C18.8615 0.812747 18.3303 0.547763 17.839 0.711503C17.3484 0.875243 17.0828 1.40584 17.2466 1.89706C17.2578 1.93143 18.3484 5.3656 14.8211 8.89226C14.4573 9.25605 14.4536 9.8492 14.8211 10.2178C15.1891 10.5858 15.7822 10.5829 16.1473 10.2178Z" fill="#03032D"/>
<path d="M18.134 12.2064C17.7678 12.5725 17.7678 13.166 18.134 13.5321C18.4967 13.8949 19.0861 13.8996 19.4541 13.5376C19.9384 13.2964 21.4416 14.2014 22.2769 13.3663C23.1033 12.5399 22.2253 11.0673 22.4446 10.5512C22.9614 10.3313 24.4334 11.2098 25.2598 10.3835C26.0864 9.55702 25.2083 8.08442 25.4276 7.56826C25.9452 7.34834 27.4164 8.22691 28.2428 7.40052C29.0693 6.57407 28.1913 5.10147 28.4106 4.58532C28.925 4.36652 30.3999 5.24309 31.2258 4.41751C32.0608 3.58238 31.1575 2.07653 31.397 1.59475C31.7576 1.22827 31.7557 0.638868 31.3914 0.274577C31.0254 -0.0915257 30.4318 -0.0915257 30.0657 0.274577C29.3268 1.01347 29.4714 2.05659 29.6105 2.80236C28.8648 2.66318 27.8217 2.51863 27.0828 3.25746C26.3439 3.99635 26.4885 5.03948 26.6277 5.78524C25.8819 5.64613 24.8387 5.50145 24.0999 6.2404C23.361 6.9793 23.5056 8.02242 23.6448 8.76819C22.8989 8.62901 21.8558 8.48439 21.117 9.22328C20.3781 9.96218 20.5227 11.0053 20.6619 11.7511C19.916 11.612 18.8728 11.4675 18.134 12.2064Z" fill="#03032D"/>
</g>
<defs>
<clipPath id="clip0">
<rect width="32" height="32" fill="white"/>
</clipPath>
</defs>
</svg>
