<svg width="32" height="32" viewBox="0 0 32 32" fill="none" xmlns="http://www.w3.org/2000/svg">
<path d="M30.6654 15.9997C30.6654 24.0999 24.0989 30.6663 15.9987 30.6663C7.89852 30.6663 1.33203 24.0999 1.33203 15.9997C1.33203 7.8995 7.89852 1.33301 15.9987 1.33301C24.0989 1.33301 30.6654 7.8995 30.6654 15.9997Z" stroke="#03032D" stroke-width="2"/>
<path d="M22.6654 15.9997C22.6654 24.0999 19.6806 30.6663 15.9987 30.6663C12.3168 30.6663 9.33203 24.0999 9.33203 15.9997C9.33203 7.8995 12.3168 1.33301 15.9987 1.33301C19.6806 1.33301 22.6654 7.8995 22.6654 15.9997Z" stroke="#03032D" stroke-width="2"/>
<path d="M29.3346 23.7264C26.3587 22.2733 21.6123 21.333 16.2652 21.333C10.5898 21.333 5.59116 22.3923 2.66797 23.9997" stroke="#03032D" stroke-width="2"/>
<path d="M29.3346 8.11584C26.419 9.65803 21.582 10.6667 16.1081 10.6667C10.4983 10.6667 5.55738 9.60733 2.66797 8" stroke="#03032D" stroke-width="2"/>
</svg>
