<svg width="32" height="32" viewBox="0 0 32 32" fill="none" xmlns="http://www.w3.org/2000/svg">
<g clip-path="url(#clip0)">
<path d="M24.6224 27.3875L24.6208 10.9312L28.2694 7.28266C28.8454 6.70667 29.298 5.99842 29.5873 5.20491L29.7551 4.66264C30.0107 3.96503 29.8437 3.20703 29.3192 2.68246C28.7946 2.15789 28.0366 1.99098 27.3692 2.23591L26.7674 2.42402C26.0033 2.70357 25.2959 3.15532 24.719 3.73219L21.0704 7.38078L4.61853 7.38014C3.7807 7.3801 2.99343 7.70579 2.40055 8.29867L1.36036 9.33886C1.19794 9.50127 1.13759 9.73912 1.20242 9.95838C1.26633 10.1785 1.44565 10.3471 1.67107 10.3951L14.4272 12.4317C13.1669 13.8571 12.1578 15.0898 10.9303 16.5907L9.67362 18.1296L5.48166 18.0434C5.2731 18.0016 5.06009 18.0655 4.91099 18.2146L4.02347 19.1021C3.88947 19.2361 3.82291 19.4252 3.84331 19.6142C3.86375 19.8051 3.96935 19.9746 4.12911 20.0758L9.14785 22.8535L11.9258 27.8724C11.9506 27.9115 11.9791 27.947 12.011 27.979C12.1113 28.0793 12.2427 28.1431 12.3865 28.1591C12.5764 28.1786 12.7654 28.1121 12.8994 27.9781L13.7869 27.0906C13.936 26.9415 14.0008 26.7276 13.9573 26.5208L13.8684 22.3315L15.4118 21.0703C16.9108 19.8446 18.1427 18.8364 19.5681 17.5761L21.6065 30.3304C21.6554 30.5568 21.824 30.7343 22.0423 30.7982C22.2625 30.8639 22.5003 30.8036 22.6627 30.6412L23.7029 29.601C24.2958 29.0082 24.6225 28.2219 24.6224 27.3875Z" stroke="#03032D" stroke-width="2"/>
</g>
<defs>
<clipPath id="clip0">
<rect width="32" height="32" fill="white"/>
</clipPath>
</defs>
</svg>
