<svg width="18" height="19" viewBox="0 0 18 19" fill="none" xmlns="http://www.w3.org/2000/svg">
    <path d="M9.01486 0.859375C4.08419 0.859375 0.0859375 4.84028 0.0859375 9.75113C0.0859375 13.6798 2.64434 17.0128 6.1921 18.1885C6.63832 18.2708 6.80219 17.9957 6.80219 17.7608C6.80219 17.5488 6.79385 16.8483 6.79007 16.1053C4.30597 16.6432 3.78181 15.0562 3.78181 15.0562C3.37564 14.0284 2.79042 13.7552 2.79042 13.7552C1.98034 13.2033 2.85148 13.2146 2.85148 13.2146C3.74812 13.2774 4.22025 14.1309 4.22025 14.1309C5.01661 15.4903 6.30905 15.0973 6.81857 14.8701C6.89868 14.2954 7.13013 13.9032 7.38545 13.6811C5.40226 13.4562 3.31738 12.6938 3.31738 9.28675C3.31738 8.31602 3.66619 7.52277 4.23741 6.90009C4.14469 6.6761 3.83909 5.77175 4.32389 4.54697C4.32389 4.54697 5.07368 4.30798 6.77999 5.45843C7.49217 5.26135 8.25604 5.1626 9.01486 5.15926C9.77368 5.1626 10.5381 5.26135 11.2517 5.45843C12.956 4.30798 13.7047 4.54697 13.7047 4.54697C14.1907 5.77175 13.885 6.6761 13.7922 6.90009C14.3647 7.52277 14.7112 8.31595 14.7112 9.28675C14.7112 12.7019 12.6224 13.4539 10.6341 13.674C10.9544 13.95 11.2397 14.4911 11.2397 15.3206C11.2397 16.5103 11.2294 17.4679 11.2294 17.7608C11.2294 17.9974 11.3901 18.2747 11.8427 18.1874C15.3885 17.0103 17.9437 13.6785 17.9437 9.75113C17.9437 4.84028 13.946 0.859375 9.01486 0.859375Z" fill="black" />
</svg>