<svg width="28" height="28" viewBox="0 0 28 28" fill="none" xmlns="http://www.w3.org/2000/svg">
    <rect width="28" height="28" rx="8" fill="#03032D" />
    <path fill-rule="evenodd" clip-rule="evenodd" d="M14 3C7.9225 3 3 8.04701 3 14.2782C3 19.2688 6.14875 23.4841 10.5212 24.9785C11.0712 25.0771 11.2775 24.7388 11.2775 24.4427C11.2775 24.1749 11.2638 23.2867 11.2638 22.3422C8.5 22.8638 7.785 21.6514 7.565 21.017C7.44125 20.6927 6.905 19.6918 6.4375 19.4239C6.0525 19.2125 5.5025 18.6908 6.42375 18.6767C7.29 18.6626 7.90875 19.4944 8.115 19.8328C9.105 21.5386 10.6863 21.0593 11.3188 20.7632C11.415 20.0301 11.7037 19.5367 12.02 19.2548C9.5725 18.9728 7.015 18 7.015 13.6861C7.015 12.4596 7.44125 11.4446 8.1425 10.6551C8.0325 10.3731 7.6475 9.21713 8.2525 7.66637C8.2525 7.66637 9.17375 7.37031 11.2775 8.82239C12.1575 8.56863 13.0925 8.44175 14.0275 8.44175C14.9625 8.44175 15.8975 8.56863 16.7775 8.82239C18.8813 7.35622 19.8025 7.66637 19.8025 7.66637C20.4075 9.21713 20.0225 10.3731 19.9125 10.6551C20.6138 11.4446 21.04 12.4455 21.04 13.6861C21.04 18.0141 18.4688 18.9728 16.0213 19.2548C16.42 19.6072 16.7638 20.2839 16.7638 21.3412C16.7638 22.8497 16.75 24.0621 16.75 24.4427C16.75 24.7388 16.9563 25.0912 17.5063 24.9785C21.8513 23.4841 25 19.2548 25 14.2782C25 8.04701 20.0775 3 14 3Z" fill="white" />
</svg>