<svg width="18" height="16" viewBox="0 0 18 16" fill="none" xmlns="http://www.w3.org/2000/svg">
    <path fill-rule="evenodd" clip-rule="evenodd" d="M4.0441 1.85264C4.0441 2.79448 3.29 3.5567 2.11072 3.5567C0.977382 3.5567 0.223283 2.79448 0.246621 1.85264C0.223283 0.865019 0.977364 0.125 2.13331 0.125C3.28998 0.125 4.02149 0.865019 4.0441 1.85264ZM0.341433 15.8735V4.90288H3.92668V15.8728H0.341433V15.8735Z" fill="white" />
    <path fill-rule="evenodd" clip-rule="evenodd" d="M6.80575 8.40408C6.80575 7.0357 6.75834 5.86914 6.71094 4.90441H9.82505L9.9906 6.40735H10.0614C10.5332 5.71171 11.7125 4.6582 13.6233 4.6582C15.9818 4.6582 17.7511 6.13894 17.7511 9.36812V15.875H14.1659V9.79535C14.1659 8.3812 13.6473 7.41716 12.3499 7.41716C11.3588 7.41716 10.7695 8.06771 10.5339 8.69538C10.4391 8.92009 10.3925 9.23357 10.3925 9.54844V15.875H6.8072V8.40408H6.80575Z" fill="white" />
</svg>
    