<svg width="18" height="14" viewBox="0 0 18 14" fill="none" xmlns="http://www.w3.org/2000/svg">
    <path fill-rule="evenodd" clip-rule="evenodd" d="M17.75 1.65712C17.1066 1.93848 16.4143 2.12796 15.6881 2.21352C16.4294 1.77598 16.9987 1.0835 17.2664 0.258386C16.5735 0.663766 15.8041 0.957181 14.9869 1.11623C14.3319 0.429497 13.398 0 12.3662 0C10.3836 0 8.77601 1.58248 8.77601 3.53416C8.77601 3.81092 8.8081 4.0808 8.86934 4.33976C5.88521 4.19276 3.23997 2.78541 1.46909 0.647116C1.15994 1.16906 0.983201 1.77599 0.983201 2.42368C0.983201 3.64958 1.61608 4.73136 2.58026 5.36527C1.99113 5.3469 1.43817 5.18785 0.953452 4.92314V4.96735C0.953452 6.68017 2.19179 8.1082 3.83318 8.43376C3.5322 8.51415 3.21489 8.55779 2.88766 8.55779C2.65609 8.55779 2.43094 8.53539 2.21162 8.49405C2.66834 9.89795 3.99475 10.92 5.56556 10.9487C4.33714 11.8962 2.78908 12.4617 1.10686 12.4617C0.816378 12.4617 0.530565 12.4451 0.25 12.4118C1.83889 13.4143 3.72585 14 5.75338 14C12.3569 14 15.968 8.61463 15.968 3.94471C15.968 3.7914 15.9651 3.63867 15.9575 3.48766C16.6598 2.98811 17.2688 2.36568 17.75 1.65712Z" fill="white" />
</svg>
    