<svg width="50" height="47" viewBox="0 0 50 47" fill="none" xmlns="http://www.w3.org/2000/svg">
<path d="M39.1264 24.4668C33.12 24.4668 28.2517 29.3351 28.2517 35.3405C28.2517 41.3464 33.12 46.2156 39.1264 46.2156C45.1317 46.2156 50 41.3464 50 35.3405C50 29.3351 45.1317 24.4668 39.1264 24.4668V24.4668ZM10.8741 24.4673C4.86877 24.4679 0 29.3351 0 35.341C0 41.3464 4.86877 46.2151 10.8741 46.2151C16.88 46.2151 21.7488 41.3464 21.7488 35.341C21.7488 29.3351 16.88 24.4673 10.8736 24.4673H10.8741ZM35.8741 10.8741C35.8741 16.8795 31.0059 21.7493 25.0005 21.7493C18.9941 21.7493 14.1259 16.8795 14.1259 10.8741C14.1259 4.86877 18.9941 0 25.0005 0C31.0059 0 35.8736 4.86877 35.8736 10.8741H35.8741Z" fill="url(#paint0_radial)"/>
<defs>
<radialGradient id="paint0_radial" cx="0" cy="0" r="1" gradientUnits="userSpaceOnUse" gradientTransform="translate(25 25.2578) scale(33.1315 30.6239)">
<stop stop-color="#FFB900"/>
<stop offset="0.6" stop-color="#F95D8F"/>
<stop offset="0.9991" stop-color="#F95353"/>
</radialGradient>
</defs>
</svg>
