<svg width="30" height="30" viewBox="0 0 30 30" fill="none" xmlns="http://www.w3.org/2000/svg">
<path fill-rule="evenodd" clip-rule="evenodd" d="M6.32487 18.9652C6.3252 19.3794 6.2439 19.7896 6.08564 20.1723C5.92738 20.555 5.69525 20.9027 5.40255 21.1955C5.10985 21.4883 4.76232 21.7205 4.37985 21.8787C3.99738 22.037 3.58749 22.1182 3.17363 22.1177C2.75998 22.1178 2.35036 22.0364 1.96818 21.878C1.586 21.7196 1.23877 21.4874 0.946334 21.1946C0.653898 20.9019 0.421997 20.5543 0.263891 20.1717C0.105784 19.7892 0.024574 19.3792 0.0249033 18.9652C0.0245738 18.5511 0.105826 18.1411 0.26401 17.7584C0.422195 17.3758 0.654208 17.0281 0.946776 16.7353C1.23934 16.4425 1.58673 16.2104 1.96905 16.052C2.35137 15.8937 2.76113 15.8124 3.17488 15.8127H6.32612V18.9652H6.32487ZM7.89986 18.9652C7.89953 18.5511 7.98078 18.1411 8.13896 17.7584C8.29715 17.3758 8.52916 17.0281 8.82173 16.7353C9.1143 16.4425 9.46168 16.2104 9.844 16.052C10.2263 15.8937 10.6361 15.8124 11.0498 15.8127C11.4636 15.8124 11.8733 15.8937 12.2557 16.052C12.638 16.2104 12.9854 16.4425 13.2779 16.7353C13.5705 17.0281 13.8025 17.3758 13.9607 17.7584C14.1189 18.1411 14.2001 18.5511 14.1998 18.9652V26.8476C14.2001 27.2617 14.1189 27.6718 13.9607 28.0544C13.8025 28.4371 13.5705 28.7847 13.2779 29.0775C12.9854 29.3703 12.638 29.6025 12.2557 29.7608C11.8733 29.9191 11.4636 30.0004 11.0498 30.0001C10.6361 30.0004 10.2263 29.9191 9.844 29.7608C9.46168 29.6025 9.1143 29.3703 8.82173 29.0775C8.52916 28.7847 8.29715 28.4371 8.13896 28.0544C7.98078 27.6718 7.89953 27.2617 7.89986 26.8476V18.9652Z" fill="#E01E5A"/>
<path fill-rule="evenodd" clip-rule="evenodd" d="M11.05 6.30619C10.6361 6.30652 10.2263 6.22516 9.84387 6.06678C9.46146 5.90839 9.11403 5.67608 8.82144 5.38315C8.52886 5.09022 8.29687 4.74241 8.13876 4.35964C7.98065 3.97687 7.89952 3.56666 7.90001 3.15247C7.89968 2.73839 7.98093 2.32831 8.13912 1.94568C8.2973 1.56306 8.52932 1.2154 8.82189 0.922602C9.11445 0.629803 9.46184 0.397606 9.84416 0.239297C10.2265 0.0809871 10.6362 -0.000328814 11.05 9.99267e-07C11.4637 -0.000328814 11.8735 0.0809871 12.2558 0.239297C12.6382 0.397606 12.9855 0.629803 13.2781 0.922602C13.5707 1.2154 13.8027 1.56306 13.9609 1.94568C14.1191 2.32831 14.2003 2.73839 14.2 3.15247V6.30745H11.0512L11.05 6.30619ZM11.05 7.90625C11.4637 7.90592 11.8735 7.98724 12.2558 8.14555C12.6382 8.30386 12.9855 8.53605 13.2781 8.82885C13.5707 9.12165 13.8027 9.46931 13.9609 9.85193C14.1191 10.2346 14.2003 10.6446 14.2 11.0587C14.2003 11.4728 14.1191 11.8829 13.9609 12.2655C13.8027 12.6481 13.5707 12.9958 13.2781 13.2886C12.9855 13.5814 12.6382 13.8136 12.2558 13.9719C11.8735 14.1302 11.4637 14.2115 11.05 14.2112H3.14998C2.73633 14.2115 2.32668 14.1302 1.94444 13.972C1.5622 13.8138 1.21487 13.5817 0.922318 13.289C0.629766 12.9964 0.397726 12.6489 0.239468 12.2664C0.0812095 11.8839 -0.000163802 11.4739 9.98479e-07 11.06C-0.000328555 10.6459 0.0809232 10.2358 0.239108 9.85319C0.397292 9.47056 0.629306 9.12291 0.921874 8.83011C1.21444 8.53731 1.56182 8.30511 1.94415 8.1468C2.32647 7.98849 2.73623 7.90718 3.14998 7.90751H11.0512L11.05 7.90625Z" fill="#36C5F0"/>
<path fill-rule="evenodd" clip-rule="evenodd" d="M23.675 11.0587C23.6747 10.6445 23.756 10.2343 23.9143 9.85164C24.0725 9.46894 24.3046 9.12123 24.5973 8.82841C24.8901 8.53559 25.2376 8.30342 25.62 8.14519C26.0025 7.98695 26.4124 7.90576 26.8263 7.90625C27.24 7.90592 27.6498 7.98724 28.0321 8.14555C28.4144 8.30386 28.7618 8.53605 29.0544 8.82885C29.3469 9.12165 29.579 9.46931 29.7371 9.85193C29.8953 10.2346 29.9766 10.6446 29.9762 11.0587C29.9766 11.4728 29.8953 11.8829 29.7371 12.2655C29.579 12.6481 29.3469 12.9958 29.0544 13.2886C28.7618 13.5814 28.4144 13.8136 28.0321 13.9719C27.6498 14.1302 27.24 14.2115 26.8263 14.2112H23.675V11.06V11.0587ZM22.1 11.0587C22.1004 11.4728 22.0191 11.8829 21.8609 12.2655C21.7028 12.6481 21.4707 12.9958 21.1782 13.2886C20.8856 13.5814 20.5382 13.8136 20.1559 13.9719C19.7736 14.1302 19.3638 14.2115 18.9501 14.2112C18.5362 14.2117 18.1263 14.1305 17.7438 13.9723C17.3614 13.814 17.0138 13.5818 16.7211 13.289C16.4284 12.9962 16.1963 12.6485 16.0381 12.2658C15.8798 11.8831 15.7985 11.4729 15.7988 11.0587V3.15247C15.7985 2.73828 15.8798 2.3281 16.0381 1.94539C16.1963 1.56269 16.4284 1.21498 16.7211 0.922159C17.0138 0.629343 17.3614 0.397173 17.7438 0.238937C18.1263 0.0807016 18.5362 -0.000492533 18.9501 2.24775e-06C19.3638 -0.000327566 19.7736 0.0809883 20.1559 0.239298C20.5382 0.397607 20.8856 0.629804 21.1782 0.922603C21.4707 1.2154 21.7028 1.56306 21.8609 1.94568C22.0191 2.32831 22.1004 2.73839 22.1 3.15247V11.06V11.0587Z" fill="#2EB67D"/>
<path fill-rule="evenodd" clip-rule="evenodd" d="M18.9498 23.6939C19.3635 23.6936 19.7733 23.7749 20.1556 23.9332C20.5379 24.0915 20.8853 24.3237 21.1779 24.6165C21.4705 24.9093 21.7025 25.257 21.8607 25.6396C22.0188 26.0222 22.1001 26.4323 22.0998 26.8464C22.1003 27.2606 22.0191 27.6708 21.861 28.0536C21.7029 28.4363 21.4709 28.7841 21.1783 29.0771C20.8858 29.37 20.5383 29.6023 20.1559 29.7607C19.7735 29.9191 19.3636 30.0004 18.9498 30.0001C18.5359 30.0004 18.1261 29.9191 17.7437 29.7607C17.3613 29.6023 17.0138 29.37 16.7212 29.0771C16.4287 28.7841 16.1967 28.4363 16.0386 28.0536C15.8804 27.6708 15.7993 27.2606 15.7998 26.8464V23.6939H18.9498V23.6939ZM18.9498 22.1177C18.536 22.118 18.1263 22.0367 17.744 21.8784C17.3616 21.7201 17.0142 21.4879 16.7217 21.1951C16.4291 20.9023 16.1971 20.5546 16.0389 20.172C15.8807 19.7894 15.7995 19.3793 15.7998 18.9652C15.7995 18.5511 15.8807 18.1411 16.0389 17.7584C16.1971 17.3758 16.4291 17.0281 16.7217 16.7353C17.0142 16.4425 17.3616 16.2104 17.744 16.052C18.1263 15.8937 18.536 15.8124 18.9498 15.8127H26.8498C27.2636 15.8124 27.6733 15.8937 28.0556 16.052C28.438 16.2104 28.7853 16.4425 29.0779 16.7353C29.3705 17.0281 29.6025 17.3758 29.7607 17.7584C29.9189 18.1411 30.0001 18.5511 29.9998 18.9652C30.0001 19.3793 29.9189 19.7894 29.7607 20.172C29.6025 20.5546 29.3705 20.9023 29.0779 21.1951C28.7853 21.4879 28.438 21.7201 28.0556 21.8784C27.6733 22.0367 27.2636 22.118 26.8498 22.1177H18.9498V22.1177Z" fill="#ECB22E"/>
</svg>
