<svg width="33" height="33" viewBox="0 0 33 33" fill="none" xmlns="http://www.w3.org/2000/svg">
<path fill-rule="evenodd" clip-rule="evenodd" d="M32.5556 16.5194C32.5556 25.3968 25.3589 32.5935 16.4815 32.5935C7.60404 32.5935 0.40741 25.3968 0.40741 16.5194C0.40741 7.64194 7.60404 0.445312 16.4815 0.445312C25.3589 0.445312 32.5556 7.64194 32.5556 16.5194Z" fill="white"/>
<path fill-rule="evenodd" clip-rule="evenodd" d="M18.486 16.9941L13.9853 16.9942V12.172H18.486C19.802 12.172 20.8688 13.2514 20.8688 14.583C20.8688 15.9146 19.802 16.9941 18.486 16.9941ZM18.486 8.95703H10.8083V25.0311H13.9853V20.209H18.486C21.5566 20.209 24.0458 17.6901 24.0458 14.583C24.0458 11.4758 21.5566 8.95703 18.486 8.95703Z" fill="#221D21"/>
</svg>
