<svg width="24" height="31" viewBox="0 0 24 31" fill="none" xmlns="http://www.w3.org/2000/svg">
<path fill-rule="evenodd" clip-rule="evenodd" d="M18.41 10.8547H7L12.705 0.484375L18.41 10.8547Z" fill="#EEF2FF"/>
<path d="M5.80092 27.0039H3.9474V20.6562H1.78285V19.4248C2.35414 19.3994 2.75404 19.3613 2.98256 19.3105C3.34649 19.2301 3.64272 19.0693 3.87123 18.8281C4.02781 18.6631 4.1463 18.443 4.2267 18.168C4.27325 18.0029 4.29652 17.8802 4.29652 17.7998H5.80092V27.0039ZM14.9162 23.6079V25.0234H13.8751V27.0039H12.1041V25.0234H8.46059V23.4429L11.8439 17.8569H13.8751V23.6079H14.9162ZM9.79994 23.6079H12.1041V19.6343L9.79994 23.6079ZM19.3278 21.0308C20.1445 21.0308 20.8131 21.3079 21.3336 21.8623C21.8584 22.4167 22.1207 23.1255 22.1207 23.9888C22.1207 24.8478 21.8647 25.6053 21.3527 26.2612C20.8406 26.9172 20.0451 27.2451 18.966 27.2451C17.8065 27.2451 16.9516 26.7606 16.4015 25.7915C15.9741 25.034 15.7604 24.0565 15.7604 22.8589C15.7604 22.1564 15.79 21.5851 15.8493 21.145C15.9551 20.3621 16.1603 19.7104 16.465 19.1899C16.7274 18.7456 17.0701 18.388 17.4933 18.1172C17.9207 17.8464 18.4306 17.7109 19.0231 17.7109C19.8779 17.7109 20.5592 17.931 21.067 18.3711C21.5748 18.807 21.8605 19.3888 21.924 20.1167H20.1212C20.1212 19.9686 20.0641 19.8057 19.9498 19.6279C19.7552 19.3402 19.4611 19.1963 19.0675 19.1963C18.4793 19.1963 18.0604 19.5264 17.8107 20.1865C17.6753 20.5505 17.5822 21.0879 17.5314 21.7988C17.7557 21.5322 18.0159 21.3376 18.3121 21.2148C18.6084 21.0921 18.9469 21.0308 19.3278 21.0308ZM18.109 22.7573C17.7536 23.0324 17.5758 23.4767 17.5758 24.0903C17.5758 24.5854 17.7091 24.9896 17.9757 25.3027C18.2423 25.6159 18.5809 25.7725 18.9913 25.7725C19.3934 25.7725 19.7086 25.6222 19.9371 25.3218C20.1699 25.0171 20.2863 24.6235 20.2863 24.1411C20.2863 23.6037 20.1551 23.1932 19.8927 22.9097C19.6303 22.6219 19.3087 22.478 18.9279 22.478C18.619 22.478 18.346 22.5711 18.109 22.7573Z" fill="#EEF2FF"/>
</svg>
