<svg width="24" height="25" viewBox="0 0 24 25" fill="none" xmlns="http://www.w3.org/2000/svg">
<path d="M22.61 19.4895L13.53 10.4095C14.46 8.06948 13.98 5.30948 12.09 3.40948C9.79001 1.10948 6.21001 0.899483 3.66001 2.75948L7.50001 6.60948L6.08001 8.01948L2.25001 4.18948C0.390007 6.72948 0.600007 10.3195 2.90001 12.6095C4.76001 14.4695 7.47001 14.9595 9.79001 14.0895L18.9 23.1995C19.29 23.5895 19.92 23.5895 20.31 23.1995L22.61 20.8995C23.01 20.5195 23.01 19.8895 22.61 19.4895ZM19.61 21.0895L10.15 11.6295C9.54001 12.0795 8.86001 12.3495 8.15001 12.4495C6.79001 12.6495 5.36001 12.2395 4.32001 11.1995C3.37001 10.2595 2.93001 8.99948 3.00001 7.75948L6.09001 10.8495L10.33 6.60948L7.24001 3.51948C8.48001 3.44948 9.73001 3.88948 10.68 4.82948C11.76 5.90948 12.17 7.39948 11.92 8.78948C11.8 9.49948 11.5 10.1595 11.04 10.7495L20.49 20.1995L19.61 21.0895Z" fill="#15D6CF"/>
</svg>
