<svg width="24" height="25" viewBox="0 0 24 25" fill="none" xmlns="http://www.w3.org/2000/svg">
<path d="M21.58 16.59L20.49 8.93C20.21 6.96 18.52 5.5 16.53 5.5H7.47C5.48 5.5 3.79 6.96 3.51 8.93L2.42 16.59C2.2 18.13 3.39 19.5 4.94 19.5C5.62 19.5 6.26 19.23 6.74 18.75L9 16.5H15L17.25 18.75C17.73 19.23 18.38 19.5 19.05 19.5C20.61 19.5 21.8 18.13 21.58 16.59ZM19.48 17.31C19.4 17.4 19.27 17.5 19.06 17.5C18.91 17.5 18.77 17.44 18.67 17.34L15.83 14.5H8.17L5.33 17.34C5.23 17.44 5.09 17.5 4.94 17.5C4.73 17.5 4.6 17.4 4.52 17.31C4.44 17.22 4.36 17.08 4.39 16.87L5.48 9.21C5.63 8.24 6.48 7.5 7.47 7.5H16.53C17.52 7.5 18.37 8.24 18.51 9.22L19.6 16.88C19.63 17.08 19.55 17.22 19.48 17.31Z" fill="#24E8CA"/>
<path d="M9 8.5H8V10.5H6V11.5H8V13.5H9V11.5H11V10.5H9V8.5Z" fill="#24E8CA"/>
<path d="M17 13.5C17.5523 13.5 18 13.0523 18 12.5C18 11.9477 17.5523 11.5 17 11.5C16.4477 11.5 16 11.9477 16 12.5C16 13.0523 16.4477 13.5 17 13.5Z" fill="#24E8CA"/>
<path d="M15 10.5C15.5523 10.5 16 10.0523 16 9.5C16 8.94772 15.5523 8.5 15 8.5C14.4477 8.5 14 8.94772 14 9.5C14 10.0523 14.4477 10.5 15 10.5Z" fill="#24E8CA"/>
</svg>
