<svg width="41" height="32" viewBox="0 0 41 32" fill="none" xmlns="http://www.w3.org/2000/svg">
<g clip-path="url(#clip0_5953_18084)">
<path d="M34.4383 2.65263C31.8454 1.42484 29.065 0.520263 26.1578 0.00217331C26.1049 -0.00782563 26.052 0.0171623 26.0247 0.0671394C25.6671 0.723492 25.271 1.57976 24.9936 2.25278C21.8668 1.76969 18.756 1.76969 15.6933 2.25278C15.4159 1.5648 15.0054 0.723492 14.6462 0.0671394C14.6189 0.0188298 14.566 -0.00615815 14.5131 0.00217331C11.6075 0.518607 8.82705 1.42319 6.23261 2.65263C6.21014 2.66262 6.19088 2.67929 6.1781 2.70093C0.904123 10.8322 -0.540636 18.7636 0.168115 26.5967C0.171322 26.635 0.192168 26.6717 0.221031 26.695C3.70065 29.332 7.07124 30.933 10.3792 31.9942C10.4322 32.0108 10.4883 31.9908 10.522 31.9459C11.3045 30.8431 12.0021 29.6803 12.6001 28.4574C12.6354 28.3859 12.6017 28.3009 12.5296 28.2726C11.4232 27.8394 10.3696 27.3113 9.3562 26.7116C9.27607 26.6633 9.26965 26.545 9.34336 26.4884C9.55661 26.3234 9.76997 26.1519 9.97359 25.9786C10.0104 25.9469 10.0618 25.9403 10.1051 25.9603C16.7628 29.0972 23.9706 29.0972 30.5498 25.9603C30.5931 25.9386 30.6444 25.9453 30.6829 25.9769C30.8866 26.1502 31.0998 26.3234 31.3147 26.4884C31.3884 26.545 31.3836 26.6633 31.3034 26.7116C30.29 27.323 29.2365 27.8394 28.1285 28.2709C28.0564 28.2992 28.0243 28.3859 28.0596 28.4574C28.6705 29.6785 29.368 30.8414 30.1361 31.9442C30.1682 31.9909 30.2259 32.0108 30.2788 31.9942C33.6029 30.933 36.9734 29.332 40.4531 26.695C40.4836 26.6717 40.5028 26.6366 40.506 26.5983C41.3542 17.5425 39.0853 9.67607 34.4912 2.70259C34.48 2.67929 34.4608 2.66262 34.4383 2.65263ZM13.5943 21.8271C11.5899 21.8271 9.93828 19.9281 9.93828 17.5958C9.93828 15.2635 11.5579 13.3644 13.5943 13.3644C15.6468 13.3644 17.2824 15.2802 17.2503 17.5958C17.2503 19.9281 15.6308 21.8271 13.5943 21.8271ZM27.1119 21.8271C25.1075 21.8271 23.4559 19.9281 23.4559 17.5958C23.4559 15.2635 25.0754 13.3644 27.1119 13.3644C29.1644 13.3644 30.7999 15.2802 30.7679 17.5958C30.7679 19.9281 29.1644 21.8271 27.1119 21.8271Z" fill="#5865F2"/>
</g>
<defs>
<clipPath id="clip0_5953_18084">
<rect width="40.8" height="32" fill="white"/>
</clipPath>
</defs>
</svg>
