<svg width="747" height="1136" viewBox="0 0 747 1136" fill="none" xmlns="http://www.w3.org/2000/svg">
<path opacity="0.6" fill-rule="evenodd" clip-rule="evenodd" d="M179 1134C491.593 1134 745 880.593 745 568C745 255.407 491.593 2 179 2C-133.593 2 -387 255.407 -387 568C-387 880.593 -133.593 1134 179 1134ZM179 1136C492.698 1136 747 881.698 747 568C747 254.302 492.698 0 179 0C-134.698 0 -389 254.302 -389 568C-389 881.698 -134.698 1136 179 1136ZM609.172 568C609.172 805.578 416.576 998.174 178.998 998.174C-58.5804 998.174 -251.176 805.578 -251.176 568C-251.176 330.421 -58.5804 137.826 178.998 137.826C416.576 137.826 609.172 330.421 609.172 568ZM611.172 568C611.172 806.683 417.681 1000.17 178.998 1000.17C-59.685 1000.17 -253.176 806.683 -253.176 568C-253.176 329.317 -59.685 135.826 178.998 135.826C417.681 135.826 611.172 329.317 611.172 568ZM179 862.348C341.564 862.348 473.348 730.564 473.348 568C473.348 405.436 341.564 273.652 179 273.652C16.4362 273.652 -115.348 405.436 -115.348 568C-115.348 730.564 16.4362 862.348 179 862.348ZM179 864.348C342.668 864.348 475.348 731.668 475.348 568C475.348 404.332 342.668 271.652 179 271.652C15.3316 271.652 -117.348 404.332 -117.348 568C-117.348 731.668 15.3316 864.348 179 864.348ZM178.998 726.522C266.547 726.522 337.52 655.549 337.52 568C337.52 480.451 266.547 409.479 178.998 409.479C91.4492 409.479 20.4766 480.451 20.4766 568C20.4766 655.549 91.4492 726.522 178.998 726.522ZM178.998 728.522C267.652 728.522 339.52 656.654 339.52 568C339.52 479.347 267.652 407.479 178.998 407.479C90.3446 407.479 18.4766 479.347 18.4766 568C18.4766 656.654 90.3446 728.522 178.998 728.522Z" fill="#D7E5FF"/>
</svg>
