<svg width="747" height="1136" viewBox="0 0 747 1136" fill="none" xmlns="http://www.w3.org/2000/svg">
<path opacity="0.6" fill-rule="evenodd" clip-rule="evenodd" d="M745 568C745 880.593 491.593 1134 179 1134C-133.593 1134 -387 880.593 -387 568C-387 458.388 -355.842 356.054 -301.899 269.371C-302.504 269.075 -303.064 268.701 -303.565 268.262C-357.719 355.263 -389 457.978 -389 568C-389 881.698 -134.698 1136 179 1136C492.698 1136 747 881.698 747 568C747 254.302 492.698 0 179 0C-19.3351 0 -193.927 101.654 -295.518 255.704C-294.902 255.979 -294.331 256.335 -293.816 256.757C-192.579 103.276 -18.6168 2 179 2C491.593 2 745 255.407 745 568ZM178.998 998.174C416.576 998.174 609.172 805.578 609.172 568C609.172 437.415 550.986 320.421 459.127 241.528C459.659 241.119 460.136 240.641 460.543 240.107C552.764 319.366 611.172 436.862 611.172 568C611.172 806.683 417.681 1000.17 178.998 1000.17C-59.685 1000.17 -253.176 806.683 -253.176 568C-253.176 329.317 -59.685 135.826 178.998 135.826C281.127 135.826 374.983 171.252 448.946 230.485C448.498 230.981 448.115 231.536 447.81 232.138C374.171 173.124 280.707 137.826 178.998 137.826C-58.5804 137.826 -251.176 330.421 -251.176 568C-251.176 805.578 -58.5804 998.174 178.998 998.174ZM473.348 568C473.348 730.564 341.564 862.348 179 862.348C16.4362 862.348 -115.348 730.564 -115.348 568C-115.348 405.436 16.4362 273.652 179 273.652C341.564 273.652 473.348 405.436 473.348 568ZM475.348 568C475.348 731.668 342.668 864.348 179 864.348C15.3316 864.348 -117.348 731.668 -117.348 568C-117.348 404.332 15.3316 271.652 179 271.652C342.668 271.652 475.348 404.332 475.348 568ZM337.52 568C337.52 655.549 266.547 726.522 178.998 726.522C91.4492 726.522 20.4766 655.549 20.4766 568C20.4766 480.451 91.4492 409.479 178.998 409.479C196.142 409.479 212.649 412.2 228.113 417.234C228.23 416.564 228.436 415.924 228.717 415.327C213.063 410.232 196.352 407.479 178.998 407.479C90.3446 407.479 18.4766 479.347 18.4766 568C18.4766 656.654 90.3446 728.522 178.998 728.522C267.652 728.522 339.52 656.654 339.52 568C339.52 502.012 299.703 445.324 242.783 420.651C242.594 421.301 242.319 421.915 241.973 422.48C298.191 446.842 337.52 502.828 337.52 568Z" fill="#D7E5FF"/>
</svg>
