<svg width="320" height="349" viewBox="0 0 320 349" fill="none" xmlns="http://www.w3.org/2000/svg">
<path opacity="0.6" fill-rule="evenodd" clip-rule="evenodd" d="M160.491 346.982C255.755 346.982 332.982 269.755 332.982 174.491C332.982 79.2268 255.755 2 160.491 2C109.384 2 63.4689 24.2261 31.8835 59.5394C31.4954 58.9906 31.0174 58.5099 30.4711 58.1186C62.4203 22.4469 108.834 0 160.491 0C256.859 0 334.982 78.1222 334.982 174.491C334.982 270.859 256.859 348.982 160.491 348.982C64.1222 348.982 -14 270.859 -14 174.491C-14 134.08 -0.262918 96.878 22.7962 67.2993C23.275 67.7655 23.8314 68.1523 24.4441 68.4387C1.60729 97.6927 -12 134.503 -12 174.491C-12 269.755 65.2268 346.982 160.491 346.982ZM273.981 174.5C273.981 237.184 223.166 288 160.481 288C97.7971 288 46.9814 237.184 46.9814 174.5C46.9814 128.144 74.7712 88.2794 114.6 70.656C114.306 70.0608 114.107 69.4098 114.025 68.7232C73.3694 86.6046 44.9814 127.237 44.9814 174.5C44.9814 238.289 96.6926 290 160.481 290C224.27 290 275.981 238.289 275.981 174.5C275.981 110.711 224.27 59 160.481 59C148.071 59 136.117 60.9575 124.912 64.5805C125.294 65.1296 125.586 65.7453 125.768 66.4068C136.709 62.8958 148.374 61 160.481 61C223.166 61 273.981 111.816 273.981 174.5ZM220.981 174.5C220.981 207.913 193.895 235 160.481 235C127.068 235 99.9814 207.913 99.9814 174.5C99.9814 141.087 127.068 114 160.481 114C193.895 114 220.981 141.087 220.981 174.5ZM222.981 174.5C222.981 209.018 194.999 237 160.481 237C125.964 237 97.9814 209.018 97.9814 174.5C97.9814 139.982 125.964 112 160.481 112C194.999 112 222.981 139.982 222.981 174.5Z" fill="#D7E5FF"/>
</svg>
