<svg width="32" height="32" viewBox="0 0 32 32" fill="none" xmlns="http://www.w3.org/2000/svg">
<path d="M6.74693 20.2303C6.74693 22.0902 5.24492 23.5934 3.38649 23.5934C1.52806 23.5934 0.0260468 22.0902 0.0260468 20.2303C0.0260468 18.3704 1.52806 16.8672 3.38649 16.8672H6.74693V20.2303Z" fill="#E01E5A"/>
<path d="M8.42799 20.2303C8.42799 18.3704 9.93001 16.8672 11.7884 16.8672C13.6469 16.8672 15.1489 18.3704 15.1489 20.2303V28.638C15.1489 30.4979 13.6469 32.0011 11.7884 32.0011C9.93001 32.0011 8.42799 30.4979 8.42799 28.638V20.2303Z" fill="#E01E5A"/>
<path d="M11.7878 6.72618C9.92935 6.72618 8.42734 5.22298 8.42734 3.36309C8.42734 1.5032 9.92935 0 11.7878 0C13.6462 0 15.1482 1.5032 15.1482 3.36309V6.72618H11.7878Z" fill="#36C5F0"/>
<path d="M11.787 8.43359C13.6454 8.43359 15.1475 9.93679 15.1475 11.7967C15.1475 13.6566 13.6454 15.1598 11.787 15.1598H3.36044C1.50202 15.1598 0 13.6566 0 11.7967C0 9.93679 1.50202 8.43359 3.36044 8.43359H11.787Z" fill="#36C5F0"/>
<path d="M25.2546 11.7967C25.2546 9.93679 26.7567 8.43359 28.6151 8.43359C30.4735 8.43359 31.9755 9.93679 31.9755 11.7967C31.9755 13.6566 30.4735 15.1598 28.6151 15.1598H25.2546V11.7967Z" fill="#2EB67D"/>
<path d="M23.5736 11.7963C23.5736 13.6562 22.0716 15.1594 20.2132 15.1594C18.3547 15.1594 16.8527 13.6562 16.8527 11.7963V3.36309C16.8527 1.5032 18.3547 0 20.2132 0C22.0716 0 23.5736 1.5032 23.5736 3.36309V11.7963Z" fill="#2EB67D"/>
<path d="M20.2132 25.2734C22.0716 25.2734 23.5736 26.7766 23.5736 28.6365C23.5736 30.4964 22.0716 31.9996 20.2132 31.9996C18.3547 31.9996 16.8527 30.4964 16.8527 28.6365V25.2734H20.2132Z" fill="#ECB22E"/>
<path d="M20.2132 23.5934C18.3547 23.5934 16.8527 22.0902 16.8527 20.2303C16.8527 18.3704 18.3547 16.8672 20.2132 16.8672H28.6397C30.4981 16.8672 32.0002 18.3704 32.0002 20.2303C32.0002 22.0902 30.4981 23.5934 28.6397 23.5934H20.2132Z" fill="#ECB22E"/>
</svg>
