<svg width="1360" height="246" viewBox="0 0 1360 246" fill="none" xmlns="http://www.w3.org/2000/svg">
<mask id="mask0" mask-type="alpha" maskUnits="userSpaceOnUse" x="0" y="0" width="1360" height="246">
<rect width="1360" height="246" fill="#C4C4C4"/>
</mask>
<g mask="url(#mask0)">
<rect width="1607.57" height="470.399" transform="matrix(0.989963 -0.141326 -0.137052 -0.990564 -83 469.19)" fill="#F0F7FF"/>
<rect width="1607.57" height="470.399" transform="matrix(0.989963 -0.141326 -0.137052 -0.990564 -111 237.19)" fill="white"/>
<path opacity="0.6" d="M1055.23 94.7752C1053.38 81.6494 1062.53 69.5134 1075.65 67.6686L1380.95 24.7619C1394.08 22.9172 1406.21 32.0624 1408.06 45.1882C1409.9 58.3141 1400.76 70.4501 1387.63 72.2948L1082.33 115.201C1069.21 117.046 1057.07 107.901 1055.23 94.7752Z" fill="url(#paint0_linear)"/>
<path d="M1193.81 38.6606C1192.89 32.0976 1197.46 26.0296 1204.02 25.1073L1662.52 -39.33C1669.08 -40.2524 1675.15 -35.6798 1676.07 -29.1169C1676.99 -22.554 1672.42 -16.486 1665.86 -15.5636L1207.36 48.8737C1200.8 49.7961 1194.73 45.2235 1193.81 38.6606Z" fill="url(#paint1_linear)"/>
</g>
<defs>
<linearGradient id="paint0_linear" x1="1073.23" y1="114.299" x2="1299.25" y2="-48.2153" gradientUnits="userSpaceOnUse">
<stop stop-color="#020084"/>
<stop offset="1" stop-color="#D2E4FF"/>
</linearGradient>
<linearGradient id="paint1_linear" x1="1215.78" y1="46.5999" x2="1281.36" y2="-84.7641" gradientUnits="userSpaceOnUse">
<stop stop-color="#D7E5FF"/>
<stop offset="1" stop-color="#F0F2F6" stop-opacity="0"/>
</linearGradient>
</defs>
</svg>
