<svg width="24" height="25" viewBox="0 0 24 25" fill="none" xmlns="http://www.w3.org/2000/svg">
    <g clip-path="url(#clip0_4150_500)">
        <path d="M21.6562 0.0556641H2.34375C1.04933 0.0556641 0 1.105 0 2.39941V21.7119C0 23.0063 1.04933 24.0557 2.34375 24.0557H21.6562C22.9507 24.0557 24 23.0063 24 21.7119V2.39941C24 1.105 22.9507 0.0556641 21.6562 0.0556641Z" fill="url(#paint0_linear_4150_500)" />
        <path d="M19.7497 3.17578H14.6797C14.0584 3.17578 13.5547 3.67946 13.5547 4.30078V12.5508C13.5547 13.1721 14.0584 13.6758 14.6797 13.6758H19.7497C20.371 13.6758 20.8747 13.1721 20.8747 12.5508V4.30078C20.8747 3.67946 20.371 3.17578 19.7497 3.17578Z" fill="white" />
        <path d="M9.3161 3.17578H4.24609C3.62477 3.17578 3.12109 3.67946 3.12109 4.30078V18.5508C3.12109 19.1721 3.62477 19.6758 4.24609 19.6758H9.3161C9.93742 19.6758 10.4411 19.1721 10.4411 18.5508V4.30078C10.4411 3.67946 9.93742 3.17578 9.3161 3.17578Z" fill="white" />
    </g>
    <defs>
        <linearGradient id="paint0_linear_4150_500" x1="12" y1="0.0556641" x2="12" y2="24.0557" gradientUnits="userSpaceOnUse">
            <stop stop-color="#0091E6" />
            <stop offset="1" stop-color="#0079BF" />
        </linearGradient>
        <clipPath id="clip0_4150_500">
            <rect width="24" height="24" fill="white" transform="translate(0 0.0556641)" />
        </clipPath>
    </defs>
</svg>
    