<svg width="20" height="21" viewBox="0 0 20 21" fill="none" xmlns="http://www.w3.org/2000/svg">
    <g clip-path="url(#clip0_4150_520)">
        <path fill-rule="evenodd" clip-rule="evenodd" d="M7.3368 0.0546875C6.23123 0.055503 5.33648 0.950916 5.33729 2.05428C5.33648 3.15764 6.23205 4.05306 7.33762 4.05387H9.33795V2.0551C9.33876 0.951731 8.44319 0.0563185 7.3368 0.0546875C7.33762 0.0546875 7.33762 0.0546875 7.3368 0.0546875V0.0546875ZM7.3368 5.38802H2.00423C0.898662 5.38884 0.00309136 6.28425 0.00390848 7.38761C0.00227423 8.49098 0.897845 9.38639 2.00342 9.38802H7.3368C8.44238 9.38721 9.33795 8.49179 9.33713 7.38843C9.33795 6.28425 8.44238 5.38884 7.3368 5.38802V5.38802Z" fill="#36C5F0" />
        <path fill-rule="evenodd" clip-rule="evenodd" d="M20.0051 7.38761C20.0059 6.28425 19.1103 5.38884 18.0047 5.38802C16.8992 5.38884 16.0036 6.28425 16.0044 7.38761V9.38802H18.0047C19.1103 9.38721 20.0059 8.49179 20.0051 7.38761ZM14.6717 7.38761V2.05428C14.6725 0.951731 13.7778 0.0563185 12.6722 0.0546875C11.5666 0.055503 10.6711 0.950916 10.6719 2.05428V7.38761C10.6702 8.49098 11.5658 9.38639 12.6714 9.38802C13.7769 9.38721 14.6725 8.49179 14.6717 7.38761Z" fill="#2EB67D" />
        <path fill-rule="evenodd" clip-rule="evenodd" d="M12.6722 20.0548C13.7778 20.054 14.6733 19.1586 14.6725 18.0553C14.6733 16.9519 13.7778 16.0565 12.6722 16.0557H10.6719V18.0553C10.6711 19.1578 11.5666 20.0532 12.6722 20.0548ZM12.6722 14.7207H18.0056C19.1111 14.7199 20.0067 13.8245 20.0059 12.7211C20.0075 11.6177 19.1119 10.7223 18.0064 10.7207H12.673C11.5674 10.7215 10.6719 11.6169 10.6727 12.7203C10.6719 13.8245 11.5666 14.7199 12.6722 14.7207V14.7207Z" fill="#ECB22E" />
        <path fill-rule="evenodd" clip-rule="evenodd" d="M0.00390681 12.7213C0.00308968 13.8246 0.898661 14.7201 2.00423 14.7209C3.10981 14.7201 4.00538 13.8246 4.00456 12.7213V10.7217H2.00423C0.898661 10.7225 0.00308968 11.6179 0.00390681 12.7213ZM5.33729 12.7213V18.0546C5.33566 19.158 6.23123 20.0534 7.3368 20.055C8.44238 20.0542 9.33795 19.1588 9.33713 18.0554V12.7229C9.33876 11.6195 8.44319 10.7241 7.33762 10.7225C6.23123 10.7225 5.33648 11.6179 5.33729 12.7213C5.33729 12.7221 5.33729 12.7213 5.33729 12.7213Z" fill="#E01E5A" />
    </g>
    <defs>
        <clipPath id="clip0_4150_520">
            <rect width="20" height="20" fill="white" transform="translate(0 0.0546875)" />
        </clipPath>
    </defs>
</svg>
    