<svg width="1122" height="528" viewBox="0 0 1122 528" fill="none" xmlns="http://www.w3.org/2000/svg">
    <path opacity="0.6" fill-rule="evenodd" clip-rule="evenodd" d="M0 0V374C0 396.644 18.3563 415 41 415H64V511C64 520.389 71.6112 528 81 528H321C330.389 528 338 520.389 338 511V416H456V511C456 520.389 463.611 528 473 528H713C722.389 528 730 520.389 730 511V416H848V511C848 520.389 855.611 528 865 528H1105C1114.39 528 1122 520.389 1122 511V319C1122 309.611 1114.39 302 1105 302H865C855.611 302 848 309.611 848 319V414H730V319C730 309.611 722.389 302 713 302H473C463.611 302 456 309.611 456 319V414H338V319C338 309.611 330.389 302 321 302H81C71.6112 302 64 309.611 64 319V413H41C19.4609 413 2 395.539 2 374V0H0ZM66 319C66 310.716 72.7157 304 81 304H321C329.284 304 336 310.716 336 319V511C336 519.284 329.284 526 321 526H81C72.7157 526 66 519.284 66 511V319ZM850 319C850 310.716 856.716 304 865 304H1105C1113.28 304 1120 310.716 1120 319V511C1120 519.284 1113.28 526 1105 526H865C856.716 526 850 519.284 850 511V319ZM473 304C464.716 304 458 310.716 458 319V511C458 519.284 464.716 526 473 526H713C721.284 526 728 519.284 728 511V319C728 310.716 721.284 304 713 304H473Z" fill="#D7E5FF" />
</svg>
    