<svg width="492" height="911" viewBox="0 0 492 911" fill="none" xmlns="http://www.w3.org/2000/svg">
<path opacity="0.6" fill-rule="evenodd" clip-rule="evenodd" d="M1001.13 455.5C1001.13 705.961 798.096 909 547.635 909C297.174 909 94.1348 705.961 94.1348 455.5C94.1348 367.656 119.111 285.645 162.35 216.181C161.723 215.925 161.149 215.568 160.649 215.128C117.221 284.898 92.1348 367.269 92.1348 455.5C92.1348 707.066 296.069 911 547.635 911C799.2 911 1003.13 707.066 1003.13 455.5C1003.13 203.934 799.2 0 547.635 0C388.583 0 248.571 81.5202 167.102 205.058C167.719 205.334 168.281 205.71 168.768 206.166C249.878 83.1659 389.278 2 547.635 2C798.096 2 1001.13 205.039 1001.13 455.5ZM547.633 800.076C737.937 800.076 892.209 645.804 892.209 455.5C892.209 350.865 845.571 257.123 771.947 193.928C772.51 193.553 773.006 193.087 773.414 192.551C847.37 256.111 894.209 350.336 894.209 455.5C894.209 646.909 739.042 802.076 547.633 802.076C356.224 802.076 201.057 646.909 201.057 455.5C201.057 264.091 356.224 108.924 547.633 108.924C629.534 108.924 704.801 137.333 764.114 184.835C763.665 185.332 763.297 185.904 763.031 186.53C704.034 139.222 629.138 110.924 547.633 110.924C357.329 110.924 203.057 265.196 203.057 455.5C203.057 645.804 357.329 800.076 547.633 800.076ZM783.287 455.501C783.287 585.648 677.782 691.153 547.635 691.153C417.488 691.153 311.983 585.648 311.983 455.501C311.983 325.353 417.488 219.848 547.635 219.848C677.782 219.848 783.287 325.353 783.287 455.501ZM785.287 455.501C785.287 586.752 678.887 693.153 547.635 693.153C416.383 693.153 309.983 586.752 309.983 455.501C309.983 324.249 416.383 217.848 547.635 217.848C678.887 217.848 785.287 324.249 785.287 455.501ZM674.362 455.5C674.362 525.49 617.624 582.229 547.634 582.229C477.643 582.229 420.905 525.49 420.905 455.5C420.905 385.51 477.643 328.772 547.634 328.772C561.363 328.772 574.582 330.955 586.964 334.994C587.037 334.311 587.223 333.661 587.505 333.066C574.951 328.98 561.55 326.772 547.634 326.772C476.539 326.772 418.905 384.406 418.905 455.5C418.905 526.595 476.539 584.229 547.634 584.229C618.728 584.229 676.362 526.595 676.362 455.5C676.362 402.582 644.43 357.121 598.784 337.335C598.594 337.988 598.297 338.596 597.913 339.138C642.891 358.599 674.362 403.374 674.362 455.5Z" fill="#D7E5FF"/>
<g filter="url(#filter0_d_5113_21587)">
<circle cx="164.311" cy="210.108" r="3.20775" fill="#FFA600"/>
</g>
<g opacity="0.1" filter="url(#filter1_f_5113_21587)">
<rect x="212.369" y="253.361" width="77.8413" height="77.8413" rx="38.9207" fill="#343C7B"/>
</g>
<circle cx="245.733" cy="286.721" r="38.9207" fill="white"/>
<g clip-path="url(#clip0_5113_21587)">
<path fill-rule="evenodd" clip-rule="evenodd" d="M241.287 270.041C239.443 270.042 237.951 271.536 237.952 273.376C237.951 275.217 239.444 276.71 241.289 276.712H244.625V273.378C244.626 271.537 243.133 270.044 241.287 270.041C241.289 270.041 241.289 270.041 241.287 270.041V270.041ZM241.287 278.937H232.392C230.548 278.939 229.054 280.432 229.056 282.273C229.053 284.113 230.547 285.607 232.391 285.609H241.287C243.131 285.608 244.625 284.114 244.624 282.274C244.625 280.432 243.131 278.939 241.287 278.937Z" fill="#36C5F0"/>
<path fill-rule="evenodd" clip-rule="evenodd" d="M262.417 282.273C262.418 280.432 260.924 278.939 259.08 278.937C257.236 278.939 255.742 280.432 255.743 282.273V285.609H259.08C260.924 285.608 262.418 284.114 262.417 282.273ZM253.52 282.273V273.376C253.522 271.537 252.029 270.044 250.185 270.041C248.341 270.042 246.847 271.536 246.849 273.376V282.273C246.846 284.113 248.34 285.607 250.184 285.609C252.028 285.608 253.522 284.114 253.52 282.273Z" fill="#2EB67D"/>
<path fill-rule="evenodd" clip-rule="evenodd" d="M250.185 303.402C252.029 303.4 253.523 301.907 253.522 300.066C253.523 298.226 252.029 296.732 250.185 296.731H246.849V300.066C246.847 301.905 248.341 303.399 250.185 303.402ZM250.185 294.504H259.081C260.926 294.503 262.419 293.009 262.418 291.169C262.421 289.328 260.927 287.835 259.083 287.832H250.187C248.342 287.833 246.849 289.327 246.85 291.167C246.849 293.009 248.341 294.503 250.185 294.504Z" fill="#ECB22E"/>
<path fill-rule="evenodd" clip-rule="evenodd" d="M229.056 291.169C229.054 293.01 230.548 294.503 232.392 294.505C234.236 294.503 235.73 293.01 235.729 291.169V287.834H232.392C230.548 287.835 229.054 289.329 229.056 291.169ZM237.952 291.169V300.066C237.949 301.906 239.443 303.4 241.287 303.402C243.131 303.401 244.625 301.907 244.624 300.067V291.172C244.626 289.332 243.133 287.838 241.289 287.835C239.443 287.835 237.951 289.329 237.952 291.169C237.952 291.169 237.952 291.171 237.952 291.169Z" fill="#E01E5A"/>
</g>
<g opacity="0.1" filter="url(#filter2_f_5113_21587)">
<rect x="338" y="726" width="77.8413" height="77.8413" rx="38.9207" fill="#343C7B"/>
</g>
<circle cx="367.443" cy="756.439" r="25" fill="white"/>
<g clip-path="url(#clip1_5113_21587)">
<path fill-rule="evenodd" clip-rule="evenodd" d="M364.708 743.158C365.666 742.2 367.22 742.2 368.179 743.158L377.724 752.704C378.683 753.662 378.683 755.216 377.724 756.175L368.179 765.721C367.22 766.679 365.666 766.679 364.708 765.721L355.162 756.175C354.204 755.216 354.204 753.662 355.162 752.704L364.708 743.158ZM358.075 753.51C357.562 754.023 357.562 754.856 358.075 755.369C358.589 755.883 359.421 755.883 359.935 755.369L364.088 751.216C364.601 750.703 364.601 749.87 364.088 749.357C363.574 748.843 362.742 748.843 362.228 749.357L358.075 753.51ZM367.373 747.931C366.859 748.445 366.027 748.445 365.513 747.931C365 747.418 365 746.585 365.513 746.072C366.027 745.558 366.86 745.558 367.373 746.072C367.887 746.585 367.886 747.418 367.373 747.931ZM371.092 749.791C370.579 749.277 369.746 749.277 369.232 749.791L361.795 757.229C361.281 757.742 361.281 758.575 361.795 759.088C362.308 759.602 363.141 759.602 363.654 759.088L371.092 751.65C371.605 751.137 371.605 750.304 371.092 749.791ZM372.952 753.51C373.465 752.996 374.298 752.996 374.811 753.51C375.324 754.023 375.324 754.856 374.811 755.369L370.658 759.522C370.145 760.036 369.312 760.036 368.799 759.522C368.285 759.009 368.285 758.176 368.799 757.663L372.952 753.51ZM367.373 760.948C366.86 760.434 366.027 760.434 365.514 760.948C365 761.461 365 762.294 365.514 762.807C366.027 763.321 366.86 763.321 367.373 762.807C367.887 762.294 367.887 761.461 367.373 760.948Z" fill="#FB310A"/>
</g>
<g opacity="0.1" filter="url(#filter3_f_5113_21587)">
<rect x="434.294" y="340.557" width="58.8087" height="58.8087" rx="29.4043" fill="#343C7B"/>
</g>
<circle cx="458.354" cy="364.615" r="29.4043" fill="white"/>
<g clip-path="url(#clip2_5113_21587)">
<path d="M466.961 353.922H449.752C448.599 353.922 447.664 354.857 447.664 356.01V373.218C447.664 374.372 448.599 375.307 449.752 375.307H466.961C468.114 375.307 469.049 374.372 469.049 373.218V356.01C469.049 354.857 468.114 353.922 466.961 353.922Z" fill="url(#paint0_linear_5113_21587)"/>
<path d="M465.262 356.701H460.745C460.191 356.701 459.742 357.15 459.742 357.704V365.055C459.742 365.608 460.191 366.057 460.745 366.057H465.262C465.816 366.057 466.265 365.608 466.265 365.055V357.704C466.265 357.15 465.816 356.701 465.262 356.701Z" fill="white"/>
<path d="M455.964 356.701H451.447C450.893 356.701 450.444 357.15 450.444 357.704V370.401C450.444 370.955 450.893 371.403 451.447 371.403H455.964C456.518 371.403 456.967 370.955 456.967 370.401V357.704C456.967 357.15 456.518 356.701 455.964 356.701Z" fill="white"/>
</g>
<g opacity="0.1" filter="url(#filter4_f_5113_21587)">
<rect x="203.337" y="107.993" width="58.8087" height="58.8087" rx="29.4043" fill="#343C7B"/>
</g>
<circle cx="227.397" cy="132.052" r="29.4043" fill="white"/>
<g clip-path="url(#clip3_5113_21587)">
<path d="M225.473 124.794C226.36 123.87 227.594 123.297 228.96 123.297C230.775 123.297 232.358 124.309 233.201 125.812C233.934 125.484 234.745 125.302 235.599 125.302C238.872 125.302 241.526 127.979 241.526 131.281C241.526 134.584 238.872 137.261 235.599 137.261C235.207 137.261 234.816 137.222 234.431 137.145C233.689 138.469 232.274 139.364 230.649 139.364C229.969 139.364 229.326 139.207 228.754 138.928C228.001 140.699 226.247 141.94 224.203 141.94C222.074 141.94 220.26 140.593 219.564 138.704C219.259 138.769 218.944 138.803 218.62 138.803C216.086 138.803 214.031 136.727 214.031 134.166C214.031 132.449 214.954 130.951 216.326 130.149C216.044 129.499 215.887 128.782 215.887 128.028C215.887 125.083 218.278 122.695 221.227 122.695C222.959 122.695 224.497 123.519 225.473 124.794Z" fill="#00A1E0"/>
<path d="M218.012 132.676C217.995 132.721 218.018 132.73 218.024 132.738C218.076 132.776 218.128 132.803 218.181 132.833C218.461 132.982 218.726 133.025 219.003 133.025C219.567 133.025 219.917 132.725 219.917 132.242V132.233C219.917 131.786 219.522 131.624 219.151 131.507L219.103 131.492C218.823 131.401 218.582 131.322 218.582 131.138V131.128C218.582 130.971 218.723 130.855 218.942 130.855C219.184 130.855 219.473 130.936 219.658 131.038C219.658 131.038 219.713 131.074 219.733 131.021C219.744 130.993 219.838 130.74 219.847 130.712C219.858 130.682 219.839 130.66 219.82 130.649C219.608 130.52 219.315 130.432 219.012 130.432L218.956 130.432C218.439 130.432 218.079 130.744 218.079 131.191V131.2C218.079 131.671 218.477 131.824 218.849 131.931L218.909 131.949C219.18 132.032 219.414 132.104 219.414 132.295V132.305C219.414 132.479 219.262 132.609 219.017 132.609C218.922 132.609 218.618 132.607 218.291 132.4C218.251 132.377 218.228 132.36 218.197 132.342C218.181 132.332 218.141 132.314 218.123 132.367L218.012 132.676ZM226.269 132.676C226.251 132.721 226.275 132.73 226.28 132.738C226.332 132.776 226.385 132.803 226.438 132.833C226.718 132.982 226.983 133.025 227.26 133.025C227.824 133.025 228.174 132.725 228.174 132.242V132.233C228.174 131.786 227.779 131.624 227.408 131.507L227.36 131.492C227.08 131.401 226.839 131.322 226.839 131.138V131.128C226.839 130.971 226.98 130.855 227.198 130.855C227.441 130.855 227.729 130.936 227.915 131.038C227.915 131.038 227.969 131.074 227.989 131.021C228 130.993 228.094 130.74 228.104 130.712C228.115 130.682 228.096 130.66 228.077 130.649C227.865 130.52 227.572 130.432 227.269 130.432L227.212 130.432C226.696 130.432 226.336 130.744 226.336 131.191V131.2C226.336 131.671 226.733 131.824 227.106 131.931L227.166 131.949C227.437 132.032 227.671 132.104 227.671 132.295V132.305C227.671 132.479 227.519 132.609 227.274 132.609C227.179 132.609 226.875 132.607 226.547 132.4C226.508 132.377 226.484 132.361 226.454 132.342C226.444 132.335 226.396 132.317 226.38 132.367L226.269 132.676ZM231.905 131.73C231.905 132.003 231.854 132.218 231.754 132.37C231.655 132.52 231.505 132.594 231.296 132.594C231.086 132.594 230.937 132.521 230.84 132.37C230.741 132.218 230.691 132.003 230.691 131.73C230.691 131.457 230.741 131.243 230.84 131.092C230.937 130.944 231.086 130.871 231.296 130.871C231.505 130.871 231.655 130.944 231.755 131.092C231.854 131.243 231.905 131.457 231.905 131.73ZM232.376 131.224C232.33 131.068 232.258 130.93 232.162 130.815C232.066 130.7 231.944 130.607 231.8 130.54C231.657 130.473 231.487 130.439 231.296 130.439C231.105 130.439 230.935 130.473 230.791 130.54C230.647 130.607 230.526 130.7 230.429 130.815C230.334 130.93 230.262 131.068 230.215 131.224C230.169 131.379 230.146 131.549 230.146 131.73C230.146 131.911 230.169 132.081 230.215 132.236C230.262 132.392 230.333 132.53 230.43 132.645C230.526 132.76 230.647 132.852 230.791 132.917C230.935 132.983 231.105 133.016 231.296 133.016C231.487 133.016 231.656 132.983 231.8 132.917C231.944 132.852 232.066 132.76 232.162 132.645C232.258 132.53 232.33 132.392 232.376 132.236C232.422 132.081 232.445 131.91 232.445 131.73C232.445 131.55 232.422 131.379 232.376 131.224ZM236.242 132.521C236.226 132.475 236.182 132.492 236.182 132.492C236.114 132.518 236.041 132.543 235.963 132.555C235.884 132.567 235.798 132.573 235.705 132.573C235.477 132.573 235.296 132.505 235.167 132.371C235.037 132.238 234.964 132.021 234.964 131.728C234.965 131.461 235.029 131.261 235.145 131.108C235.26 130.956 235.434 130.878 235.668 130.878C235.862 130.878 236.01 130.9 236.165 130.949C236.165 130.949 236.202 130.965 236.22 130.917C236.261 130.802 236.291 130.721 236.335 130.595C236.348 130.559 236.317 130.544 236.306 130.54C236.245 130.516 236.101 130.477 235.992 130.461C235.89 130.445 235.771 130.437 235.639 130.437C235.441 130.437 235.265 130.47 235.114 130.538C234.964 130.605 234.836 130.697 234.735 130.812C234.634 130.927 234.557 131.065 234.506 131.221C234.455 131.377 234.429 131.547 234.429 131.728C234.429 132.118 234.534 132.434 234.742 132.665C234.951 132.897 235.264 133.015 235.672 133.015C235.913 133.015 236.161 132.966 236.338 132.896C236.338 132.896 236.373 132.879 236.358 132.84L236.242 132.521ZM237.066 131.468C237.088 131.317 237.13 131.191 237.195 131.092C237.292 130.943 237.441 130.861 237.65 130.861C237.859 130.861 237.998 130.944 238.097 131.092C238.162 131.191 238.191 131.322 238.202 131.468H237.066ZM238.651 131.135C238.611 130.984 238.512 130.832 238.447 130.762C238.344 130.652 238.244 130.575 238.144 130.532C238.014 130.476 237.859 130.439 237.688 130.439C237.489 130.439 237.308 130.472 237.162 130.541C237.015 130.61 236.892 130.704 236.795 130.821C236.698 130.938 236.625 131.077 236.579 131.235C236.532 131.392 236.509 131.563 236.509 131.744C236.509 131.927 236.533 132.099 236.581 132.253C236.63 132.408 236.707 132.544 236.812 132.658C236.917 132.772 237.052 132.861 237.213 132.923C237.373 132.985 237.568 133.017 237.792 133.017C238.252 133.015 238.494 132.912 238.594 132.857C238.612 132.847 238.629 132.83 238.607 132.781L238.503 132.489C238.488 132.446 238.443 132.462 238.443 132.462C238.329 132.504 238.167 132.58 237.789 132.579C237.542 132.579 237.359 132.506 237.244 132.392C237.126 132.275 237.069 132.104 237.058 131.862L238.652 131.863C238.652 131.863 238.694 131.862 238.698 131.822C238.7 131.805 238.753 131.494 238.651 131.135ZM224.303 131.468C224.325 131.317 224.367 131.191 224.432 131.092C224.529 130.943 224.678 130.861 224.887 130.861C225.096 130.861 225.235 130.944 225.334 131.092C225.399 131.191 225.428 131.322 225.439 131.468H224.303ZM225.887 131.135C225.847 130.984 225.749 130.832 225.684 130.762C225.581 130.652 225.481 130.575 225.381 130.532C225.251 130.476 225.095 130.439 224.925 130.439C224.726 130.439 224.545 130.472 224.399 130.541C224.252 130.61 224.128 130.704 224.032 130.821C223.935 130.938 223.862 131.077 223.816 131.235C223.77 131.392 223.746 131.563 223.746 131.744C223.746 131.927 223.77 132.099 223.818 132.253C223.867 132.408 223.944 132.544 224.049 132.658C224.154 132.772 224.289 132.861 224.45 132.923C224.61 132.985 224.805 133.017 225.029 133.017C225.489 133.015 225.731 132.912 225.831 132.857C225.849 132.847 225.866 132.83 225.844 132.781L225.741 132.489C225.725 132.446 225.68 132.462 225.68 132.462C225.566 132.504 225.405 132.58 225.026 132.579C224.779 132.579 224.596 132.506 224.481 132.392C224.363 132.275 224.306 132.104 224.295 131.862L225.889 131.863C225.889 131.863 225.931 131.862 225.935 131.822C225.937 131.805 225.99 131.494 225.887 131.135ZM220.858 132.512C220.796 132.462 220.787 132.45 220.766 132.418C220.735 132.369 220.719 132.299 220.719 132.21C220.719 132.07 220.765 131.969 220.861 131.902C220.86 131.902 220.998 131.782 221.323 131.787C221.551 131.79 221.755 131.823 221.755 131.823V132.548H221.756C221.756 132.548 221.553 132.591 221.325 132.605C221.001 132.625 220.857 132.512 220.858 132.512ZM221.492 131.392C221.427 131.387 221.344 131.385 221.243 131.385C221.107 131.385 220.975 131.402 220.851 131.435C220.726 131.469 220.614 131.521 220.518 131.59C220.422 131.658 220.343 131.748 220.287 131.852C220.231 131.957 220.202 132.081 220.202 132.22C220.202 132.361 220.226 132.483 220.275 132.584C220.323 132.684 220.393 132.768 220.483 132.833C220.571 132.897 220.681 132.945 220.807 132.973C220.932 133.002 221.074 133.016 221.229 133.016C221.393 133.016 221.556 133.003 221.713 132.976C221.87 132.949 222.062 132.911 222.115 132.899C222.152 132.89 222.189 132.88 222.226 132.87C222.266 132.86 222.263 132.818 222.263 132.818L222.262 131.36C222.262 131.041 222.177 130.804 222.009 130.657C221.841 130.511 221.595 130.436 221.277 130.436C221.157 130.436 220.965 130.453 220.85 130.476C220.85 130.476 220.502 130.543 220.358 130.655C220.358 130.655 220.327 130.675 220.344 130.719L220.457 131.022C220.471 131.061 220.509 131.048 220.509 131.048C220.509 131.048 220.521 131.043 220.535 131.035C220.842 130.868 221.23 130.873 221.23 130.873C221.402 130.873 221.534 130.908 221.624 130.976C221.711 131.043 221.755 131.143 221.755 131.356V131.423C221.618 131.404 221.492 131.392 221.492 131.392ZM234.346 130.571C234.358 130.535 234.332 130.518 234.322 130.514C234.295 130.503 234.159 130.475 234.055 130.468C233.855 130.456 233.743 130.49 233.644 130.534C233.545 130.579 233.436 130.651 233.374 130.733V130.539C233.374 130.512 233.355 130.49 233.329 130.49H232.92C232.894 130.49 232.874 130.512 232.874 130.539V132.916C232.874 132.943 232.896 132.964 232.923 132.964H233.342C233.354 132.964 233.367 132.959 233.376 132.95C233.385 132.941 233.39 132.929 233.39 132.916V131.728C233.39 131.569 233.407 131.41 233.443 131.31C233.477 131.211 233.524 131.132 233.582 131.075C233.64 131.019 233.707 130.98 233.779 130.957C233.853 130.934 233.935 130.927 233.993 130.927C234.076 130.927 234.168 130.949 234.168 130.949C234.199 130.952 234.216 130.933 234.226 130.905C234.253 130.833 234.331 130.614 234.346 130.571Z" fill="white"/>
<path d="M230.421 129.47C230.37 129.454 230.323 129.444 230.263 129.432C230.202 129.422 230.129 129.416 230.047 129.416C229.758 129.416 229.531 129.497 229.372 129.658C229.213 129.818 229.105 130.061 229.051 130.381L229.032 130.489H228.67C228.67 130.489 228.626 130.487 228.617 130.535L228.557 130.867C228.553 130.898 228.567 130.918 228.609 130.918H228.961L228.604 132.912C228.576 133.073 228.544 133.205 228.508 133.305C228.474 133.404 228.439 133.478 228.397 133.532C228.356 133.584 228.318 133.622 228.251 133.644C228.197 133.663 228.133 133.671 228.064 133.671C228.025 133.671 227.974 133.665 227.936 133.657C227.899 133.65 227.879 133.642 227.85 133.629C227.85 133.629 227.809 133.614 227.792 133.655C227.779 133.689 227.686 133.947 227.674 133.979C227.663 134.011 227.679 134.035 227.699 134.043C227.746 134.059 227.781 134.07 227.845 134.085C227.933 134.106 228.008 134.107 228.078 134.107C228.224 134.107 228.358 134.087 228.469 134.047C228.58 134.006 228.678 133.936 228.764 133.841C228.857 133.739 228.915 133.631 228.971 133.485C229.026 133.34 229.073 133.159 229.111 132.95L229.47 130.918H229.995C229.995 130.918 230.039 130.92 230.048 130.871L230.108 130.54C230.111 130.508 230.098 130.489 230.055 130.489H229.546C229.549 130.477 229.572 130.298 229.63 130.129C229.655 130.058 229.702 129.999 229.742 129.959C229.781 129.92 229.826 129.892 229.875 129.876C229.926 129.86 229.983 129.852 230.047 129.852C230.094 129.852 230.142 129.857 230.177 129.865C230.227 129.875 230.246 129.881 230.259 129.885C230.311 129.901 230.318 129.885 230.328 129.86L230.45 129.526C230.462 129.49 230.432 129.474 230.421 129.47ZM223.301 132.917C223.301 132.943 223.282 132.965 223.255 132.965H222.833C222.806 132.965 222.787 132.943 222.787 132.917V129.516C222.787 129.489 222.806 129.467 222.833 129.467H223.255C223.282 129.467 223.301 129.489 223.301 129.516V132.917Z" fill="white"/>
</g>
<g opacity="0.1" filter="url(#filter5_f_5113_21587)">
<rect x="74.2256" y="359" width="58.8087" height="58.8087" rx="29.4043" fill="#343C7B"/>
</g>
<circle cx="98.2852" cy="383.059" r="29.4043" fill="white"/>
<g clip-path="url(#clip4_5113_21587)">
<path d="M106.365 374.658H97.1699C97.1699 375.759 97.6072 376.815 98.3856 377.593C99.164 378.372 100.22 378.809 101.321 378.809H103.014V380.444C103.016 382.735 104.872 384.591 107.162 384.592V375.456C107.162 375.015 106.805 374.658 106.365 374.658Z" fill="#2684FF"/>
<path d="M101.814 379.24H92.6191C92.6206 381.53 94.4768 383.387 96.7671 383.388H98.4609V385.029C98.4638 387.319 100.321 389.174 102.612 389.174V380.038C102.612 379.597 102.254 379.24 101.814 379.24V379.24Z" fill="url(#paint1_linear_5113_21587)"/>
<path d="M97.2622 383.818H88.0674C88.0674 386.111 89.9258 387.969 92.218 387.969H93.9171V389.604C93.9186 391.893 95.7716 393.748 98.0599 393.752V384.616C98.0599 384.176 97.7027 383.818 97.2622 383.818Z" fill="url(#paint2_linear_5113_21587)"/>
</g>
<g opacity="0.1" filter="url(#filter6_f_5113_21587)">
<rect x="373.347" y="243.521" width="58.8087" height="58.8087" rx="29.4043" fill="#343C7B"/>
</g>
<circle cx="397.406" cy="267.58" r="29.4043" fill="white"/>
<g clip-path="url(#clip5_5113_21587)">
<path d="M402.772 264.126V261.614C403.104 261.459 403.385 261.213 403.582 260.904C403.78 260.596 403.886 260.238 403.887 259.871V259.814C403.887 258.745 403.021 257.88 401.953 257.88H401.896C400.827 257.88 399.962 258.745 399.962 259.814V259.871C399.963 260.238 400.069 260.596 400.266 260.904C400.464 261.213 400.745 261.459 401.077 261.614V264.126C400.123 264.272 399.225 264.667 398.473 265.272L391.585 259.907C391.634 259.73 391.66 259.548 391.663 259.365C391.663 258.934 391.536 258.512 391.298 258.153C391.059 257.795 390.719 257.515 390.321 257.349C389.923 257.183 389.485 257.139 389.062 257.223C388.639 257.306 388.251 257.513 387.945 257.817C387.64 258.122 387.432 258.51 387.347 258.932C387.262 259.355 387.305 259.793 387.469 260.192C387.634 260.59 387.913 260.931 388.271 261.171C388.629 261.411 389.05 261.539 389.481 261.54C389.858 261.538 390.228 261.437 390.554 261.248L397.336 266.525C396.089 268.409 396.123 270.864 397.42 272.713L395.357 274.777C395.191 274.723 395.017 274.695 394.842 274.693C393.854 274.694 393.054 275.495 393.054 276.483C393.054 277.471 393.855 278.271 394.843 278.272C395.831 278.272 396.632 277.471 396.633 276.484C396.63 276.308 396.602 276.135 396.549 275.968L398.589 273.927C400.413 275.33 402.917 275.451 404.867 274.23C406.818 273.008 407.802 270.702 407.335 268.449C406.867 266.196 405.047 264.471 402.772 264.126V264.126ZM401.926 272.386C401.549 272.396 401.174 272.33 400.823 272.193C400.471 272.056 400.151 271.849 399.881 271.586C399.611 271.323 399.396 271.009 399.249 270.661C399.103 270.314 399.027 269.941 399.027 269.563C399.027 269.186 399.103 268.813 399.249 268.465C399.396 268.118 399.611 267.803 399.881 267.54C400.151 267.277 400.471 267.071 400.823 266.934C401.174 266.796 401.549 266.731 401.926 266.741C403.446 266.794 404.65 268.041 404.651 269.561C404.651 271.082 403.448 272.329 401.929 272.384" fill="#FF7A59"/>
</g>
<g opacity="0.1" filter="url(#filter7_f_5113_21587)">
<rect x="133.345" y="672.346" width="58.8087" height="58.8087" rx="29.4043" fill="#343C7B"/>
</g>
<circle cx="157.404" cy="696.404" r="29.4043" fill="white"/>
<g clip-path="url(#clip6_5113_21587)">
<path d="M165.594 687.051H149.219C147.838 687.051 146.714 688.033 146.714 689.25V703.683C146.714 704.9 147.838 705.882 149.219 705.882H163.076L162.429 703.907L163.993 705.178L165.472 706.373L168.099 708.402V689.25C168.099 688.033 166.975 687.051 165.594 687.051ZM160.877 700.993C160.877 700.993 160.437 700.534 160.07 700.128C161.671 699.733 162.282 698.858 162.282 698.858C161.781 699.146 161.305 699.349 160.877 699.488C160.266 699.712 159.679 699.861 159.105 699.947C157.932 700.139 156.856 700.085 155.94 699.936C155.243 699.818 154.645 699.648 154.144 699.477C153.863 699.381 153.557 699.263 153.251 699.114C153.215 699.093 153.178 699.082 153.142 699.061C153.117 699.05 153.105 699.039 153.093 699.029C152.873 698.922 152.751 698.847 152.751 698.847C152.751 698.847 153.337 699.701 154.889 700.107C154.522 700.512 154.07 700.993 154.07 700.993C151.37 700.918 150.343 699.37 150.343 699.37C150.343 695.933 152.103 693.146 152.103 693.146C153.863 691.993 155.537 692.025 155.537 692.025L155.659 692.154C153.459 692.709 152.445 693.552 152.445 693.552C152.445 693.552 152.714 693.424 153.166 693.243C154.474 692.741 155.512 692.602 155.94 692.57C156.013 692.559 156.074 692.549 156.148 692.549C156.967 692.455 157.795 692.448 158.616 692.527C159.777 692.645 161.024 692.944 162.294 693.552C162.294 693.552 161.329 692.751 159.252 692.196L159.423 692.026C159.423 692.026 161.097 691.993 162.856 693.146C162.856 693.146 164.616 695.933 164.616 699.37C164.616 699.37 163.577 700.918 160.877 700.993V700.993ZM155.195 696.007C154.498 696.007 153.948 696.541 153.948 697.192C153.948 697.844 154.51 698.377 155.195 698.377C155.891 698.377 156.441 697.844 156.441 697.192C156.453 696.541 155.891 696.007 155.195 696.007H155.195ZM159.655 696.007C158.958 696.007 158.408 696.541 158.408 697.192C158.408 697.844 158.971 698.377 159.655 698.377C160.351 698.377 160.901 697.844 160.901 697.192C160.901 696.541 160.351 696.007 159.655 696.007Z" fill="#7289DA"/>
</g>
<g opacity="0.1" filter="url(#filter8_f_5113_21587)">
<rect x="307.703" y="533.705" width="60.2966" height="60.2966" rx="30.1483" fill="#343C7B"/>
</g>
<circle cx="333.547" cy="559.547" r="30.1483" fill="white"/>
<g clip-path="url(#clip7_5113_21587)">
<path d="M340.848 560.258C337.743 560.258 335.227 562.81 335.227 565.957C335.227 569.105 337.743 571.658 340.848 571.658C343.951 571.658 346.467 569.105 346.467 565.957C346.467 562.81 343.951 560.258 340.848 560.258ZM326.246 560.258C323.142 560.258 320.626 562.81 320.626 565.958C320.626 569.105 323.142 571.657 326.246 571.657C329.35 571.657 331.866 569.105 331.866 565.958C331.866 562.81 329.35 560.258 326.246 560.258H326.246ZM339.167 553.133C339.167 556.281 336.651 558.834 333.547 558.834C330.443 558.834 327.927 556.281 327.927 553.133C327.927 549.986 330.443 547.434 333.547 547.434C336.651 547.434 339.166 549.986 339.166 553.133H339.167Z" fill="url(#paint3_radial_5113_21587)"/>
</g>
<defs>
<filter id="filter0_d_5113_21587" x="156.104" y="201.9" width="16.415" height="16.416" filterUnits="userSpaceOnUse" color-interpolation-filters="sRGB">
<feFlood flood-opacity="0" result="BackgroundImageFix"/>
<feColorMatrix in="SourceAlpha" type="matrix" values="0 0 0 0 0 0 0 0 0 0 0 0 0 0 0 0 0 0 127 0" result="hardAlpha"/>
<feOffset/>
<feGaussianBlur stdDeviation="2.5"/>
<feColorMatrix type="matrix" values="0 0 0 0 1 0 0 0 0 0.65098 0 0 0 0 0 0 0 0 0.8 0"/>
<feBlend mode="normal" in2="BackgroundImageFix" result="effect1_dropShadow_5113_21587"/>
<feBlend mode="normal" in="SourceGraphic" in2="effect1_dropShadow_5113_21587" result="shape"/>
</filter>
<filter id="filter1_f_5113_21587" x="138.369" y="179.361" width="225.842" height="225.842" filterUnits="userSpaceOnUse" color-interpolation-filters="sRGB">
<feFlood flood-opacity="0" result="BackgroundImageFix"/>
<feBlend mode="normal" in="SourceGraphic" in2="BackgroundImageFix" result="shape"/>
<feGaussianBlur stdDeviation="37" result="effect1_foregroundBlur_5113_21587"/>
</filter>
<filter id="filter2_f_5113_21587" x="264" y="652" width="225.842" height="225.842" filterUnits="userSpaceOnUse" color-interpolation-filters="sRGB">
<feFlood flood-opacity="0" result="BackgroundImageFix"/>
<feBlend mode="normal" in="SourceGraphic" in2="BackgroundImageFix" result="shape"/>
<feGaussianBlur stdDeviation="37" result="effect1_foregroundBlur_5113_21587"/>
</filter>
<filter id="filter3_f_5113_21587" x="360.294" y="266.557" width="206.809" height="206.809" filterUnits="userSpaceOnUse" color-interpolation-filters="sRGB">
<feFlood flood-opacity="0" result="BackgroundImageFix"/>
<feBlend mode="normal" in="SourceGraphic" in2="BackgroundImageFix" result="shape"/>
<feGaussianBlur stdDeviation="37" result="effect1_foregroundBlur_5113_21587"/>
</filter>
<filter id="filter4_f_5113_21587" x="129.337" y="33.9932" width="206.809" height="206.81" filterUnits="userSpaceOnUse" color-interpolation-filters="sRGB">
<feFlood flood-opacity="0" result="BackgroundImageFix"/>
<feBlend mode="normal" in="SourceGraphic" in2="BackgroundImageFix" result="shape"/>
<feGaussianBlur stdDeviation="37" result="effect1_foregroundBlur_5113_21587"/>
</filter>
<filter id="filter5_f_5113_21587" x="0.225586" y="285" width="206.809" height="206.809" filterUnits="userSpaceOnUse" color-interpolation-filters="sRGB">
<feFlood flood-opacity="0" result="BackgroundImageFix"/>
<feBlend mode="normal" in="SourceGraphic" in2="BackgroundImageFix" result="shape"/>
<feGaussianBlur stdDeviation="37" result="effect1_foregroundBlur_5113_21587"/>
</filter>
<filter id="filter6_f_5113_21587" x="299.347" y="169.521" width="206.809" height="206.809" filterUnits="userSpaceOnUse" color-interpolation-filters="sRGB">
<feFlood flood-opacity="0" result="BackgroundImageFix"/>
<feBlend mode="normal" in="SourceGraphic" in2="BackgroundImageFix" result="shape"/>
<feGaussianBlur stdDeviation="37" result="effect1_foregroundBlur_5113_21587"/>
</filter>
<filter id="filter7_f_5113_21587" x="59.3447" y="598.346" width="206.809" height="206.809" filterUnits="userSpaceOnUse" color-interpolation-filters="sRGB">
<feFlood flood-opacity="0" result="BackgroundImageFix"/>
<feBlend mode="normal" in="SourceGraphic" in2="BackgroundImageFix" result="shape"/>
<feGaussianBlur stdDeviation="37" result="effect1_foregroundBlur_5113_21587"/>
</filter>
<filter id="filter8_f_5113_21587" x="233.703" y="459.705" width="208.297" height="208.297" filterUnits="userSpaceOnUse" color-interpolation-filters="sRGB">
<feFlood flood-opacity="0" result="BackgroundImageFix"/>
<feBlend mode="normal" in="SourceGraphic" in2="BackgroundImageFix" result="shape"/>
<feGaussianBlur stdDeviation="37" result="effect1_foregroundBlur_5113_21587"/>
</filter>
<linearGradient id="paint0_linear_5113_21587" x1="458.357" y1="353.922" x2="458.357" y2="375.307" gradientUnits="userSpaceOnUse">
<stop stop-color="#0091E6"/>
<stop offset="1" stop-color="#0079BF"/>
</linearGradient>
<linearGradient id="paint1_linear_5113_21587" x1="102.415" y1="379.256" x2="98.5273" y2="383.313" gradientUnits="userSpaceOnUse">
<stop offset="0.18" stop-color="#0052CC"/>
<stop offset="1" stop-color="#2684FF"/>
</linearGradient>
<linearGradient id="paint2_linear_5113_21587" x1="98.1263" y1="383.864" x2="93.6294" y2="388.288" gradientUnits="userSpaceOnUse">
<stop offset="0.18" stop-color="#0052CC"/>
<stop offset="1" stop-color="#2684FF"/>
</linearGradient>
<radialGradient id="paint3_radial_5113_21587" cx="0" cy="0" r="1" gradientUnits="userSpaceOnUse" gradientTransform="translate(333.55 560.688) rotate(39.3263) scale(13.9148 13.0439)">
<stop offset="0.119792" stop-color="#FFB900"/>
<stop offset="0.6" stop-color="#FF5189"/>
<stop offset="0.999" stop-color="#FF4747"/>
</radialGradient>
<clipPath id="clip0_5113_21587">
<rect width="33.3606" height="33.3606" fill="white" transform="translate(229.053 270.041)"/>
</clipPath>
<clipPath id="clip1_5113_21587">
<rect width="24" height="24" fill="white" transform="translate(354.443 742.439)"/>
</clipPath>
<clipPath id="clip2_5113_21587">
<rect width="21.385" height="21.385" fill="white" transform="translate(447.663 353.922)"/>
</clipPath>
<clipPath id="clip3_5113_21587">
<rect width="27.495" height="19.2465" fill="white" transform="translate(214.031 122.695)"/>
</clipPath>
<clipPath id="clip4_5113_21587">
<rect width="21.385" height="21.385" fill="white" transform="translate(86.9238 372.367)"/>
</clipPath>
<clipPath id="clip5_5113_21587">
<rect width="21.385" height="21.385" fill="white" transform="translate(386.716 256.887)"/>
</clipPath>
<clipPath id="clip6_5113_21587">
<rect width="21.385" height="21.385" fill="white" transform="translate(146.714 687.049)"/>
</clipPath>
<clipPath id="clip7_5113_21587">
<rect width="25.8414" height="25.8414" fill="white" transform="translate(320.626 546.625)"/>
</clipPath>
</defs>
</svg>
