<svg width="320" height="384" viewBox="0 0 320 384" fill="none" xmlns="http://www.w3.org/2000/svg">
<path opacity="0.6" fill-rule="evenodd" clip-rule="evenodd" d="M332.982 209.491C332.982 304.755 255.755 381.982 160.491 381.982C65.2268 381.982 -12 304.755 -12 209.491C-12 169.503 1.60729 132.693 24.4441 103.439C23.8314 103.152 23.275 102.765 22.7962 102.299C-0.262918 131.878 -14 169.08 -14 209.491C-14 305.859 64.1222 383.982 160.491 383.982C256.859 383.982 334.982 305.859 334.982 209.491C334.982 113.122 256.859 35 160.491 35C108.834 35 62.4203 57.4469 30.4711 93.1186C31.0174 93.5099 31.4954 93.9906 31.8835 94.5394C63.4689 59.2261 109.384 37 160.491 37C255.755 37 332.982 114.227 332.982 209.491ZM160.481 323C223.166 323 273.981 272.184 273.981 209.5C273.981 146.816 223.166 96 160.481 96C148.374 96 136.709 97.8958 125.768 101.407C125.586 100.745 125.294 100.13 124.912 99.5805C136.117 95.9575 148.071 94 160.481 94C224.27 94 275.981 145.711 275.981 209.5C275.981 273.289 224.27 325 160.481 325C96.6926 325 44.9814 273.289 44.9814 209.5C44.9814 162.237 73.3694 121.605 114.025 103.723C114.107 104.41 114.306 105.061 114.6 105.656C74.7712 123.279 46.9814 163.144 46.9814 209.5C46.9814 272.184 97.7971 323 160.481 323ZM160.481 270C193.895 270 220.981 242.913 220.981 209.5C220.981 192.66 214.101 177.426 202.998 166.458C203.497 166.008 203.92 165.475 204.246 164.88C215.809 176.223 222.981 192.024 222.981 209.5C222.981 244.018 194.999 272 160.481 272C125.964 272 97.9814 244.018 97.9814 209.5C97.9814 174.982 125.964 147 160.481 147C173.276 147 185.173 150.845 195.08 157.442C194.568 157.88 194.132 158.402 193.791 158.988C184.238 152.675 172.789 149 160.481 149C127.068 149 99.9814 176.087 99.9814 209.5C99.9814 242.913 127.068 270 160.481 270Z" fill="#D7E5FF"/>
<g filter="url(#filter0_d_5116_14670)">
<circle cx="198.981" cy="162" r="4" fill="#FFA600"/>
</g>
<g filter="url(#filter1_d_5116_14670)">
<circle cx="119.981" cy="103" r="4" fill="#FFA600"/>
</g>
<g opacity="0.1" filter="url(#filter2_f_5116_14670)">
<rect x="172.181" y="80.1992" width="48" height="48" rx="24" fill="#343C7B"/>
</g>
<circle cx="192.981" cy="101" r="24" fill="white"/>
<g clip-path="url(#clip0_5116_14670)">
<path d="M199.762 101.661C196.879 101.661 194.542 104.03 194.542 106.954C194.542 109.877 196.879 112.248 199.762 112.248C202.645 112.248 204.981 109.877 204.981 106.954C204.981 104.03 202.645 101.661 199.762 101.661ZM186.201 101.661C183.318 101.661 180.981 104.03 180.981 106.954C180.981 109.877 183.318 112.248 186.201 112.248C189.084 112.248 191.421 109.877 191.421 106.954C191.421 104.03 189.084 101.661 186.201 101.661H186.201ZM198.201 95.0436C198.201 97.967 195.864 100.338 192.982 100.338C190.099 100.338 187.762 97.967 187.762 95.0436C187.762 92.1201 190.099 89.75 192.982 89.75C195.864 89.75 198.201 92.1201 198.201 95.0436H198.201Z" fill="url(#paint0_radial_5116_14670)"/>
</g>
<g opacity="0.1" filter="url(#filter3_f_5116_14670)">
<rect x="36.1807" y="148.201" width="44.802" height="48" rx="22.401" fill="#343C7B"/>
</g>
<circle cx="56.9814" cy="169" r="24" fill="white"/>
<g clip-path="url(#clip1_5116_14670)">
<path fill-rule="evenodd" clip-rule="evenodd" d="M53.7799 157C52.4533 157.001 51.3796 158.075 51.3805 159.4C51.3796 160.724 52.4542 161.798 53.7809 161.799H56.1813V159.4C56.1823 158.076 55.1076 157.002 53.7799 157C53.7809 157 53.7809 157 53.7799 157V157ZM53.7799 163.4H47.3809C46.0542 163.401 44.9795 164.475 44.9805 165.8C44.9785 167.124 46.0532 168.198 47.3799 168.2H53.7799C55.1066 168.199 56.1813 167.125 56.1803 165.8C56.1813 164.475 55.1066 163.401 53.7799 163.4Z" fill="#36C5F0"/>
<path fill-rule="evenodd" clip-rule="evenodd" d="M68.982 165.8C68.983 164.475 67.9083 163.401 66.5817 163.4C65.255 163.401 64.1803 164.475 64.1813 165.8V168.2H66.5817C67.9083 168.199 68.983 167.125 68.982 165.8ZM62.582 165.8V159.4C62.583 158.076 61.5093 157.002 60.1826 157C58.8559 157.001 57.7812 158.075 57.7822 159.4V165.8C57.7803 167.124 58.8549 168.198 60.1816 168.2C61.5083 168.199 62.583 167.125 62.582 165.8Z" fill="#2EB67D"/>
<path fill-rule="evenodd" clip-rule="evenodd" d="M60.1826 181C61.5093 180.999 62.584 179.924 62.583 178.6C62.584 177.276 61.5093 176.202 60.1826 176.201H57.7822V178.6C57.7812 179.923 58.8559 180.998 60.1826 181ZM60.1826 174.599H66.5826C67.9093 174.598 68.984 173.523 68.983 172.199C68.985 170.875 67.9103 169.801 66.5836 169.799H60.1836C58.8569 169.8 57.7822 170.874 57.7832 172.198C57.7822 173.523 58.8559 174.598 60.1826 174.599Z" fill="#ECB22E"/>
<path fill-rule="evenodd" clip-rule="evenodd" d="M44.9805 172.2C44.9795 173.524 46.0542 174.599 47.3809 174.6C48.7075 174.599 49.7822 173.524 49.7813 172.2V169.801H47.3809C46.0542 169.802 44.9795 170.876 44.9805 172.2ZM51.3805 172.2V178.6C51.3786 179.924 52.4533 180.999 53.7799 181.001C55.1066 181 56.1813 179.925 56.1803 178.601V172.202C56.1823 170.878 55.1076 169.804 53.7809 169.802C52.4533 169.802 51.3796 170.876 51.3805 172.2C51.3805 172.2 51.3805 172.201 51.3805 172.2Z" fill="#E01E5A"/>
</g>
<g opacity="0.1" filter="url(#filter4_f_5116_14670)">
<rect x="258.181" y="60.2012" width="44.802" height="44.802" rx="22.401" fill="#343C7B"/>
</g>
<circle cx="277.981" cy="80" r="24" fill="white"/>
<g clip-path="url(#clip2_5116_14670)">
<path d="M277.935 68.7461C271.334 68.7461 265.981 74.0755 265.981 80.6499C265.981 85.9094 269.407 90.3715 274.156 91.9455C274.753 92.0557 274.973 91.6873 274.973 91.3728C274.973 91.089 274.962 90.1512 274.957 89.1566C271.631 89.8767 270.929 87.7521 270.929 87.7521C270.386 86.3761 269.602 86.0104 269.602 86.0104C268.518 85.2715 269.684 85.2866 269.684 85.2866C270.884 85.3707 271.516 86.5134 271.516 86.5134C272.582 88.3332 274.313 87.8071 274.995 87.503C275.102 86.7335 275.412 86.2085 275.754 85.9112C273.099 85.6101 270.308 84.5894 270.308 80.0282C270.308 78.7287 270.775 77.6667 271.539 76.8331C271.415 76.5332 271.006 75.3225 271.655 73.6829C271.655 73.6829 272.659 73.3629 274.943 74.9031C275.897 74.6392 276.919 74.507 277.935 74.5026C278.951 74.507 279.974 74.6392 280.93 74.9031C283.211 73.3629 284.214 73.6829 284.214 73.6829C284.864 75.3225 284.455 76.5332 284.331 76.8331C285.097 77.6667 285.561 78.7286 285.561 80.0282C285.561 84.6003 282.765 85.607 280.103 85.9017C280.532 86.2711 280.914 86.9956 280.914 88.1061C280.914 89.6988 280.9 90.9807 280.9 91.3728C280.9 91.6896 281.115 92.0608 281.721 91.9439C286.468 90.3681 289.889 85.9077 289.889 80.6499C289.889 74.0755 284.537 68.7461 277.935 68.7461Z" fill="black"/>
<path d="M270.457 85.7058C270.431 85.7649 270.337 85.7826 270.252 85.7421C270.165 85.7032 270.117 85.6226 270.145 85.5632C270.17 85.5023 270.264 85.4853 270.351 85.5262C270.437 85.565 270.487 85.6464 270.457 85.7058ZM271.045 86.2282C270.988 86.2809 270.876 86.2564 270.801 86.1732C270.723 86.0902 270.708 85.9793 270.766 85.9258C270.825 85.8732 270.933 85.8978 271.011 85.9809C271.089 86.0648 271.104 86.1751 271.045 86.2283L271.045 86.2282ZM271.448 86.8967C271.375 86.9474 271.255 86.8998 271.181 86.794C271.108 86.6882 271.108 86.5612 271.183 86.5103C271.257 86.4595 271.375 86.5052 271.45 86.6102C271.523 86.7179 271.523 86.8448 271.448 86.8967L271.448 86.8967ZM272.13 87.6709C272.065 87.7428 271.925 87.7235 271.823 87.6253C271.719 87.5294 271.69 87.3931 271.755 87.3212C271.822 87.2491 271.962 87.2693 272.065 87.3667C272.169 87.4625 272.2 87.5997 272.131 87.6709H272.13ZM273.012 87.9323C272.983 88.0255 272.849 88.0679 272.713 88.0283C272.578 87.9875 272.49 87.8782 272.517 87.784C272.545 87.6902 272.68 87.6461 272.817 87.6884C272.952 87.729 273.04 87.8374 273.012 87.9323H273.012ZM274.016 88.0431C274.019 88.1413 273.904 88.2227 273.762 88.2245C273.619 88.2276 273.503 88.1481 273.502 88.0516C273.502 87.9525 273.614 87.8718 273.757 87.8695C273.899 87.8667 274.016 87.9455 274.016 88.0431ZM275.001 88.0055C275.018 88.1013 274.919 88.1997 274.778 88.2258C274.64 88.251 274.511 88.1919 274.493 88.097C274.476 87.9988 274.577 87.9005 274.715 87.875C274.857 87.8505 274.983 87.9081 275.001 88.0055Z" fill="black"/>
</g>
<g opacity="0.1" filter="url(#filter5_f_5116_14670)">
<rect x="108.646" y="151.67" width="29.3344" height="29.3344" rx="14.6672" fill="#343C7B"/>
</g>
<circle cx="120.981" cy="164" r="16" fill="white"/>
<g clip-path="url(#clip3_5116_14670)">
<path d="M126.616 157H115.351C114.596 157 113.983 157.612 113.983 158.367V169.633C113.983 170.388 114.596 171 115.351 171H126.616C127.371 171 127.983 170.388 127.983 169.633V158.367C127.983 157.612 127.371 157 126.616 157Z" fill="url(#paint1_linear_5116_14670)"/>
<path d="M125.507 158.82H122.55C122.187 158.82 121.894 159.114 121.894 159.477V164.289C121.894 164.651 122.187 164.945 122.55 164.945H125.507C125.87 164.945 126.164 164.651 126.164 164.289V159.477C126.164 159.114 125.87 158.82 125.507 158.82Z" fill="white"/>
<path d="M119.416 158.82H116.459C116.097 158.82 115.803 159.114 115.803 159.477V167.789C115.803 168.152 116.097 168.445 116.459 168.445H119.416C119.779 168.445 120.073 168.152 120.073 167.789V159.477C120.073 159.114 119.779 158.82 119.416 158.82Z" fill="white"/>
</g>
<g opacity="0.1" filter="url(#filter6_f_5116_14670)">
<rect x="134.649" y="23.6719" width="32" height="32" rx="16" fill="#343C7B"/>
</g>
<circle cx="147.981" cy="37" r="16" fill="white"/>
<g clip-path="url(#clip4_5116_14670)">
<path d="M145.312 43.6089L145.562 42.0678L145.004 42.0552H142.34L144.192 30.6829C144.197 30.6482 144.215 30.6165 144.243 30.5937C144.27 30.5709 144.306 30.5584 144.342 30.5586H148.835C150.326 30.5586 151.355 30.8592 151.893 31.4526C152.145 31.7309 152.305 32.0218 152.383 32.3419C152.464 32.6778 152.466 33.0791 152.386 33.5686L152.38 33.6043V33.9179L152.632 34.0562C152.825 34.1505 152.997 34.2782 153.142 34.4329C153.358 34.6709 153.497 34.9733 153.556 35.332C153.617 35.7008 153.597 36.1397 153.497 36.6365C153.382 37.2081 153.196 37.7059 152.945 38.1132C152.724 38.4781 152.426 38.7942 152.071 39.0411C151.738 39.2703 151.342 39.4442 150.894 39.5556C150.46 39.6651 149.965 39.7203 149.423 39.7203H149.073C148.823 39.7203 148.58 39.8075 148.39 39.9638C148.199 40.1219 148.073 40.3402 148.033 40.5799L148.007 40.7187L147.564 43.435L147.544 43.5347C147.539 43.5663 147.53 43.582 147.516 43.5927C147.503 43.603 147.487 43.6087 147.47 43.6089H145.312Z" fill="#253B80"/>
<path d="M152.871 33.6406C152.858 33.7237 152.842 33.8086 152.825 33.8958C152.233 36.8422 150.206 37.8601 147.617 37.8601H146.299C145.982 37.8601 145.715 38.0828 145.666 38.3852L144.991 42.5309L144.8 43.706C144.792 43.7527 144.795 43.8003 144.809 43.8457C144.822 43.8912 144.845 43.9333 144.877 43.9692C144.908 44.005 144.948 44.0339 144.992 44.0536C145.036 44.0734 145.084 44.0837 145.133 44.0837H147.471C147.748 44.0837 147.983 43.8888 148.026 43.6244L148.049 43.5093L148.489 40.8037L148.518 40.6552C148.561 40.3899 148.796 40.195 149.073 40.195H149.423C151.688 40.195 153.461 39.3043 153.979 36.7267C154.196 35.6499 154.084 34.7508 153.511 34.1185C153.329 33.9229 153.112 33.7609 152.871 33.6406Z" fill="#179BD7"/>
<path d="M152.248 33.3995C152.059 33.3465 151.867 33.3051 151.672 33.2757C151.288 33.2184 150.899 33.191 150.51 33.1935H146.988C146.854 33.1934 146.724 33.2398 146.623 33.3242C146.521 33.4086 146.453 33.5255 146.433 33.6538L145.684 38.2503L145.662 38.3844C145.685 38.2381 145.762 38.1047 145.878 38.0083C145.994 37.912 146.142 37.8591 146.295 37.8591H147.613C150.202 37.8591 152.23 36.8406 152.822 33.8942C152.84 33.8069 152.855 33.722 152.868 33.639C152.712 33.5595 152.549 33.493 152.381 33.4399C152.337 33.4258 152.293 33.4123 152.248 33.3995Z" fill="#222D65"/>
<path d="M146.437 33.6558C146.457 33.5275 146.524 33.4105 146.626 33.3262C146.728 33.2418 146.858 33.1956 146.992 33.196H150.513C150.93 33.196 151.32 33.2225 151.675 33.2781C151.916 33.3147 152.153 33.3695 152.384 33.4419C152.559 33.498 152.722 33.5644 152.872 33.6409C153.048 32.5521 152.87 31.8107 152.262 31.1394C151.592 30.4004 150.383 30.084 148.835 30.084H144.343C144.027 30.084 143.757 30.3067 143.708 30.6096L141.837 42.0988C141.828 42.1522 141.831 42.2067 141.846 42.2587C141.862 42.3107 141.888 42.3589 141.924 42.4C141.961 42.441 142.005 42.4741 142.056 42.4967C142.107 42.5194 142.162 42.5311 142.218 42.5312H144.991L145.688 38.2515L146.437 33.6558Z" fill="#253B80"/>
</g>
<g opacity="0.1" filter="url(#filter7_f_5116_14670)">
<rect x="43.6465" y="58.6641" width="32" height="32" rx="16" fill="#343C7B"/>
</g>
<circle cx="56.9814" cy="72" r="16" fill="white"/>
<g clip-path="url(#clip5_5116_14670)">
<path d="M62.707 66.498H56.6875C56.6875 67.2187 56.9738 67.9099 57.4834 68.4195C57.993 68.9291 58.6841 69.2153 59.4048 69.2153H60.5136V70.286C60.5146 71.7853 61.7298 73.0006 63.2292 73.0016V67.0202C63.2292 66.7319 62.9954 66.498 62.707 66.498Z" fill="#2684FF"/>
<path d="M59.7284 69.498H53.709C53.7099 70.9974 54.9251 72.2127 56.4245 72.2136H57.5334V73.2877C57.5353 74.787 58.7513 76.0015 60.2507 76.0015V70.0203C60.2507 69.7319 60.0168 69.4981 59.7284 69.4981V69.498Z" fill="url(#paint2_linear_5116_14670)"/>
<path d="M56.75 72.4941H50.7305C50.7305 73.9949 51.9471 75.2114 53.4478 75.2114H54.5601V76.282C54.5611 77.78 55.7742 78.9947 57.2722 78.9975V73.0164C57.2722 72.728 57.0384 72.4941 56.75 72.4941Z" fill="url(#paint3_linear_5116_14670)"/>
</g>
<g opacity="0.1" filter="url(#filter8_f_5116_14670)">
<rect x="246.646" y="142.666" width="32" height="32" rx="16" fill="#343C7B"/>
</g>
<circle cx="259.981" cy="156" r="16" fill="white"/>
<g clip-path="url(#clip6_5116_14670)">
<path d="M265.341 149H254.622C253.717 149 252.981 149.643 252.981 150.44V159.889C252.981 160.685 253.717 161.328 254.621 161.328H263.693L263.269 160.035L264.293 160.867L265.261 161.65L266.981 162.978V150.44C266.981 149.643 266.245 149 265.341 149ZM262.253 158.127C262.253 158.127 261.965 157.827 261.725 157.561C262.773 157.303 263.173 156.73 263.173 156.73C262.845 156.918 262.533 157.051 262.253 157.142C261.853 157.289 261.469 157.387 261.093 157.442C260.325 157.568 259.621 157.533 259.021 157.435C258.565 157.359 258.173 157.247 257.845 157.135C257.661 157.072 257.461 156.995 257.261 156.897C257.237 156.883 257.213 156.876 257.189 156.862C257.173 156.855 257.165 156.848 257.157 156.841C257.013 156.772 256.933 156.723 256.933 156.723C256.933 156.723 257.317 157.282 258.333 157.547C258.093 157.813 257.797 158.127 257.797 158.127C256.029 158.078 255.357 157.065 255.357 157.065C255.357 154.815 256.509 152.991 256.509 152.991C257.661 152.236 258.757 152.257 258.757 152.257L258.837 152.341C257.397 152.704 256.733 153.256 256.733 153.256C256.733 153.256 256.909 153.172 257.205 153.054C258.061 152.725 258.741 152.634 259.021 152.613C259.069 152.606 259.109 152.599 259.157 152.599C259.694 152.538 260.236 152.534 260.773 152.585C261.533 152.662 262.349 152.858 263.181 153.256C263.181 153.256 262.549 152.732 261.189 152.369L261.301 152.257C261.301 152.257 262.397 152.236 263.549 152.991C263.549 152.991 264.701 154.815 264.701 157.065C264.701 157.065 264.021 158.078 262.253 158.127V158.127ZM258.533 154.864C258.077 154.864 257.717 155.213 257.717 155.639C257.717 156.066 258.085 156.415 258.533 156.415C258.989 156.415 259.349 156.066 259.349 155.639C259.357 155.213 258.989 154.864 258.533 154.864H258.533ZM261.453 154.864C260.997 154.864 260.637 155.213 260.637 155.639C260.637 156.066 261.005 156.415 261.453 156.415C261.909 156.415 262.269 156.066 262.269 155.639C262.269 155.213 261.909 154.864 261.453 154.864Z" fill="#7289DA"/>
</g>
<g filter="url(#filter9_d_5116_14670)">
<circle cx="26.9805" cy="98" r="4" fill="#FFA600"/>
</g>
<defs>
<filter id="filter0_d_5116_14670" x="193.436" y="156.455" width="11.0904" height="11.0904" filterUnits="userSpaceOnUse" color-interpolation-filters="sRGB">
<feFlood flood-opacity="0" result="BackgroundImageFix"/>
<feColorMatrix in="SourceAlpha" type="matrix" values="0 0 0 0 0 0 0 0 0 0 0 0 0 0 0 0 0 0 127 0" result="hardAlpha"/>
<feOffset/>
<feGaussianBlur stdDeviation="0.77259"/>
<feColorMatrix type="matrix" values="0 0 0 0 1 0 0 0 0 0.65098 0 0 0 0 0 0 0 0 0.8 0"/>
<feBlend mode="normal" in2="BackgroundImageFix" result="effect1_dropShadow_5116_14670"/>
<feBlend mode="normal" in="SourceGraphic" in2="effect1_dropShadow_5116_14670" result="shape"/>
</filter>
<filter id="filter1_d_5116_14670" x="114.436" y="97.4548" width="11.0904" height="11.0904" filterUnits="userSpaceOnUse" color-interpolation-filters="sRGB">
<feFlood flood-opacity="0" result="BackgroundImageFix"/>
<feColorMatrix in="SourceAlpha" type="matrix" values="0 0 0 0 0 0 0 0 0 0 0 0 0 0 0 0 0 0 127 0" result="hardAlpha"/>
<feOffset/>
<feGaussianBlur stdDeviation="0.77259"/>
<feColorMatrix type="matrix" values="0 0 0 0 1 0 0 0 0 0.65098 0 0 0 0 0 0 0 0 0.8 0"/>
<feBlend mode="normal" in2="BackgroundImageFix" result="effect1_dropShadow_5116_14670"/>
<feBlend mode="normal" in="SourceGraphic" in2="effect1_dropShadow_5116_14670" result="shape"/>
</filter>
<filter id="filter2_f_5116_14670" x="149.312" y="57.3305" width="93.7373" height="93.7373" filterUnits="userSpaceOnUse" color-interpolation-filters="sRGB">
<feFlood flood-opacity="0" result="BackgroundImageFix"/>
<feBlend mode="normal" in="SourceGraphic" in2="BackgroundImageFix" result="shape"/>
<feGaussianBlur stdDeviation="11.4343" result="effect1_foregroundBlur_5116_14670"/>
</filter>
<filter id="filter3_f_5116_14670" x="13.312" y="125.333" width="90.5391" height="93.7373" filterUnits="userSpaceOnUse" color-interpolation-filters="sRGB">
<feFlood flood-opacity="0" result="BackgroundImageFix"/>
<feBlend mode="normal" in="SourceGraphic" in2="BackgroundImageFix" result="shape"/>
<feGaussianBlur stdDeviation="11.4343" result="effect1_foregroundBlur_5116_14670"/>
</filter>
<filter id="filter4_f_5116_14670" x="235.312" y="37.3325" width="90.5391" height="90.5401" filterUnits="userSpaceOnUse" color-interpolation-filters="sRGB">
<feFlood flood-opacity="0" result="BackgroundImageFix"/>
<feBlend mode="normal" in="SourceGraphic" in2="BackgroundImageFix" result="shape"/>
<feGaussianBlur stdDeviation="11.4343" result="effect1_foregroundBlur_5116_14670"/>
</filter>
<filter id="filter5_f_5116_14670" x="85.7768" y="128.801" width="75.0713" height="75.0713" filterUnits="userSpaceOnUse" color-interpolation-filters="sRGB">
<feFlood flood-opacity="0" result="BackgroundImageFix"/>
<feBlend mode="normal" in="SourceGraphic" in2="BackgroundImageFix" result="shape"/>
<feGaussianBlur stdDeviation="11.4343" result="effect1_foregroundBlur_5116_14670"/>
</filter>
<filter id="filter6_f_5116_14670" x="111.781" y="0.803204" width="77.7373" height="77.7373" filterUnits="userSpaceOnUse" color-interpolation-filters="sRGB">
<feFlood flood-opacity="0" result="BackgroundImageFix"/>
<feBlend mode="normal" in="SourceGraphic" in2="BackgroundImageFix" result="shape"/>
<feGaussianBlur stdDeviation="11.4343" result="effect1_foregroundBlur_5116_14670"/>
</filter>
<filter id="filter7_f_5116_14670" x="20.7778" y="35.7954" width="77.7373" height="77.7373" filterUnits="userSpaceOnUse" color-interpolation-filters="sRGB">
<feFlood flood-opacity="0" result="BackgroundImageFix"/>
<feBlend mode="normal" in="SourceGraphic" in2="BackgroundImageFix" result="shape"/>
<feGaussianBlur stdDeviation="11.4343" result="effect1_foregroundBlur_5116_14670"/>
</filter>
<filter id="filter8_f_5116_14670" x="223.778" y="119.797" width="77.7373" height="77.7373" filterUnits="userSpaceOnUse" color-interpolation-filters="sRGB">
<feFlood flood-opacity="0" result="BackgroundImageFix"/>
<feBlend mode="normal" in="SourceGraphic" in2="BackgroundImageFix" result="shape"/>
<feGaussianBlur stdDeviation="11.4343" result="effect1_foregroundBlur_5116_14670"/>
</filter>
<filter id="filter9_d_5116_14670" x="21.4353" y="92.4548" width="11.0904" height="11.0904" filterUnits="userSpaceOnUse" color-interpolation-filters="sRGB">
<feFlood flood-opacity="0" result="BackgroundImageFix"/>
<feColorMatrix in="SourceAlpha" type="matrix" values="0 0 0 0 0 0 0 0 0 0 0 0 0 0 0 0 0 0 127 0" result="hardAlpha"/>
<feOffset/>
<feGaussianBlur stdDeviation="0.77259"/>
<feColorMatrix type="matrix" values="0 0 0 0 1 0 0 0 0 0.65098 0 0 0 0 0 0 0 0 0.8 0"/>
<feBlend mode="normal" in2="BackgroundImageFix" result="effect1_dropShadow_5116_14670"/>
<feBlend mode="normal" in="SourceGraphic" in2="effect1_dropShadow_5116_14670" result="shape"/>
</filter>
<radialGradient id="paint0_radial_5116_14670" cx="0" cy="0" r="1" gradientUnits="userSpaceOnUse" gradientTransform="translate(192.985 102.06) rotate(39.3263) scale(12.9232 12.1144)">
<stop offset="0.119792" stop-color="#FFB900"/>
<stop offset="0.6" stop-color="#FF5189"/>
<stop offset="0.999" stop-color="#FF4747"/>
</radialGradient>
<linearGradient id="paint1_linear_5116_14670" x1="120.983" y1="157" x2="120.983" y2="171" gradientUnits="userSpaceOnUse">
<stop stop-color="#0091E6"/>
<stop offset="1" stop-color="#0079BF"/>
</linearGradient>
<linearGradient id="paint2_linear_5116_14670" x1="60.1219" y1="69.5085" x2="57.5768" y2="72.1642" gradientUnits="userSpaceOnUse">
<stop offset="0.18" stop-color="#0052CC"/>
<stop offset="1" stop-color="#2684FF"/>
</linearGradient>
<linearGradient id="paint3_linear_5116_14670" x1="57.3157" y1="72.5237" x2="54.3717" y2="75.4202" gradientUnits="userSpaceOnUse">
<stop offset="0.18" stop-color="#0052CC"/>
<stop offset="1" stop-color="#2684FF"/>
</linearGradient>
<clipPath id="clip0_5116_14670">
<rect width="24" height="24" fill="white" transform="translate(180.981 89)"/>
</clipPath>
<clipPath id="clip1_5116_14670">
<rect width="24" height="24" fill="white" transform="translate(44.9805 157)"/>
</clipPath>
<clipPath id="clip2_5116_14670">
<rect width="24" height="24" fill="white" transform="translate(265.981 68)"/>
</clipPath>
<clipPath id="clip3_5116_14670">
<rect width="14" height="14" fill="white" transform="translate(113.982 157)"/>
</clipPath>
<clipPath id="clip4_5116_14670">
<rect width="14" height="14" fill="white" transform="translate(140.981 30)"/>
</clipPath>
<clipPath id="clip5_5116_14670">
<rect width="14" height="14" fill="white" transform="translate(49.9814 65)"/>
</clipPath>
<clipPath id="clip6_5116_14670">
<rect width="14" height="14" fill="white" transform="translate(252.981 149)"/>
</clipPath>
</defs>
</svg>
